<?xml version="1.0" standalone="no"?>
<!DOCTYPE svg PUBLIC "-//W3C//DTD SVG 20010904//EN"
 "http://www.w3.org/TR/2001/REC-SVG-20010904/DTD/svg10.dtd">
<svg version="1.0" xmlns="http://www.w3.org/2000/svg"
 width="512.000000pt" height="512.000000pt" viewBox="0 0 512.000000 512.000000"
 preserveAspectRatio="xMidYMid meet">

<g transform="translate(0.000000,512.000000) scale(0.100000,-0.100000)"
fill="#000000" stroke="none">
<path d="M0 2560 l0 -2560 2560 0 2560 0 0 2560 0 2560 -2560 0 -2560 0 0
-2560z m2919 365 c34 -39 71 -106 71 -129 0 -25 14 -26 111 -1 52 14 106 25
121 25 22 0 66 -37 220 -182 105 -101 216 -205 245 -232 29 -26 53 -52 53 -57
0 -5 -111 89 -246 209 -136 119 -252 216 -258 216 -6 -1 -73 -18 -150 -39 -95
-25 -146 -34 -165 -29 -14 4 -33 6 -42 5 -17 -2 -119 132 -119 155 0 6 7 17
15 24 14 11 23 7 62 -31 l46 -44 -26 49 c-35 62 -33 70 3 26 35 -40 38 -35 9
14 -37 62 0 78 50 21z"/>
</g>
</svg>
