<svg id="svg" version="1.1" xmlns="http://www.w3.org/2000/svg" xmlns:xlink="http://www.w3.org/1999/xlink" width="80" height="56.13305613305613" viewBox="0, 0, 400,256.13305613305613"><g id="svgg"><path id="path0" d="M307.187 2.187 C 307.112 2.262,306.356 2.436,305.506 2.573 C 304.656 2.709,303.632 2.993,303.230 3.203 C 302.828 3.413,302.390 3.585,302.257 3.586 C 301.975 3.588,298.204 5.391,298.014 5.615 C 297.753 5.923,296.234 6.919,296.026 6.919 C 295.667 6.919,292.915 9.403,290.199 12.178 C 283.057 19.474,281.082 22.050,280.086 25.368 C 279.769 26.425,279.349 27.669,279.152 28.132 C 278.956 28.595,278.796 29.211,278.796 29.502 C 278.796 29.793,278.641 30.395,278.451 30.839 C 278.261 31.283,277.904 32.338,277.656 33.184 C 277.408 34.029,276.986 35.337,276.719 36.089 C 276.452 36.842,276.233 37.674,276.233 37.939 C 276.233 38.203,276.074 38.798,275.878 39.261 C 275.500 40.159,275.074 41.689,274.684 43.562 C 274.551 44.196,274.332 44.946,274.196 45.227 C 273.837 45.975,273.378 48.773,273.239 51.061 C 273.040 54.358,274.148 56.608,276.895 58.487 C 278.568 59.632,279.870 62.008,280.370 64.830 C 280.687 66.621,280.484 67.752,279.174 71.493 C 278.866 72.373,278.505 73.685,278.010 75.721 C 277.874 76.284,277.655 76.976,277.525 77.258 C 277.395 77.540,277.171 78.290,277.029 78.924 C 276.886 79.558,276.641 80.653,276.484 81.358 C 276.327 82.063,276.033 83.301,275.832 84.109 C 274.942 87.670,275.637 90.368,278.384 94.015 L 279.425 95.396 279.440 98.371 C 279.451 100.647,279.558 101.550,279.894 102.217 C 280.136 102.697,280.333 103.207,280.333 103.350 C 280.333 103.494,280.510 103.806,280.725 104.044 C 281.631 105.045,281.662 106.091,280.809 106.822 C 277.933 109.284,276.879 110.796,275.876 113.901 C 275.343 115.549,275.318 120.257,275.832 122.079 C 276.035 122.796,276.332 123.959,276.492 124.664 C 277.191 127.728,277.399 128.524,277.570 128.788 C 277.670 128.942,277.827 129.577,277.920 130.197 C 278.187 131.997,278.296 132.129,283.682 137.205 C 292.120 145.157,294.683 147.744,294.683 148.309 C 294.683 148.635,294.979 149.198,295.341 149.560 L 295.999 150.218 295.449 150.804 C 295.146 151.126,294.591 151.442,294.214 151.507 C 292.587 151.786,285.251 153.271,284.433 153.486 C 283.940 153.616,282.844 153.839,281.999 153.982 C 281.153 154.124,279.366 154.477,278.027 154.765 C 275.660 155.275,272.031 155.977,270.461 156.228 C 269.734 156.345,269.649 156.269,269.098 155.007 C 268.347 153.287,266.493 150.686,265.269 149.637 C 261.767 146.634,259.080 143.528,257.739 140.935 C 254.439 134.558,251.016 132.218,248.676 134.741 C 247.318 136.206,247.964 137.821,252.026 143.113 C 254.416 146.228,254.421 147.987,252.034 146.023 C 250.596 144.840,248.309 143.264,247.808 143.111 C 247.030 142.874,246.408 142.482,243.745 140.551 C 242.579 139.705,241.254 138.747,240.800 138.421 C 240.346 138.094,239.686 137.573,239.334 137.262 C 238.981 136.951,237.828 136.010,236.771 135.170 C 235.714 134.330,234.561 133.392,234.209 133.085 C 230.374 129.743,230.192 129.717,231.738 132.735 C 236.117 141.284,237.102 142.671,240.733 145.403 C 241.745 146.165,242.905 147.230,243.310 147.770 C 243.716 148.309,244.114 148.808,244.195 148.879 C 244.511 149.153,245.858 151.312,246.238 152.153 C 246.672 153.115,249.100 155.614,250.718 156.766 C 251.201 157.109,252.844 158.724,254.369 160.355 C 255.895 161.986,258.482 164.655,260.120 166.285 C 263.432 169.585,264.047 170.576,262.616 170.310 C 262.143 170.221,261.043 170.046,260.173 169.919 C 259.303 169.793,258.475 169.617,258.332 169.529 C 258.189 169.441,257.229 169.205,256.198 169.005 C 251.564 168.105,248.310 167.398,246.637 166.927 C 243.779 166.122,241.896 165.454,241.896 165.244 C 241.896 165.122,241.694 165.022,241.448 165.021 C 241.201 165.020,240.682 164.854,240.293 164.651 C 238.387 163.657,232.161 162.609,230.740 163.043 C 229.909 163.297,228.828 164.840,228.828 165.772 C 228.828 167.050,226.508 167.210,223.156 166.162 C 222.503 165.958,221.719 165.791,221.413 165.791 C 221.108 165.791,220.547 165.632,220.167 165.437 C 219.786 165.242,218.985 165.002,218.387 164.902 C 217.789 164.803,217.242 164.629,217.173 164.517 C 217.103 164.404,216.630 164.234,216.121 164.138 C 215.611 164.043,214.832 163.811,214.388 163.622 C 213.944 163.434,213.062 163.085,212.428 162.847 C 210.852 162.254,205.637 159.882,203.372 158.728 C 199.488 156.750,193.981 158.213,189.324 162.460 C 188.349 163.349,184.975 165.022,184.158 165.022 C 183.956 165.022,183.648 165.195,183.472 165.407 C 183.297 165.618,182.965 165.796,182.736 165.802 C 182.006 165.821,179.894 167.183,178.360 168.624 C 176.526 170.348,174.456 171.685,173.624 171.685 C 173.524 171.685,173.269 171.858,173.058 172.069 C 172.846 172.281,172.458 172.454,172.194 172.454 C 171.931 172.454,171.656 172.550,171.583 172.667 C 171.511 172.784,170.479 173.371,169.290 173.971 C 168.101 174.571,166.670 175.484,166.110 176.000 C 164.390 177.583,162.398 179.116,162.059 179.116 C 161.968 179.116,161.473 179.446,160.959 179.850 C 160.446 180.254,159.766 180.666,159.449 180.765 C 159.132 180.863,158.873 181.040,158.873 181.158 C 158.873 181.276,158.555 181.497,158.168 181.650 C 157.780 181.802,157.233 182.073,156.951 182.251 C 155.214 183.349,154.217 183.930,153.099 184.497 C 152.404 184.849,151.709 185.253,151.555 185.394 C 151.401 185.535,150.823 185.881,150.269 186.163 C 149.716 186.445,149.224 186.765,149.176 186.874 C 149.128 186.983,148.724 187.240,148.279 187.445 C 147.354 187.871,146.622 188.327,146.117 188.789 C 145.925 188.965,145.670 189.110,145.552 189.110 C 145.369 189.110,143.580 190.213,142.217 191.166 C 141.817 191.445,140.918 191.968,140.038 192.434 C 139.757 192.583,139.221 192.905,138.849 193.149 C 138.476 193.394,137.513 193.997,136.707 194.491 C 135.902 194.984,134.938 195.588,134.566 195.832 C 134.193 196.077,133.658 196.396,133.376 196.541 C 133.094 196.686,132.559 197.005,132.186 197.249 C 131.814 197.494,130.850 198.097,130.045 198.591 C 129.239 199.084,128.276 199.688,127.903 199.932 C 127.531 200.177,126.940 200.501,126.591 200.653 C 126.241 200.805,125.895 201.018,125.822 201.126 C 125.681 201.335,122.528 203.282,121.130 204.024 C 120.433 204.394,119.835 204.437,117.220 204.308 L 114.133 204.156 112.806 205.845 C 109.836 209.624,106.261 211.400,103.989 210.226 C 103.465 209.955,102.437 209.804,100.933 209.777 C 98.448 209.734,98.400 209.761,97.376 211.781 C 96.530 213.448,95.221 214.001,91.571 214.234 C 85.267 214.636,83.794 215.075,81.569 217.220 C 79.326 219.381,78.263 220.153,75.427 221.683 C 72.561 223.228,72.879 223.129,67.265 224.216 C 62.740 225.092,59.204 225.891,58.362 226.227 C 57.475 226.581,57.012 226.402,55.734 225.211 C 54.218 223.800,53.390 223.190,52.990 223.190 C 52.793 223.190,52.492 223.049,52.320 222.877 C 51.637 222.194,48.784 221.631,45.227 221.477 C 42.643 221.365,41.461 221.210,40.999 220.923 C 40.125 220.378,36.174 217.364,35.264 216.549 C 34.859 216.185,34.334 215.714,34.099 215.503 C 33.864 215.291,32.876 214.427,31.904 213.581 C 29.044 211.094,22.737 204.989,21.425 203.438 C 20.470 202.309,18.962 199.525,18.962 198.889 C 18.962 198.618,18.789 197.983,18.578 197.477 C 18.293 196.796,18.193 195.540,18.192 192.641 C 18.190 186.998,17.654 186.238,12.862 185.086 C 11.410 184.738,9.082 186.861,8.561 189.008 C 8.362 189.827,7.464 191.873,5.761 195.388 C 4.561 197.866,3.955 199.411,3.559 201.003 C 3.422 201.554,3.228 202.131,3.128 202.284 C 3.029 202.437,2.810 203.197,2.643 203.972 C 2.476 204.747,2.223 205.900,2.081 206.534 C 1.317 209.941,1.518 217.408,2.446 220.115 C 3.409 222.924,4.038 223.841,7.364 227.283 C 8.525 228.485,9.476 229.603,9.478 229.767 C 9.480 229.932,9.568 230.105,9.673 230.152 C 9.974 230.285,10.849 231.612,11.928 233.568 C 12.472 234.555,13.175 235.823,13.491 236.387 C 13.807 236.951,14.562 238.392,15.169 239.590 C 15.775 240.788,16.358 241.807,16.464 241.854 C 16.570 241.900,16.657 242.073,16.658 242.238 C 16.658 242.402,16.849 242.883,17.082 243.306 C 17.315 243.728,17.583 244.651,17.678 245.356 C 18.322 250.106,19.186 253.798,19.896 254.830 C 20.087 255.108,20.243 255.540,20.243 255.791 C 20.243 256.421,36.489 256.505,36.730 255.876 C 36.809 255.672,37.283 255.428,37.786 255.334 C 38.288 255.240,38.756 255.070,38.826 254.957 C 38.896 254.843,39.962 254.279,41.194 253.702 C 42.426 253.126,43.607 252.545,43.818 252.411 C 45.300 251.472,47.263 250.640,47.509 250.846 C 47.663 250.976,48.313 251.581,48.952 252.190 C 51.302 254.432,53.389 254.899,57.271 254.052 C 60.203 253.412,70.768 253.476,73.286 254.149 C 75.628 254.775,77.643 255.622,77.643 255.981 C 77.643 256.507,93.541 256.328,93.929 255.798 C 94.219 255.400,94.950 255.332,100.363 255.197 C 108.399 254.997,124.731 254.508,134.657 254.170 C 139.026 254.021,146.464 253.805,151.185 253.690 C 160.445 253.465,161.017 253.383,163.855 251.882 C 166.080 250.705,170.543 250.532,184.753 251.072 C 189.334 251.246,193.254 251.454,193.466 251.533 C 193.677 251.612,197.079 251.778,201.025 251.902 C 204.971 252.026,209.526 252.247,211.147 252.392 C 212.767 252.538,217.553 252.783,221.781 252.936 C 226.009 253.089,231.198 253.311,233.312 253.429 C 235.426 253.546,239.001 253.650,241.256 253.659 C 243.511 253.669,247.808 253.811,250.806 253.977 C 256.295 254.280,258.234 254.188,263.165 253.391 C 268.274 252.566,269.368 252.382,271.236 252.033 C 274.824 251.363,276.085 251.092,276.874 250.822 C 277.297 250.678,278.124 250.460,278.714 250.339 C 280.273 250.018,282.409 249.342,283.191 248.923 C 284.896 248.010,286.488 248.652,288.856 251.208 C 290.626 253.117,295.733 253.285,301.237 251.615 C 304.266 250.696,308.418 250.701,311.467 251.625 C 315.586 252.875,332.802 252.854,339.013 251.592 C 339.789 251.434,342.787 251.226,345.676 251.128 C 349.655 250.993,351.208 250.845,352.082 250.515 C 353.336 250.041,354.952 249.279,355.157 249.065 C 355.227 248.991,355.593 248.735,355.970 248.495 C 358.114 247.133,360.719 244.140,363.145 240.253 C 364.895 237.451,367.873 231.532,368.347 229.917 C 368.440 229.600,368.624 229.340,368.755 229.340 C 368.887 229.340,368.998 229.138,369.003 228.892 C 369.008 228.645,369.234 227.982,369.507 227.418 C 369.779 226.855,370.006 226.259,370.011 226.094 C 370.015 225.929,370.181 225.468,370.378 225.069 C 371.064 223.684,371.557 222.402,371.557 222.003 C 371.557 221.783,371.713 221.239,371.903 220.795 C 372.094 220.351,372.387 219.468,372.556 218.834 C 372.724 218.200,372.969 217.277,373.100 216.784 C 373.405 215.636,373.400 211.074,373.092 209.737 C 372.962 209.174,372.682 207.963,372.469 207.047 C 372.257 206.131,371.922 204.682,371.726 203.828 C 371.372 202.289,371.278 201.956,370.363 198.975 C 369.823 197.216,369.751 187.231,370.263 185.022 C 370.411 184.381,370.647 182.934,370.786 181.807 C 371.375 177.032,372.591 172.710,374.343 169.164 C 375.650 166.520,375.966 165.937,376.174 165.791 C 376.274 165.721,376.668 165.029,377.048 164.254 C 377.429 163.479,378.347 161.691,379.088 160.282 C 381.818 155.094,385.650 147.154,385.650 146.686 C 385.650 146.493,386.595 144.305,387.063 143.413 C 387.273 143.014,387.444 142.533,387.444 142.345 C 387.444 142.156,387.604 141.675,387.800 141.276 C 388.240 140.379,388.696 139.062,389.007 137.788 C 389.138 137.254,389.353 136.620,389.487 136.378 C 389.620 136.136,389.842 135.420,389.980 134.785 C 390.118 134.151,390.369 133.113,390.538 132.479 C 391.704 128.104,390.938 124.237,388.201 120.672 C 386.797 118.842,385.655 116.393,385.646 115.191 C 385.644 114.905,385.472 114.181,385.264 113.584 C 384.552 111.539,384.703 108.567,385.576 107.439 C 386.480 106.273,387.444 104.430,387.444 103.870 C 387.444 103.647,387.613 102.930,387.819 102.277 C 388.970 98.637,389.359 85.505,388.383 83.257 C 387.765 81.833,386.603 81.130,383.812 80.490 C 382.449 80.177,381.195 79.754,381.026 79.551 C 380.857 79.347,380.609 79.180,380.474 79.180 C 380.044 79.180,377.310 76.946,376.599 76.014 C 375.991 75.217,375.913 74.886,375.910 73.111 C 375.904 69.161,376.474 69.982,367.159 60.508 C 364.434 57.736,361.944 55.152,361.627 54.766 C 360.652 53.578,358.232 49.986,358.232 49.726 C 358.232 49.591,358.088 49.389,357.912 49.276 C 357.735 49.163,357.453 48.840,357.284 48.559 C 355.269 45.202,351.616 38.992,351.481 38.693 C 351.386 38.482,351.086 37.963,350.815 37.540 C 350.544 37.117,349.784 35.734,349.125 34.465 C 347.603 31.536,346.628 29.876,346.191 29.468 C 346.115 29.398,345.596 28.648,345.037 27.803 C 344.477 26.957,343.470 25.557,342.798 24.691 C 342.126 23.826,341.576 23.043,341.576 22.951 C 341.576 22.859,341.333 22.530,341.037 22.219 C 340.740 21.907,340.310 21.365,340.082 21.012 C 339.853 20.660,339.519 20.279,339.340 20.167 C 339.160 20.054,339.013 19.804,339.013 19.611 C 339.013 19.419,338.922 19.223,338.811 19.176 C 338.700 19.129,337.922 18.225,337.082 17.168 C 336.243 16.111,335.045 14.697,334.420 14.025 C 333.795 13.354,332.998 12.402,332.648 11.911 C 332.299 11.420,331.916 11.019,331.798 11.019 C 331.679 11.019,331.582 10.903,331.582 10.761 C 331.582 10.349,329.144 8.076,327.610 7.058 C 324.174 4.777,320.645 3.460,316.208 2.804 C 315.291 2.668,313.837 2.443,312.975 2.303 C 311.314 2.035,307.418 1.956,307.187 2.187 M277.872 52.466 C 278.402 53.698,278.841 54.400,279.244 54.657 C 279.420 54.770,279.564 55.029,279.564 55.234 C 279.564 55.438,279.677 55.605,279.815 55.605 C 280.678 55.605,281.610 59.812,280.905 60.518 C 280.584 60.838,279.308 59.919,279.308 59.367 C 279.308 59.121,277.604 56.900,277.191 56.608 C 276.509 56.125,275.965 51.913,276.553 51.675 C 277.239 51.399,277.473 51.539,277.872 52.466 M197.727 200.102 C 199.764 201.736,200.604 202.055,201.985 201.716 C 202.584 201.569,203.740 201.369,204.552 201.271 C 205.364 201.173,206.091 200.991,206.168 200.867 C 206.462 200.392,207.610 200.677,209.156 201.609 C 210.040 202.141,211.051 202.719,211.403 202.892 C 211.755 203.066,212.389 203.432,212.812 203.706 C 213.235 203.980,213.834 204.353,214.142 204.536 C 215.033 205.064,218.820 207.392,219.475 207.816 C 219.802 208.027,220.628 208.537,221.310 208.949 C 226.014 211.792,226.198 213.093,221.909 213.171 C 221.134 213.185,219.596 213.370,218.491 213.581 C 217.387 213.792,216.057 213.965,215.537 213.965 C 215.017 213.965,214.328 214.150,214.005 214.376 C 213.332 214.848,208.882 214.774,205.637 214.238 C 204.651 214.075,201.768 213.927,199.231 213.909 L 194.619 213.876 192.896 214.718 C 191.031 215.631,190.857 215.636,187.828 214.864 C 186.912 214.630,185.586 214.321,184.881 214.177 C 184.177 214.034,182.958 213.754,182.174 213.556 C 179.027 212.763,171.998 213.140,167.012 214.371 C 163.311 215.285,162.177 213.957,165.343 212.417 C 166.224 211.989,167.146 211.527,167.393 211.392 C 168.515 210.778,168.801 210.629,169.763 210.157 C 170.327 209.881,171.422 209.352,172.197 208.981 C 172.972 208.610,173.837 208.178,174.119 208.021 C 176.450 206.720,179.691 205.253,180.234 205.253 C 180.442 205.253,180.938 205.090,181.337 204.891 C 181.736 204.692,182.501 204.317,183.037 204.058 C 183.573 203.799,184.553 203.060,185.215 202.415 C 186.917 200.757,187.495 200.447,189.238 200.263 C 191.428 200.031,193.275 199.603,193.722 199.225 C 194.748 198.357,195.855 198.599,197.727 200.102 " stroke="none" fill="#241c24" fill-rule="evenodd"></path><path id="path1" d="M0.000 128.123 L 0.000 256.246 9.865 256.246 C 15.291 256.246,19.731 256.154,19.731 256.041 C 19.731 255.928,19.624 255.726,19.493 255.593 C 18.794 254.879,17.740 250.831,17.393 247.534 C 17.162 245.335,16.807 244.022,16.144 242.921 C 16.017 242.710,15.668 242.018,15.369 241.384 C 15.070 240.750,14.721 240.058,14.592 239.846 C 14.464 239.635,14.041 238.828,13.653 238.053 C 13.265 237.277,12.867 236.583,12.768 236.510 C 12.669 236.437,12.461 236.091,12.306 235.741 C 10.840 232.444,9.314 230.322,5.279 225.968 C 4.278 224.888,3.183 223.447,2.845 222.765 C 2.507 222.083,2.113 221.294,1.970 221.013 C 0.550 218.217,0.575 206.466,2.006 203.796 C 2.171 203.489,2.307 202.970,2.308 202.643 C 2.309 202.317,2.482 201.720,2.692 201.316 C 2.903 200.912,3.079 200.393,3.084 200.163 C 3.088 199.932,3.315 199.283,3.587 198.719 C 3.860 198.155,4.086 197.579,4.091 197.440 C 4.096 197.300,4.609 196.147,5.231 194.877 C 6.341 192.614,6.933 191.287,7.748 189.238 C 7.973 188.674,8.228 188.040,8.316 187.828 C 9.168 185.780,10.772 184.498,12.483 184.497 C 14.421 184.497,17.650 185.879,17.673 186.718 C 17.677 186.882,17.811 187.060,17.969 187.113 C 18.792 187.387,19.414 191.190,18.992 193.365 C 18.424 196.298,20.205 201.277,22.823 204.069 C 23.235 204.509,23.573 204.955,23.573 205.061 C 23.574 205.167,23.692 205.253,23.836 205.253 C 23.980 205.253,25.324 206.435,26.822 207.880 C 32.512 213.364,34.249 214.949,36.455 216.670 C 37.475 217.466,38.347 218.220,38.394 218.347 C 38.441 218.474,38.637 218.578,38.830 218.578 C 39.023 218.578,39.272 218.722,39.385 218.898 C 40.241 220.237,42.295 220.823,46.746 220.999 C 49.289 221.100,50.483 221.251,50.901 221.525 C 51.224 221.736,51.714 221.909,51.991 221.909 C 52.267 221.909,52.667 222.082,52.878 222.293 C 53.090 222.505,53.363 222.678,53.485 222.678 C 53.763 222.678,54.583 223.288,56.011 224.556 C 57.215 225.625,58.777 225.709,60.906 224.819 C 61.364 224.628,62.049 224.471,62.429 224.471 C 62.809 224.471,63.706 224.307,64.423 224.107 C 65.962 223.677,67.865 223.294,70.340 222.919 C 72.052 222.658,74.145 221.873,74.453 221.374 C 74.533 221.246,74.756 221.140,74.949 221.140 C 75.142 221.140,76.014 220.650,76.886 220.051 C 77.759 219.452,78.747 218.812,79.083 218.628 C 79.418 218.444,79.693 218.185,79.693 218.051 C 79.693 217.918,79.815 217.809,79.964 217.809 C 80.113 217.809,80.718 217.277,81.309 216.627 C 81.900 215.976,82.614 215.342,82.896 215.218 C 83.177 215.093,83.581 214.890,83.792 214.765 C 84.701 214.228,86.731 213.903,90.327 213.716 C 94.984 213.474,95.855 213.145,96.879 211.235 C 98.267 208.650,101.371 208.206,105.624 209.985 C 106.843 210.494,111.144 207.365,112.569 204.933 C 113.379 203.551,113.191 203.595,117.782 203.707 C 120.558 203.774,120.450 203.808,123.385 201.922 C 123.714 201.710,125.212 200.788,126.714 199.872 C 128.215 198.956,129.714 198.033,130.045 197.822 C 130.375 197.611,131.837 196.711,133.292 195.824 C 136.174 194.066,136.302 193.986,138.214 192.761 C 138.929 192.303,139.608 191.928,139.723 191.928 C 139.838 191.928,140.071 191.805,140.241 191.655 C 140.920 191.057,144.927 188.601,145.227 188.599 C 145.404 188.598,145.548 188.490,145.548 188.358 C 145.548 188.227,145.807 188.037,146.124 187.936 C 146.441 187.836,147.207 187.367,147.827 186.894 C 148.446 186.421,149.109 186.035,149.300 186.035 C 149.491 186.035,149.648 185.931,149.648 185.803 C 149.648 185.676,149.965 185.445,150.352 185.290 C 150.740 185.135,151.403 184.783,151.826 184.509 C 152.904 183.808,153.770 183.295,154.516 182.914 C 154.869 182.734,155.979 182.094,156.983 181.492 C 157.988 180.890,158.939 180.397,159.097 180.397 C 159.255 180.397,159.385 180.301,159.385 180.184 C 159.385 180.067,159.702 179.808,160.090 179.608 C 160.477 179.408,160.852 179.183,160.922 179.108 C 160.993 179.032,161.742 178.525,162.588 177.982 C 163.434 177.438,164.660 176.479,165.314 175.851 C 166.709 174.509,166.324 174.738,172.083 171.815 C 175.482 170.090,176.931 169.204,177.851 168.289 C 179.286 166.861,181.598 165.279,182.249 165.279 C 182.499 165.279,182.703 165.166,182.703 165.027 C 182.703 164.889,183.020 164.706,183.408 164.622 C 184.097 164.471,184.795 164.193,186.739 163.299 C 187.668 162.872,189.211 161.741,190.683 160.409 C 191.438 159.725,194.415 158.154,196.226 157.484 C 197.636 156.962,200.774 156.951,201.759 157.465 C 202.163 157.675,202.664 157.848,202.873 157.848 C 203.081 157.848,203.558 158.013,203.932 158.216 C 205.622 159.131,210.061 161.169,210.698 161.321 C 211.086 161.414,211.403 161.593,211.403 161.719 C 211.403 161.845,211.605 161.951,211.851 161.956 C 212.098 161.961,212.761 162.188,213.325 162.460 C 213.889 162.732,214.580 162.963,214.862 162.972 C 215.144 162.981,215.599 163.158,215.872 163.365 C 216.146 163.572,216.665 163.745,217.025 163.750 C 217.386 163.755,217.969 163.924,218.322 164.126 C 218.674 164.327,219.214 164.496,219.522 164.501 C 219.830 164.506,220.407 164.646,220.803 164.812 C 221.200 164.978,222.217 165.255,223.062 165.428 C 223.908 165.600,225.115 165.874,225.744 166.036 C 227.396 166.462,227.982 166.236,228.342 165.034 C 228.508 164.480,228.990 163.606,229.414 163.092 L 230.184 162.158 232.645 162.286 C 235.605 162.440,238.111 163.018,240.871 164.183 C 242.827 165.008,243.368 165.215,244.971 165.749 C 245.887 166.054,246.882 166.304,247.182 166.304 C 247.482 166.304,248.141 166.477,248.647 166.688 C 249.153 166.899,249.914 167.072,250.339 167.072 C 250.763 167.072,251.545 167.232,252.077 167.426 C 252.977 167.756,254.074 167.981,257.880 168.616 C 258.708 168.755,259.908 169.045,260.547 169.262 C 262.234 169.835,262.384 169.395,260.953 168.070 C 259.012 166.271,257.476 164.687,256.374 163.344 C 255.074 161.761,251.818 158.518,250.201 157.197 C 247.514 155.000,246.471 153.860,245.319 151.864 C 244.660 150.720,243.966 149.630,243.777 149.442 C 243.588 149.253,243.434 149.020,243.433 148.925 C 243.433 148.548,241.453 146.596,240.432 145.964 C 239.200 145.203,236.620 142.720,235.871 141.576 C 234.961 140.185,234.731 139.790,234.412 139.078 C 234.238 138.690,234.016 138.373,233.917 138.373 C 233.818 138.373,233.661 138.027,233.568 137.604 C 233.475 137.181,233.308 136.835,233.196 136.835 C 233.084 136.835,232.113 135.066,231.038 132.904 C 228.842 128.485,228.699 128.325,222.854 123.770 C 219.707 121.318,219.325 120.812,219.390 119.177 C 219.418 118.458,219.212 117.876,218.619 116.997 C 218.173 116.337,217.809 115.756,217.809 115.705 C 217.809 115.653,217.407 114.996,216.915 114.244 C 215.597 112.227,215.656 112.311,212.467 107.880 C 211.301 106.261,211.228 105.573,212.221 105.573 C 212.882 105.573,214.058 106.796,215.425 108.905 C 215.927 109.680,216.640 110.750,217.009 111.282 C 217.379 111.815,217.798 112.449,217.940 112.692 C 218.459 113.574,219.219 114.678,219.535 115.009 C 219.713 115.195,219.859 115.462,219.859 115.602 C 219.859 115.814,220.714 117.108,221.416 117.958 C 221.512 118.075,222.118 117.930,222.761 117.637 C 224.325 116.925,224.824 116.962,226.356 117.905 C 227.496 118.606,227.753 118.672,228.434 118.434 C 228.862 118.284,229.789 118.089,230.493 118.000 C 231.198 117.911,232.005 117.735,232.287 117.608 C 232.569 117.482,233.376 117.266,234.081 117.128 C 235.428 116.864,236.590 116.574,239.334 115.815 C 240.250 115.562,241.691 115.166,242.537 114.936 C 244.862 114.303,246.793 113.757,247.790 113.450 C 248.283 113.299,249.090 113.085,249.584 112.975 C 250.077 112.865,251.104 112.597,251.866 112.381 L 253.251 111.988 254.941 113.427 C 257.495 115.604,259.828 117.656,260.722 118.514 C 261.162 118.937,262.148 119.801,262.911 120.436 C 263.675 121.070,264.670 121.935,265.123 122.357 C 266.127 123.296,268.141 125.080,271.365 127.886 C 272.703 129.052,274.032 130.245,274.317 130.538 C 274.602 130.830,275.352 131.488,275.983 132.000 C 276.614 132.511,277.545 133.318,278.052 133.793 C 278.560 134.268,279.763 135.349,280.727 136.195 C 281.691 137.040,282.948 138.163,283.520 138.690 C 284.472 139.566,285.454 140.013,285.074 139.398 C 284.987 139.257,284.749 139.142,284.546 139.142 C 284.343 139.142,284.177 138.969,284.177 138.757 C 284.177 138.546,284.004 138.373,283.792 138.373 C 283.581 138.373,283.408 138.200,283.408 137.988 C 283.408 137.777,283.235 137.604,283.024 137.604 C 282.812 137.604,282.639 137.460,282.638 137.284 C 282.637 137.108,282.154 136.560,281.565 136.067 C 279.076 133.985,277.515 132.170,277.506 131.350 C 277.502 130.914,277.329 130.334,277.122 130.060 C 276.915 129.786,276.746 129.235,276.746 128.835 C 276.746 128.434,276.573 127.693,276.361 127.187 C 276.150 126.681,275.977 125.995,275.977 125.663 C 275.977 125.330,275.810 124.624,275.605 124.092 C 273.398 118.358,275.338 110.251,279.681 107.056 C 280.702 106.305,281.306 105.061,280.650 105.061 C 280.435 105.061,279.603 103.297,278.938 101.428 C 278.632 100.568,278.528 99.540,278.570 97.777 C 278.623 95.566,278.574 95.265,278.072 94.731 C 277.765 94.404,277.514 94.001,277.514 93.834 C 277.514 93.666,277.405 93.530,277.272 93.530 C 277.027 93.530,276.738 93.057,275.707 90.967 C 275.026 89.587,274.768 86.206,275.178 84.049 C 275.713 81.235,276.049 79.802,276.394 78.855 C 276.587 78.323,276.746 77.595,276.746 77.236 C 276.746 76.877,276.888 76.332,277.062 76.024 C 277.236 75.716,277.515 74.946,277.682 74.311 C 277.850 73.677,278.122 72.639,278.289 72.005 C 278.455 71.371,278.753 70.489,278.950 70.045 C 279.147 69.600,279.310 69.082,279.312 68.891 C 279.314 68.701,279.487 68.054,279.697 67.452 C 279.995 66.597,280.018 66.123,279.807 65.274 C 278.767 61.111,278.950 61.407,275.302 57.979 C 272.934 55.753,272.646 55.010,272.646 51.123 C 272.646 48.839,272.758 47.634,273.030 46.982 C 273.242 46.476,273.414 45.795,273.414 45.469 C 273.414 45.143,273.550 44.552,273.716 44.155 C 273.881 43.758,274.160 42.857,274.336 42.152 C 274.671 40.808,275.192 38.922,275.823 36.771 C 276.186 35.535,276.431 34.765,277.025 32.992 C 277.178 32.534,277.411 31.698,277.542 31.134 C 277.673 30.570,277.883 29.878,278.009 29.596 C 278.135 29.315,278.492 28.219,278.804 27.162 C 279.115 26.105,279.522 24.837,279.708 24.343 C 279.895 23.850,280.119 23.187,280.207 22.870 C 280.296 22.553,280.475 22.293,280.607 22.293 C 280.738 22.293,280.846 22.173,280.846 22.027 C 280.846 21.689,281.895 20.182,282.319 19.910 C 282.495 19.798,282.639 19.548,282.639 19.355 C 282.639 19.163,282.731 18.966,282.842 18.919 C 282.954 18.873,284.113 17.654,285.417 16.213 C 290.002 11.146,295.949 5.637,296.834 5.637 C 296.907 5.637,297.359 5.371,297.838 5.046 C 299.334 4.030,303.074 2.311,303.818 2.297 C 304.079 2.292,304.580 2.123,304.933 1.922 C 305.861 1.391,313.843 1.389,315.590 1.919 C 316.282 2.129,317.252 2.303,317.745 2.305 C 318.238 2.307,318.972 2.482,319.376 2.692 C 319.780 2.903,320.356 3.079,320.657 3.084 C 320.958 3.088,321.666 3.315,322.229 3.587 C 322.793 3.860,323.380 4.086,323.534 4.091 C 323.688 4.096,324.323 4.387,324.944 4.737 C 325.565 5.088,326.246 5.455,326.457 5.554 C 328.011 6.280,330.851 8.767,332.858 11.159 C 333.207 11.575,334.169 12.723,334.995 13.709 C 335.822 14.696,336.603 15.541,336.731 15.588 C 336.859 15.635,336.963 15.796,336.963 15.944 C 336.963 16.093,337.127 16.343,337.327 16.500 C 337.663 16.763,344.041 25.082,344.907 26.386 C 345.119 26.705,345.474 27.211,345.696 27.512 C 345.919 27.813,346.175 28.261,346.265 28.507 C 346.355 28.754,346.547 28.956,346.693 28.956 C 346.838 28.956,346.957 29.065,346.957 29.199 C 346.957 29.333,347.299 29.949,347.717 30.568 C 348.135 31.188,348.596 31.972,348.741 32.311 C 348.887 32.650,349.113 33.101,349.244 33.312 C 349.375 33.523,349.550 33.869,349.632 34.081 C 349.714 34.292,350.002 34.811,350.271 35.234 C 350.540 35.657,351.085 36.637,351.483 37.412 C 351.880 38.187,352.285 38.881,352.384 38.955 C 352.482 39.028,352.690 39.374,352.846 39.723 C 353.152 40.410,353.376 40.792,354.469 42.485 C 354.859 43.091,355.289 43.841,355.424 44.151 C 355.721 44.838,356.201 45.599,356.630 46.068 C 356.807 46.260,356.951 46.564,356.951 46.743 C 356.951 46.923,357.181 47.279,357.463 47.534 C 357.745 47.789,357.976 48.153,357.976 48.342 C 357.976 48.532,358.062 48.687,358.168 48.687 C 358.274 48.687,358.680 49.235,359.071 49.904 C 360.047 51.573,360.348 52.031,360.794 52.530 C 361.006 52.765,361.352 53.226,361.563 53.553 C 361.775 53.880,362.149 54.328,362.396 54.549 C 362.643 54.770,362.844 55.024,362.844 55.113 C 362.844 55.203,365.741 58.204,369.282 61.783 C 376.639 69.219,376.675 69.272,376.875 73.084 L 377.005 75.572 378.189 76.681 C 380.184 78.553,381.970 79.510,383.847 79.714 C 384.758 79.813,385.546 80.022,385.598 80.178 C 385.650 80.334,385.892 80.461,386.134 80.461 C 386.863 80.461,388.303 81.691,388.917 82.837 C 389.550 84.017,389.766 94.301,389.239 98.142 C 388.654 102.410,387.953 105.188,387.194 106.248 C 386.979 106.549,386.630 107.053,386.419 107.369 C 386.208 107.684,385.881 108.103,385.693 108.299 C 385.140 108.875,385.753 113.958,386.641 116.160 C 386.801 116.557,386.931 117.109,386.931 117.388 C 386.931 117.809,387.714 119.192,388.221 119.667 C 388.675 120.092,390.263 122.189,390.263 122.364 C 390.263 122.479,390.416 122.755,390.604 122.978 C 391.774 124.367,392.206 128.945,391.413 131.559 C 391.203 132.251,391.028 133.173,391.023 133.609 C 391.019 134.045,390.846 134.625,390.639 134.898 C 390.432 135.172,390.262 135.691,390.261 136.052 C 390.260 136.412,390.087 137.038,389.877 137.441 C 389.666 137.845,389.490 138.364,389.485 138.594 C 389.480 138.825,389.254 139.475,388.981 140.038 C 388.709 140.602,388.482 141.267,388.478 141.515 C 388.473 141.764,388.362 142.167,388.231 142.412 C 388.100 142.657,387.749 143.434,387.450 144.138 C 387.151 144.843,386.739 145.746,386.535 146.145 C 386.330 146.544,386.163 146.988,386.163 147.131 C 386.163 147.463,385.714 148.462,383.710 152.594 C 382.821 154.427,381.972 156.214,381.823 156.566 C 381.674 156.919,381.436 157.409,381.295 157.655 C 381.153 157.902,380.922 158.306,380.780 158.552 C 380.638 158.799,380.465 159.145,380.396 159.321 C 380.074 160.135,379.965 160.353,379.337 161.435 C 378.969 162.069,378.242 163.395,377.722 164.382 C 377.202 165.368,376.487 166.637,376.133 167.201 C 375.778 167.764,375.224 168.802,374.900 169.507 C 374.576 170.211,374.153 171.094,373.959 171.468 C 373.765 171.842,373.606 172.361,373.605 172.621 C 373.604 172.881,373.431 173.424,373.221 173.828 C 373.010 174.232,372.838 174.841,372.838 175.182 C 372.838 175.522,372.674 176.193,372.474 176.672 C 372.274 177.150,372.031 178.213,371.933 179.034 C 371.835 179.854,371.595 181.155,371.400 181.924 C 371.204 182.694,371.042 184.020,371.039 184.871 C 371.036 185.722,370.867 187.341,370.664 188.469 C 370.177 191.163,370.158 196.244,370.630 197.365 C 370.970 198.171,371.145 198.779,371.941 201.922 C 372.137 202.697,372.430 203.850,372.590 204.484 C 372.751 205.119,373.046 206.156,373.246 206.791 C 373.446 207.425,373.609 208.329,373.608 208.801 C 373.607 209.273,373.793 210.298,374.020 211.080 C 374.272 211.947,374.381 212.963,374.299 213.682 C 374.115 215.289,373.624 217.772,373.306 218.706 C 373.162 219.129,372.956 219.905,372.848 220.431 C 372.740 220.957,372.534 221.533,372.390 221.712 C 372.246 221.891,372.047 222.420,371.947 222.887 C 371.846 223.355,371.603 224.047,371.406 224.425 C 371.209 224.803,371.047 225.267,371.046 225.457 C 371.045 225.647,370.889 226.108,370.699 226.482 C 369.957 227.943,369.518 228.985,369.360 229.660 C 369.269 230.048,369.092 230.365,368.966 230.365 C 368.841 230.365,368.738 230.511,368.738 230.689 C 368.738 230.868,368.507 231.444,368.225 231.970 C 367.944 232.495,367.713 233.085,367.713 233.280 C 367.713 233.474,367.540 233.777,367.329 233.953 C 367.117 234.128,366.944 234.480,366.944 234.734 C 366.944 234.989,366.771 235.370,366.560 235.582 C 366.348 235.793,366.176 236.139,366.176 236.350 C 366.176 236.562,366.030 236.887,365.852 237.073 C 365.674 237.260,365.387 237.700,365.213 238.053 C 364.889 238.711,364.755 238.934,363.549 240.820 C 363.161 241.426,362.844 241.986,362.844 242.065 C 362.844 242.634,358.240 247.714,356.958 248.559 C 356.638 248.770,356.225 249.087,356.042 249.262 C 355.858 249.438,355.440 249.697,355.112 249.838 C 354.784 249.979,354.343 250.194,354.132 250.314 C 351.963 251.552,349.593 251.982,344.651 252.033 C 341.126 252.070,337.960 252.349,334.529 252.925 C 332.349 253.291,316.157 253.284,314.542 252.917 C 313.837 252.756,312.454 252.516,311.467 252.383 C 310.480 252.250,309.396 251.998,309.058 251.823 C 308.278 251.421,304.387 251.431,303.598 251.838 C 303.275 252.004,302.204 252.252,301.217 252.388 C 300.231 252.524,298.789 252.750,298.014 252.891 C 291.427 254.081,290.717 253.927,287.210 250.545 C 285.589 248.981,284.783 248.726,283.808 249.464 C 283.534 249.671,283.115 249.840,282.876 249.840 C 282.637 249.840,282.111 250.012,281.708 250.223 C 281.304 250.433,280.707 250.606,280.380 250.607 C 280.054 250.608,279.535 250.743,279.227 250.908 C 278.920 251.073,277.918 251.367,277.002 251.563 C 273.700 252.266,271.720 252.656,270.083 252.923 C 269.167 253.073,267.707 253.363,266.838 253.568 C 265.969 253.772,264.812 253.940,264.265 253.940 C 263.719 253.940,262.608 254.113,261.797 254.324 C 260.069 254.774,244.202 254.864,240.871 254.443 C 239.814 254.309,234.941 254.090,230.042 253.955 C 225.143 253.820,221.019 253.639,220.877 253.551 C 220.736 253.464,217.134 253.289,212.873 253.162 C 208.611 253.036,203.857 252.814,202.306 252.670 C 200.756 252.525,196.432 252.293,192.697 252.154 C 188.962 252.015,182.986 251.766,179.416 251.601 C 168.916 251.117,165.899 251.448,162.076 253.504 C 161.210 253.970,153.147 254.427,141.063 254.695 C 134.721 254.836,127.457 255.070,124.920 255.214 C 122.383 255.359,114.686 255.553,107.816 255.647 C 100.945 255.741,95.324 255.914,95.324 256.032 C 95.324 256.149,163.876 256.246,247.662 256.246 L 400.000 256.246 400.000 128.123 L 400.000 0.000 200.000 0.000 L 0.000 0.000 0.000 128.123 M277.274 54.013 C 277.257 55.448,277.586 56.177,278.851 57.512 C 279.243 57.926,279.564 58.416,279.564 58.601 C 279.564 58.786,279.737 58.937,279.949 58.937 C 280.759 58.937,280.197 57.107,278.833 55.300 C 278.263 54.546,277.683 53.643,277.544 53.294 C 277.327 52.750,277.288 52.854,277.274 54.013 M193.818 199.981 C 193.034 200.413,192.180 200.601,190.518 200.704 C 189.285 200.781,188.204 200.956,188.116 201.092 C 188.028 201.229,187.704 201.419,187.396 201.515 C 187.087 201.611,186.195 202.320,185.413 203.089 C 184.003 204.477,181.708 205.766,180.645 205.766 C 180.341 205.766,179.786 205.927,179.412 206.124 C 179.038 206.321,177.810 206.927,176.685 207.469 C 175.559 208.012,174.484 208.600,174.296 208.776 C 174.108 208.953,173.746 209.097,173.492 209.097 C 173.237 209.097,172.885 209.270,172.710 209.481 C 172.534 209.693,172.188 209.865,171.941 209.865 C 171.694 209.865,171.348 210.038,171.172 210.250 C 170.997 210.461,170.734 210.634,170.589 210.634 C 170.181 210.634,167.634 211.884,167.456 212.172 C 167.370 212.313,167.089 212.428,166.832 212.428 C 166.576 212.428,166.223 212.601,166.047 212.812 C 165.872 213.024,165.516 213.197,165.256 213.197 C 164.997 213.197,164.652 213.444,164.490 213.747 C 164.220 214.252,164.245 214.282,164.801 214.113 C 165.655 213.854,168.669 213.253,170.788 212.919 C 173.076 212.558,180.017 212.548,182.191 212.902 C 184.875 213.339,186.617 213.738,187.517 214.120 C 188.559 214.563,192.215 214.602,192.642 214.174 C 193.679 213.137,199.497 212.543,202.306 213.188 C 203.442 213.449,209.853 214.047,211.659 214.061 C 212.293 214.066,213.504 213.864,214.350 213.612 C 215.195 213.360,217.329 212.991,219.090 212.793 C 224.245 212.213,225.276 211.941,224.039 211.484 C 223.784 211.389,223.517 211.246,223.447 211.165 C 223.251 210.941,221.830 209.982,221.397 209.781 C 221.185 209.684,220.707 209.403,220.335 209.158 C 219.963 208.913,218.999 208.309,218.193 207.816 C 217.388 207.322,216.424 206.719,216.052 206.474 C 215.679 206.229,215.144 205.911,214.862 205.767 C 214.580 205.622,213.658 205.047,212.812 204.490 C 211.967 203.932,210.698 203.174,209.994 202.805 C 209.289 202.436,208.424 201.971,208.072 201.772 C 207.384 201.384,205.396 201.514,204.804 201.986 C 203.325 203.165,199.224 202.412,197.300 200.609 C 195.907 199.305,195.256 199.187,193.818 199.981 M46.637 251.578 C 46.425 251.651,46.195 251.782,46.124 251.870 C 46.054 251.958,45.016 252.526,43.818 253.133 C 42.620 253.739,41.467 254.333,41.256 254.451 C 40.139 255.080,38.632 255.734,38.301 255.734 C 38.094 255.734,37.924 255.849,37.924 255.990 C 37.924 256.158,44.544 256.246,57.271 256.246 C 67.912 256.246,76.617 256.160,76.615 256.054 C 76.612 255.776,73.814 254.946,72.081 254.709 C 65.569 253.818,66.750 253.814,58.040 254.759 C 54.629 255.129,52.287 255.123,51.505 254.742 C 50.167 254.091,49.564 253.676,48.565 252.723 C 47.302 251.518,47.123 251.412,46.637 251.578 " stroke="none" fill="#fbfbfb" fill-rule="evenodd"></path><path id="path2" d="M212.172 106.606 C 212.172 106.893,212.345 107.193,212.556 107.274 C 212.767 107.356,212.940 107.565,212.940 107.739 C 212.940 107.914,213.171 108.265,213.453 108.520 C 213.735 108.775,213.965 109.139,213.965 109.329 C 213.965 109.518,214.053 109.673,214.160 109.673 C 214.266 109.673,214.872 110.450,215.505 111.399 C 216.138 112.348,216.749 113.242,216.863 113.385 C 218.454 115.381,219.712 117.870,219.812 119.216 C 219.936 120.899,220.280 121.276,225.112 125.033 C 226.099 125.800,227.886 127.379,229.084 128.542 C 230.282 129.704,232.012 131.265,232.928 132.011 C 233.844 132.757,234.651 133.433,234.721 133.513 C 234.792 133.594,235.714 134.343,236.771 135.178 C 237.828 136.013,238.981 136.951,239.334 137.262 C 239.686 137.573,240.346 138.094,240.800 138.421 C 241.254 138.747,242.579 139.705,243.745 140.551 C 246.408 142.482,247.030 142.874,247.808 143.111 C 248.309 143.264,250.596 144.840,252.034 146.023 C 254.421 147.987,254.416 146.228,252.026 143.113 C 247.964 137.821,247.318 136.206,248.676 134.741 C 251.016 132.218,254.439 134.558,257.739 140.935 C 259.080 143.528,261.767 146.634,265.269 149.637 C 266.493 150.686,268.347 153.287,269.098 155.007 C 269.649 156.269,269.734 156.345,270.461 156.228 C 272.031 155.977,275.660 155.275,278.027 154.765 C 279.366 154.477,281.153 154.124,281.999 153.982 C 282.844 153.839,283.940 153.616,284.433 153.486 C 285.251 153.271,292.587 151.786,294.214 151.507 C 294.591 151.442,295.143 151.129,295.441 150.812 L 295.983 150.235 295.230 149.429 C 294.816 148.985,294.393 148.623,294.291 148.623 C 294.188 148.623,293.679 148.248,293.160 147.790 C 292.641 147.332,291.750 146.553,291.181 146.060 C 288.849 144.040,281.990 137.988,281.871 137.846 C 281.800 137.763,280.301 136.440,278.539 134.906 C 276.778 133.373,275.279 132.056,275.208 131.978 C 275.138 131.901,273.696 130.634,272.005 129.162 C 270.314 127.691,268.815 126.361,268.674 126.207 C 268.533 126.053,266.630 124.363,264.446 122.452 C 258.945 117.639,255.667 114.749,255.263 114.355 C 255.075 114.172,254.522 113.718,254.034 113.346 L 253.148 112.670 251.430 113.102 C 248.870 113.746,244.326 114.988,241.512 115.814 C 240.525 116.104,239.257 116.443,238.693 116.567 C 237.775 116.771,232.694 118.026,230.365 118.625 C 227.862 119.268,227.350 119.242,226.091 118.409 C 224.661 117.461,224.457 117.450,222.797 118.222 L 221.508 118.823 220.876 117.948 C 220.528 117.467,220.099 116.916,219.923 116.723 C 219.747 116.530,219.603 116.319,219.603 116.254 C 219.603 116.113,216.917 111.984,216.537 111.542 C 216.391 111.372,216.272 111.169,216.272 111.091 C 216.272 110.892,214.581 108.478,213.529 107.175 C 212.562 105.977,212.172 105.813,212.172 106.606 " stroke="none" fill="#d4244b" fill-rule="evenodd"></path><path id="path3" d="M304.933 1.922 C 304.580 2.123,304.079 2.292,303.818 2.297 C 303.074 2.311,299.334 4.030,297.838 5.046 C 297.359 5.371,296.907 5.637,296.834 5.637 C 295.949 5.637,290.002 11.146,285.417 16.213 C 284.113 17.654,282.954 18.873,282.842 18.919 C 282.731 18.966,282.639 19.163,282.639 19.355 C 282.639 19.548,282.495 19.798,282.319 19.910 C 281.895 20.182,280.846 21.689,280.846 22.027 C 280.846 22.173,280.738 22.293,280.607 22.293 C 280.475 22.293,280.296 22.553,280.207 22.870 C 280.119 23.187,279.895 23.850,279.708 24.343 C 279.522 24.837,279.117 26.105,278.808 27.162 C 278.499 28.219,278.148 29.272,278.026 29.501 C 277.905 29.730,277.725 30.364,277.626 30.910 C 277.527 31.456,277.288 32.214,277.096 32.595 C 276.903 32.975,276.752 33.552,276.759 33.876 C 276.773 34.500,277.349 33.053,278.106 30.493 C 279.980 24.151,280.444 22.963,281.820 20.989 C 284.379 17.317,292.720 8.805,295.741 6.783 C 296.780 6.087,297.687 5.450,297.758 5.366 C 297.974 5.110,301.143 3.575,302.498 3.070 C 306.143 1.711,310.237 1.425,315.102 2.189 C 323.755 3.548,328.395 6.157,333.766 12.684 C 334.578 13.671,335.370 14.593,335.526 14.734 C 335.841 15.018,336.942 16.389,339.004 19.066 C 339.754 20.039,340.517 21.019,340.699 21.244 C 342.131 23.009,346.303 28.879,347.369 30.629 C 348.079 31.793,348.610 32.749,350.996 37.156 C 357.358 48.907,360.609 53.357,369.245 62.143 C 376.532 69.556,376.425 69.394,376.425 73.058 C 376.425 76.090,380.282 79.949,383.313 79.949 C 385.625 79.949,388.466 81.878,388.983 83.798 C 389.371 85.239,389.193 97.290,388.750 99.552 C 388.585 100.397,388.346 101.611,388.221 102.250 C 387.843 104.165,386.966 106.226,386.028 107.407 C 384.706 109.070,384.782 110.283,386.665 117.567 C 386.785 118.032,387.364 119.013,387.951 119.745 C 392.308 125.182,392.519 128.555,389.134 138.701 C 388.768 139.798,388.473 140.778,388.478 140.879 C 388.494 141.236,389.477 139.008,389.485 138.594 C 389.490 138.364,389.666 137.845,389.877 137.441 C 390.087 137.038,390.260 136.412,390.261 136.052 C 390.262 135.691,390.432 135.172,390.639 134.898 C 390.846 134.625,391.019 134.045,391.023 133.609 C 391.028 133.173,391.203 132.251,391.413 131.559 C 392.206 128.945,391.774 124.367,390.604 122.978 C 390.416 122.755,390.263 122.479,390.263 122.364 C 390.263 122.189,388.675 120.092,388.221 119.667 C 387.714 119.192,386.931 117.809,386.931 117.388 C 386.931 117.109,386.801 116.557,386.641 116.160 C 385.753 113.958,385.140 108.875,385.693 108.299 C 385.881 108.103,386.208 107.684,386.419 107.369 C 386.630 107.053,386.979 106.549,387.194 106.248 C 387.953 105.188,388.654 102.410,389.239 98.142 C 389.766 94.301,389.550 84.017,388.917 82.837 C 388.303 81.691,386.863 80.461,386.134 80.461 C 385.892 80.461,385.650 80.334,385.598 80.178 C 385.546 80.022,384.758 79.813,383.847 79.714 C 381.970 79.510,380.184 78.553,378.189 76.681 L 377.005 75.572 376.875 73.084 C 376.675 69.272,376.639 69.219,369.282 61.783 C 365.741 58.204,362.844 55.203,362.844 55.113 C 362.844 55.024,362.643 54.770,362.396 54.549 C 362.149 54.328,361.775 53.880,361.563 53.553 C 361.352 53.226,361.006 52.765,360.794 52.530 C 360.348 52.031,360.047 51.573,359.071 49.904 C 358.680 49.235,358.274 48.687,358.168 48.687 C 358.062 48.687,357.976 48.532,357.976 48.342 C 357.976 48.153,357.745 47.789,357.463 47.534 C 357.181 47.279,356.951 46.923,356.951 46.743 C 356.951 46.564,356.807 46.260,356.630 46.068 C 356.201 45.599,355.721 44.838,355.424 44.151 C 355.289 43.841,354.859 43.091,354.469 42.485 C 353.376 40.792,353.152 40.410,352.846 39.723 C 352.690 39.374,352.482 39.028,352.384 38.955 C 352.285 38.881,351.880 38.187,351.483 37.412 C 351.085 36.637,350.540 35.657,350.271 35.234 C 350.002 34.811,349.714 34.292,349.632 34.081 C 349.550 33.869,349.375 33.523,349.244 33.312 C 349.113 33.101,348.887 32.650,348.741 32.311 C 348.596 31.972,348.135 31.188,347.717 30.568 C 347.299 29.949,346.957 29.345,346.957 29.227 C 346.957 29.108,346.784 28.944,346.573 28.863 C 346.361 28.782,346.188 28.586,346.188 28.428 C 346.188 28.269,345.987 27.875,345.740 27.552 C 345.493 27.229,345.119 26.705,344.907 26.386 C 344.041 25.082,337.663 16.763,337.327 16.500 C 337.127 16.343,336.963 16.093,336.963 15.944 C 336.963 15.796,336.859 15.635,336.731 15.588 C 336.603 15.541,335.822 14.696,334.995 13.709 C 334.169 12.723,333.207 11.575,332.858 11.159 C 330.851 8.767,328.011 6.280,326.457 5.554 C 326.246 5.455,325.565 5.088,324.944 4.737 C 324.323 4.387,323.688 4.096,323.534 4.091 C 323.380 4.086,322.793 3.860,322.229 3.587 C 321.666 3.315,320.958 3.088,320.657 3.084 C 320.356 3.079,319.780 2.903,319.376 2.692 C 318.972 2.482,318.238 2.307,317.745 2.305 C 317.252 2.303,316.282 2.129,315.590 1.919 C 313.843 1.389,305.861 1.391,304.933 1.922 M276.304 35.290 C 276.164 35.682,275.865 36.637,275.641 37.412 C 275.416 38.187,274.997 39.619,274.708 40.594 C 274.419 41.569,274.183 42.565,274.183 42.807 C 274.183 43.049,274.011 43.577,273.800 43.981 C 273.590 44.385,273.417 45.018,273.416 45.388 C 273.415 45.759,273.242 46.476,273.030 46.982 C 272.758 47.634,272.646 48.839,272.646 51.123 C 272.646 55.010,272.934 55.753,275.302 57.979 C 278.587 61.067,278.820 61.381,279.337 63.421 C 279.480 63.985,279.693 64.792,279.811 65.215 L 280.024 65.983 280.051 65.263 C 280.113 63.539,278.094 59.411,277.021 59.071 C 273.545 57.968,272.026 52.352,273.569 46.305 C 273.936 44.867,274.327 43.286,274.438 42.793 C 274.548 42.300,274.755 41.550,274.896 41.127 C 275.038 40.705,275.405 39.436,275.712 38.309 C 276.019 37.181,276.393 35.938,276.542 35.546 C 276.692 35.154,276.757 34.775,276.687 34.705 C 276.616 34.634,276.444 34.898,276.304 35.290 M277.064 52.571 C 276.023 53.612,278.596 59.082,280.464 59.799 C 281.497 60.195,280.543 57.002,279.018 54.960 C 278.389 54.117,277.763 53.163,277.628 52.840 C 277.432 52.372,277.317 52.318,277.064 52.571 M278.833 55.300 C 280.197 57.107,280.759 58.937,279.949 58.937 C 279.737 58.937,279.564 58.786,279.564 58.601 C 279.564 58.416,279.243 57.926,278.851 57.512 C 277.586 56.177,277.257 55.448,277.274 54.013 C 277.288 52.854,277.327 52.750,277.544 53.294 C 277.683 53.643,278.263 54.546,278.833 55.300 M279.628 67.642 C 279.452 68.205,279.308 68.794,279.308 68.951 C 279.308 69.109,279.147 69.600,278.950 70.045 C 278.753 70.489,278.455 71.371,278.289 72.005 C 278.122 72.639,277.850 73.677,277.682 74.311 C 277.515 74.946,277.236 75.716,277.062 76.024 C 276.888 76.332,276.746 76.877,276.746 77.236 C 276.746 77.595,276.587 78.323,276.394 78.855 C 276.049 79.802,275.713 81.235,275.178 84.049 C 274.768 86.206,275.026 89.587,275.707 90.967 C 276.738 93.057,277.027 93.530,277.272 93.530 C 277.405 93.530,277.514 93.666,277.514 93.834 C 277.514 94.001,277.765 94.404,278.072 94.731 C 278.574 95.265,278.623 95.566,278.570 97.777 C 278.528 99.540,278.632 100.568,278.938 101.428 C 279.603 103.297,280.435 105.061,280.650 105.061 C 281.306 105.061,280.702 106.305,279.681 107.056 C 277.607 108.581,275.183 112.286,275.222 113.869 C 275.229 114.169,275.504 113.690,275.833 112.804 C 276.691 110.493,279.045 107.468,280.709 106.537 C 281.144 106.293,281.244 105.179,280.853 104.937 C 279.862 104.325,278.696 99.830,278.896 97.397 L 279.052 95.499 277.983 94.082 C 274.609 89.614,274.459 87.017,277.030 77.643 C 277.811 74.796,278.394 72.793,278.933 71.108 C 279.799 68.396,280.126 67.155,280.040 66.899 C 279.989 66.745,279.803 67.079,279.628 67.642 M211.498 105.953 C 211.415 106.169,211.832 106.998,212.467 107.880 C 215.656 112.311,215.597 112.227,216.915 114.244 C 217.407 114.996,217.809 115.653,217.809 115.705 C 217.809 115.756,218.173 116.337,218.619 116.997 C 219.212 117.876,219.418 118.458,219.390 119.177 C 219.325 120.812,219.707 121.318,222.854 123.770 C 228.699 128.325,228.842 128.485,231.038 132.904 C 232.113 135.066,233.084 136.835,233.196 136.835 C 233.308 136.835,233.475 137.181,233.568 137.604 C 233.661 138.027,233.818 138.373,233.917 138.373 C 234.016 138.373,234.238 138.690,234.412 139.078 C 234.731 139.790,234.961 140.185,235.871 141.576 C 236.620 142.720,239.200 145.203,240.432 145.964 C 241.453 146.596,243.433 148.548,243.433 148.925 C 243.434 149.020,243.588 149.253,243.777 149.442 C 243.966 149.630,244.660 150.720,245.319 151.864 C 246.471 153.860,247.514 155.000,250.201 157.197 C 251.818 158.518,255.074 161.761,256.374 163.344 C 257.475 164.685,259.013 166.272,260.946 168.063 C 261.906 168.953,262.093 169.254,261.859 169.536 C 261.624 169.820,261.674 169.891,262.108 169.891 C 262.407 169.891,262.652 169.768,262.652 169.618 C 262.652 169.217,251.932 158.314,248.619 155.345 C 247.477 154.321,246.377 153.168,246.176 152.783 C 245.330 151.164,244.253 149.408,243.939 149.135 C 243.857 149.065,243.457 148.562,243.048 148.018 C 242.640 147.475,241.435 146.362,240.371 145.546 C 237.205 143.117,236.383 142.078,233.374 136.707 C 232.437 135.034,229.853 129.766,229.853 129.529 C 229.853 129.156,227.355 126.790,225.112 125.039 C 220.251 121.244,219.936 120.898,219.812 119.216 C 219.712 117.870,218.454 115.381,216.863 113.385 C 216.749 113.242,216.138 112.348,215.505 111.399 C 214.872 110.450,214.266 109.673,214.160 109.673 C 214.053 109.673,213.965 109.518,213.965 109.329 C 213.965 109.139,213.735 108.775,213.453 108.520 C 213.171 108.265,212.940 107.914,212.940 107.739 C 212.940 107.565,212.767 107.356,212.556 107.274 C 212.142 107.115,212.016 106.086,212.411 106.086 C 212.774 106.086,216.272 110.620,216.272 111.091 C 216.272 111.169,216.391 111.372,216.537 111.542 C 216.917 111.984,219.603 116.113,219.603 116.254 C 219.603 116.319,219.747 116.530,219.923 116.723 C 220.099 116.916,220.528 117.467,220.876 117.948 L 221.508 118.823 222.797 118.222 C 224.457 117.450,224.661 117.461,226.091 118.409 C 227.350 119.242,227.862 119.268,230.365 118.625 C 232.694 118.026,237.775 116.771,238.693 116.567 C 239.257 116.443,240.525 116.104,241.512 115.814 C 244.326 114.988,248.870 113.746,251.430 113.102 L 253.148 112.670 254.034 113.346 C 254.522 113.718,255.075 114.172,255.263 114.355 C 255.667 114.749,258.945 117.639,264.446 122.452 C 266.630 124.363,268.533 126.053,268.674 126.207 C 268.815 126.361,270.314 127.691,272.005 129.162 C 273.696 130.634,275.138 131.901,275.208 131.978 C 275.279 132.056,276.778 133.373,278.539 134.906 C 280.301 136.440,281.800 137.763,281.871 137.846 C 281.990 137.988,288.849 144.040,291.181 146.060 C 291.750 146.553,292.656 147.345,293.193 147.820 C 293.952 148.490,294.170 148.584,294.170 148.243 C 294.170 147.770,292.575 146.152,285.193 139.142 C 278.932 133.195,277.771 131.987,277.771 131.425 C 277.771 131.165,277.437 129.768,277.030 128.321 C 275.538 123.022,275.210 121.141,275.176 117.698 C 275.149 114.876,275.113 114.612,274.925 115.823 C 274.656 117.551,275.082 122.739,275.604 124.092 C 275.809 124.624,275.977 125.330,275.977 125.663 C 275.977 125.995,276.150 126.681,276.361 127.187 C 276.573 127.693,276.746 128.434,276.746 128.835 C 276.746 129.235,276.915 129.786,277.122 130.060 C 277.329 130.334,277.502 130.914,277.506 131.350 C 277.515 132.170,279.076 133.985,281.565 136.067 C 282.154 136.560,282.637 137.108,282.638 137.284 C 282.639 137.460,282.812 137.604,283.024 137.604 C 283.235 137.604,283.408 137.777,283.408 137.988 C 283.408 138.200,283.581 138.373,283.792 138.373 C 284.004 138.373,284.177 138.546,284.177 138.757 C 284.177 138.969,284.343 139.142,284.546 139.142 C 284.749 139.142,284.987 139.257,285.074 139.398 C 285.454 140.013,284.472 139.566,283.520 138.690 C 282.948 138.163,281.691 137.040,280.727 136.195 C 279.763 135.349,278.560 134.268,278.052 133.793 C 277.545 133.318,276.614 132.511,275.983 132.000 C 275.352 131.488,274.602 130.830,274.317 130.538 C 274.032 130.245,272.703 129.052,271.365 127.886 C 268.141 125.080,266.127 123.296,265.123 122.357 C 264.670 121.935,263.675 121.070,262.911 120.436 C 262.148 119.801,261.162 118.937,260.722 118.514 C 259.828 117.656,257.495 115.604,254.941 113.427 L 253.251 111.988 251.866 112.381 C 251.104 112.597,250.077 112.865,249.584 112.975 C 249.090 113.085,248.283 113.299,247.790 113.450 C 246.793 113.757,244.862 114.303,242.537 114.936 C 241.691 115.166,240.250 115.562,239.334 115.815 C 236.590 116.574,235.428 116.864,234.081 117.128 C 233.376 117.266,232.569 117.482,232.287 117.608 C 232.005 117.735,231.198 117.911,230.493 118.000 C 229.789 118.089,228.862 118.284,228.434 118.434 C 227.753 118.672,227.496 118.606,226.356 117.905 C 224.824 116.962,224.325 116.925,222.761 117.637 C 222.118 117.930,221.512 118.075,221.416 117.958 C 220.714 117.108,219.859 115.814,219.859 115.602 C 219.859 115.462,219.713 115.195,219.535 115.009 C 219.219 114.678,218.459 113.574,217.940 112.692 C 217.798 112.449,217.379 111.815,217.009 111.282 C 216.640 110.750,215.927 109.680,215.425 108.905 C 213.544 106.003,211.941 104.798,211.498 105.953 M387.967 141.980 C 387.778 142.463,387.476 143.203,387.295 143.626 C 387.115 144.049,386.334 145.894,385.559 147.726 C 383.798 151.894,380.872 157.898,378.442 162.332 C 377.747 163.600,377.005 164.984,376.794 165.407 C 376.582 165.830,376.190 166.521,375.922 166.944 C 374.576 169.066,372.607 173.845,372.940 174.179 C 373.105 174.343,373.607 173.108,373.607 172.540 C 373.607 172.325,373.765 171.842,373.959 171.468 C 374.153 171.094,374.576 170.211,374.900 169.507 C 375.224 168.802,375.778 167.764,376.133 167.201 C 376.487 166.637,377.202 165.368,377.722 164.382 C 378.242 163.395,378.969 162.069,379.337 161.435 C 379.705 160.801,380.074 160.109,380.156 159.898 C 380.239 159.686,380.414 159.340,380.545 159.129 C 380.677 158.917,380.850 158.571,380.930 158.360 C 381.010 158.149,381.182 157.803,381.313 157.591 C 381.444 157.380,381.674 156.919,381.823 156.566 C 381.972 156.214,382.821 154.427,383.710 152.594 C 385.714 148.462,386.163 147.463,386.163 147.131 C 386.163 146.988,386.330 146.544,386.535 146.145 C 386.739 145.746,387.153 144.843,387.454 144.138 C 387.756 143.434,388.121 142.609,388.266 142.306 C 388.410 142.003,388.480 141.608,388.420 141.429 C 388.360 141.250,388.157 141.498,387.967 141.980 M196.023 157.550 C 194.243 158.204,191.495 159.674,190.694 160.399 C 189.212 161.740,187.670 162.871,186.739 163.299 C 184.795 164.193,184.097 164.471,183.408 164.622 C 183.020 164.706,182.703 164.889,182.703 165.027 C 182.703 165.166,182.499 165.279,182.249 165.279 C 181.598 165.279,179.286 166.861,177.851 168.289 C 176.931 169.204,175.482 170.090,172.083 171.815 C 166.324 174.738,166.709 174.509,165.314 175.851 C 164.660 176.479,163.434 177.438,162.588 177.982 C 161.742 178.525,160.993 179.032,160.922 179.108 C 160.852 179.183,160.477 179.408,160.090 179.608 C 159.702 179.808,159.385 180.067,159.385 180.184 C 159.385 180.301,159.255 180.397,159.097 180.397 C 158.939 180.397,157.988 180.890,156.983 181.492 C 155.979 182.094,154.869 182.730,154.516 182.904 C 154.164 183.079,153.530 183.445,153.107 183.719 C 151.734 184.607,151.070 184.984,150.352 185.281 C 149.965 185.441,149.648 185.676,149.648 185.803 C 149.648 185.931,149.491 186.035,149.300 186.035 C 149.109 186.035,148.446 186.421,147.827 186.894 C 147.207 187.367,146.441 187.836,146.124 187.936 C 145.807 188.037,145.548 188.227,145.548 188.358 C 145.548 188.490,145.404 188.598,145.227 188.599 C 144.927 188.601,140.920 191.057,140.241 191.655 C 140.071 191.805,139.838 191.928,139.723 191.928 C 139.608 191.928,138.929 192.303,138.214 192.761 C 136.302 193.986,136.174 194.066,133.292 195.824 C 131.837 196.711,130.375 197.611,130.045 197.822 C 129.517 198.159,124.736 201.092,123.561 201.799 C 123.322 201.943,122.607 202.404,121.973 202.824 C 120.977 203.484,120.507 203.607,118.514 203.735 L 116.208 203.882 118.341 203.927 L 120.475 203.972 123.169 202.370 C 124.651 201.489,126.132 200.596,126.461 200.384 C 126.789 200.173,128.287 199.250,129.789 198.334 C 131.290 197.418,132.827 196.473,133.204 196.233 C 133.580 195.993,134.141 195.647,134.450 195.464 C 135.483 194.852,139.179 192.574,139.869 192.124 C 140.244 191.880,140.782 191.565,141.063 191.424 C 141.345 191.283,142.844 190.364,144.395 189.382 C 145.945 188.400,149.058 186.508,151.313 185.178 C 156.632 182.041,157.035 181.806,158.119 181.212 C 160.183 180.081,164.217 177.277,165.535 176.056 C 166.545 175.121,168.164 174.134,171.247 172.574 C 176.427 169.952,177.118 169.521,178.603 167.977 C 179.745 166.790,181.957 165.569,185.394 164.227 C 187.066 163.575,188.615 162.696,189.315 162.003 C 193.781 157.582,199.416 156.324,204.100 158.702 C 205.493 159.410,209.453 161.214,211.019 161.854 C 211.864 162.200,212.787 162.585,213.069 162.710 C 215.524 163.800,224.492 166.326,225.730 166.277 C 226.525 166.246,225.613 165.957,223.062 165.431 C 222.217 165.257,221.200 164.978,220.803 164.812 C 220.407 164.646,219.830 164.506,219.522 164.501 C 219.214 164.496,218.674 164.327,218.322 164.126 C 217.969 163.924,217.386 163.755,217.025 163.750 C 216.665 163.745,216.146 163.572,215.872 163.365 C 215.599 163.158,215.144 162.981,214.862 162.972 C 214.580 162.963,213.889 162.732,213.325 162.460 C 212.761 162.188,212.098 161.961,211.851 161.956 C 211.605 161.951,211.403 161.845,211.403 161.719 C 211.403 161.593,211.086 161.414,210.698 161.321 C 210.061 161.169,205.622 159.131,203.932 158.216 C 203.558 158.013,203.081 157.848,202.873 157.848 C 202.664 157.848,202.163 157.675,201.759 157.465 C 200.768 156.948,197.528 156.996,196.023 157.550 M229.395 163.115 C 228.982 163.616,228.508 164.479,228.343 165.032 C 228.102 165.835,227.875 166.085,227.217 166.275 C 226.426 166.504,226.421 166.515,227.080 166.537 C 227.833 166.562,228.571 165.979,228.571 165.359 C 228.571 162.337,231.331 161.852,238.565 163.602 C 239.093 163.730,239.070 163.693,238.437 163.396 C 235.305 161.927,230.497 161.778,229.395 163.115 M241.583 164.785 C 244.247 165.933,248.739 167.136,255.349 168.473 C 256.477 168.701,258.060 169.056,258.869 169.261 C 259.677 169.467,260.599 169.629,260.919 169.623 C 261.773 169.605,259.711 168.922,257.878 168.616 C 254.072 167.980,252.976 167.756,252.077 167.426 C 251.545 167.232,250.763 167.072,250.339 167.072 C 249.914 167.072,249.153 166.899,248.647 166.688 C 248.141 166.477,247.482 166.304,247.182 166.304 C 246.322 166.304,242.724 165.048,240.832 164.087 C 240.458 163.897,239.939 163.745,239.679 163.751 C 239.418 163.756,240.276 164.221,241.583 164.785 M372.284 176.073 C 371.673 178.415,371.041 181.712,371.061 182.453 C 371.085 183.340,371.711 180.883,371.932 179.034 C 372.030 178.213,372.281 177.135,372.489 176.637 C 372.697 176.139,372.832 175.441,372.788 175.086 C 372.733 174.633,372.583 174.928,372.284 176.073 M370.596 185.778 C 370.161 189.425,370.218 190.837,370.692 188.213 C 370.896 187.085,371.030 185.471,370.990 184.625 C 370.920 183.164,370.900 183.220,370.596 185.778 M10.150 185.384 C 9.220 186.212,8.701 186.904,8.316 187.828 C 8.228 188.040,7.973 188.674,7.748 189.238 C 6.933 191.287,6.341 192.614,5.231 194.877 C 4.609 196.147,4.096 197.300,4.091 197.440 C 4.086 197.579,3.860 198.155,3.587 198.719 C 3.315 199.283,3.088 199.932,3.084 200.163 C 3.079 200.393,2.903 200.912,2.692 201.316 C 2.482 201.720,2.309 202.317,2.308 202.643 C 2.307 202.970,2.171 203.489,2.006 203.796 C 0.575 206.466,0.550 218.217,1.970 221.013 C 2.113 221.294,2.507 222.083,2.845 222.765 C 3.183 223.447,4.278 224.888,5.279 225.968 C 9.314 230.322,10.840 232.444,12.306 235.741 C 12.461 236.091,12.669 236.437,12.768 236.510 C 12.867 236.583,13.265 237.277,13.653 238.053 C 14.041 238.828,14.464 239.635,14.592 239.846 C 14.721 240.058,15.070 240.750,15.369 241.384 C 15.668 242.018,16.017 242.710,16.144 242.921 C 16.807 244.022,17.162 245.335,17.393 247.534 C 17.766 251.081,18.721 254.601,19.646 255.835 C 20.109 256.453,20.103 256.431,19.147 254.068 C 18.514 252.501,18.027 250.279,17.573 246.870 C 17.219 244.220,16.757 243.136,13.273 236.771 C 12.926 236.137,12.210 234.828,11.682 233.862 C 10.239 231.223,9.069 229.639,6.545 226.911 C 3.590 223.715,3.220 223.196,2.436 221.146 C -0.203 214.238,1.019 204.414,5.735 194.619 C 6.617 192.787,7.612 190.538,7.945 189.622 C 9.558 185.185,11.393 184.025,14.872 185.244 C 17.925 186.313,18.918 188.333,18.590 192.805 C 18.235 197.641,19.991 201.913,23.795 205.467 C 24.449 206.078,25.964 207.511,27.162 208.651 C 39.136 220.045,40.595 221.021,45.996 221.240 C 50.786 221.434,52.962 222.218,55.770 224.761 C 56.964 225.842,57.314 226.030,57.877 225.895 C 62.374 224.814,66.326 223.971,70.980 223.100 C 71.896 222.929,73.049 222.574,73.543 222.310 C 76.552 220.704,77.325 220.245,78.629 219.286 C 79.425 218.701,80.645 217.659,81.340 216.972 C 83.533 214.803,85.889 214.084,91.434 213.891 C 95.092 213.764,96.126 213.286,97.370 211.146 C 98.676 208.900,100.164 208.681,104.730 210.061 C 106.975 210.740,110.674 208.540,112.691 205.326 C 113.141 204.609,113.661 204.134,114.158 203.988 L 114.926 203.762 114.104 203.739 C 113.385 203.718,113.193 203.868,112.569 204.933 C 111.144 207.365,106.843 210.494,105.624 209.985 C 101.371 208.206,98.267 208.650,96.879 211.235 C 95.855 213.145,94.984 213.474,90.327 213.716 C 86.731 213.903,84.701 214.228,83.792 214.765 C 83.581 214.890,83.177 215.093,82.896 215.218 C 82.614 215.342,81.900 215.976,81.309 216.627 C 80.718 217.277,80.113 217.809,79.964 217.809 C 79.815 217.809,79.693 217.918,79.693 218.051 C 79.693 218.185,79.418 218.444,79.083 218.628 C 78.747 218.812,77.759 219.452,76.886 220.051 C 76.014 220.650,75.142 221.140,74.949 221.140 C 74.756 221.140,74.533 221.246,74.453 221.374 C 74.145 221.873,72.052 222.658,70.340 222.919 C 67.865 223.294,65.962 223.677,64.423 224.107 C 63.706 224.307,62.809 224.471,62.429 224.471 C 62.049 224.471,61.364 224.628,60.906 224.819 C 58.777 225.709,57.215 225.625,56.011 224.556 C 54.583 223.288,53.763 222.678,53.485 222.678 C 53.363 222.678,53.090 222.505,52.878 222.293 C 52.667 222.082,52.267 221.909,51.991 221.909 C 51.714 221.909,51.224 221.736,50.901 221.525 C 50.483 221.251,49.289 221.100,46.746 220.999 C 42.295 220.823,40.241 220.237,39.385 218.898 C 39.272 218.722,39.023 218.578,38.830 218.578 C 38.637 218.578,38.441 218.474,38.394 218.347 C 38.347 218.220,37.475 217.466,36.455 216.670 C 34.249 214.949,32.512 213.364,26.822 207.880 C 25.324 206.435,23.980 205.253,23.836 205.253 C 23.692 205.253,23.574 205.167,23.573 205.061 C 23.573 204.955,23.235 204.509,22.823 204.069 C 20.205 201.277,18.424 196.298,18.992 193.365 C 19.414 191.190,18.792 187.387,17.969 187.113 C 17.811 187.060,17.677 186.882,17.673 186.718 C 17.624 184.895,11.850 183.871,10.150 185.384 M370.068 193.649 C 370.035 195.596,370.139 196.877,370.390 197.621 C 370.594 198.225,370.875 199.180,371.014 199.744 C 371.154 200.307,371.504 201.634,371.792 202.691 C 372.279 204.474,372.881 206.948,373.351 209.097 L 373.548 209.994 373.578 208.969 C 373.595 208.405,373.446 207.425,373.246 206.791 C 372.890 205.659,372.542 204.346,372.059 202.306 C 371.736 200.941,371.068 198.646,370.717 197.694 C 370.561 197.271,370.362 195.541,370.275 193.850 L 370.116 190.775 370.068 193.649 M193.594 199.710 C 193.030 200.008,191.877 200.321,191.031 200.407 L 189.494 200.562 191.057 200.602 C 192.292 200.632,192.880 200.503,193.852 199.986 C 195.242 199.247,195.990 199.379,197.282 200.591 C 199.221 202.411,203.317 203.171,204.804 201.986 C 205.396 201.514,207.384 201.384,208.072 201.772 C 208.424 201.971,209.289 202.436,209.994 202.805 C 210.698 203.174,211.967 203.932,212.812 204.490 C 213.658 205.047,214.580 205.622,214.862 205.767 C 215.144 205.911,215.679 206.229,216.052 206.474 C 216.424 206.719,217.388 207.322,218.193 207.816 C 218.999 208.309,219.963 208.913,220.335 209.158 C 220.707 209.403,221.185 209.684,221.397 209.781 C 221.830 209.982,223.251 210.941,223.447 211.165 C 223.517 211.246,223.784 211.389,224.039 211.484 C 225.276 211.941,224.245 212.213,219.090 212.793 C 217.329 212.991,215.195 213.360,214.350 213.612 C 212.724 214.096,212.042 214.126,207.944 213.890 C 205.883 213.772,205.682 213.788,206.919 213.971 C 210.523 214.504,212.664 214.564,213.651 214.157 C 214.861 213.659,217.173 213.262,220.733 212.941 C 223.346 212.706,224.935 212.201,224.627 211.704 C 224.416 211.363,219.856 208.380,216.528 206.406 C 215.612 205.863,214.113 204.938,213.197 204.350 C 212.281 203.762,211.222 203.120,210.845 202.922 C 210.468 202.724,209.523 202.225,208.746 201.812 L 207.333 201.061 204.691 201.622 C 200.586 202.494,200.261 202.447,197.863 200.641 C 195.628 198.956,195.201 198.863,193.594 199.710 M187.444 201.076 C 187.021 201.305,186.100 202.054,185.397 202.742 C 184.142 203.969,181.376 205.509,180.427 205.509 C 179.345 205.509,163.997 213.444,163.997 214.003 C 163.997 214.595,163.958 214.596,167.585 213.847 C 171.519 213.034,172.423 212.943,176.632 212.942 C 180.927 212.940,184.250 213.381,187.188 214.341 C 189.433 215.075,191.274 215.094,192.750 214.399 C 194.760 213.452,197.531 213.107,200.489 213.437 C 201.830 213.587,203.479 213.693,204.154 213.673 L 205.381 213.637 203.972 213.415 C 199.095 212.646,194.069 212.968,192.677 214.138 C 192.130 214.598,188.612 214.586,187.517 214.120 C 186.617 213.738,184.875 213.339,182.191 212.902 C 180.017 212.548,173.076 212.558,170.788 212.919 C 168.669 213.253,165.655 213.854,164.801 214.113 C 164.245 214.282,164.220 214.252,164.490 213.747 C 164.652 213.444,164.997 213.197,165.256 213.197 C 165.516 213.197,165.872 213.024,166.047 212.812 C 166.223 212.601,166.576 212.428,166.832 212.428 C 167.089 212.428,167.370 212.313,167.456 212.172 C 167.634 211.884,170.181 210.634,170.589 210.634 C 170.734 210.634,170.997 210.461,171.172 210.250 C 171.348 210.038,171.694 209.865,171.941 209.865 C 172.188 209.865,172.534 209.693,172.710 209.481 C 172.885 209.270,173.237 209.097,173.492 209.097 C 173.746 209.097,174.108 208.953,174.296 208.776 C 174.484 208.600,175.559 208.012,176.685 207.469 C 177.810 206.927,179.038 206.321,179.412 206.124 C 179.786 205.927,180.341 205.766,180.645 205.766 C 181.712 205.766,184.005 204.475,185.429 203.074 C 186.219 202.296,187.140 201.591,187.475 201.507 C 187.810 201.423,188.085 201.259,188.085 201.142 C 188.085 201.026,188.402 200.883,188.789 200.824 C 189.457 200.723,189.461 200.716,188.853 200.689 C 188.501 200.674,187.867 200.848,187.444 201.076 M373.776 211.789 C 373.928 213.733,373.544 216.917,372.910 218.962 C 371.967 222.002,371.525 223.351,371.314 223.831 C 371.190 224.113,370.656 225.439,370.128 226.778 C 365.541 238.403,360.228 246.481,355.275 249.358 C 352.110 251.197,351.214 251.402,345.291 251.647 C 342.332 251.769,338.469 252.057,336.707 252.287 C 334.946 252.517,331.832 252.791,329.789 252.895 L 326.073 253.085 329.660 253.109 C 331.634 253.123,333.882 253.029,334.657 252.902 C 338.074 252.341,341.195 252.070,344.651 252.033 C 349.593 251.982,351.963 251.552,354.132 250.314 C 354.343 250.194,354.784 249.979,355.112 249.838 C 355.440 249.697,355.858 249.438,356.042 249.262 C 356.225 249.087,356.638 248.770,356.958 248.559 C 358.240 247.714,362.844 242.634,362.844 242.065 C 362.844 241.986,363.161 241.426,363.549 240.820 C 364.755 238.934,364.889 238.711,365.213 238.053 C 365.387 237.700,365.674 237.260,365.852 237.073 C 366.030 236.887,366.176 236.562,366.176 236.350 C 366.176 236.139,366.348 235.793,366.560 235.582 C 366.771 235.370,366.944 234.989,366.944 234.734 C 366.944 234.480,367.117 234.128,367.329 233.953 C 367.540 233.777,367.713 233.474,367.713 233.280 C 367.713 233.085,367.944 232.495,368.225 231.970 C 368.507 231.444,368.738 230.868,368.738 230.689 C 368.738 230.511,368.841 230.365,368.966 230.365 C 369.092 230.365,369.269 230.048,369.360 229.660 C 369.518 228.985,369.957 227.943,370.699 226.482 C 370.889 226.108,371.045 225.647,371.046 225.457 C 371.047 225.267,371.209 224.803,371.406 224.425 C 371.603 224.047,371.846 223.355,371.947 222.887 C 372.047 222.420,372.246 221.891,372.390 221.712 C 372.534 221.533,372.740 220.957,372.848 220.431 C 372.956 219.905,373.162 219.129,373.306 218.706 C 374.181 216.137,374.513 212.624,374.020 211.147 L 373.635 209.994 373.776 211.789 M283.529 249.143 C 282.687 249.691,277.904 251.065,274.439 251.755 C 273.242 251.993,271.742 252.305,271.108 252.446 C 269.860 252.725,267.280 253.159,262.652 253.871 C 259.415 254.369,252.232 254.466,241.640 254.155 C 237.651 254.038,236.506 254.058,237.924 254.221 C 242.155 254.705,259.892 254.801,261.694 254.349 C 262.592 254.124,263.760 253.940,264.292 253.940 C 264.824 253.940,265.969 253.772,266.838 253.568 C 267.707 253.363,269.167 253.073,270.083 252.923 C 271.720 252.656,273.700 252.266,277.002 251.563 C 277.918 251.367,278.920 251.073,279.227 250.908 C 279.535 250.743,280.054 250.608,280.380 250.607 C 280.707 250.606,281.304 250.433,281.708 250.223 C 282.111 250.012,282.637 249.840,282.876 249.840 C 283.115 249.840,283.534 249.671,283.808 249.464 C 284.783 248.726,285.589 248.981,287.210 250.545 C 290.717 253.927,291.427 254.081,298.014 252.891 C 298.789 252.750,300.231 252.524,301.217 252.388 C 302.204 252.252,303.275 252.004,303.598 251.838 C 304.387 251.431,308.278 251.421,309.058 251.823 C 309.396 251.998,310.480 252.250,311.467 252.384 C 312.454 252.517,313.780 252.744,314.414 252.888 C 315.048 253.031,316.951 253.134,318.642 253.117 L 321.717 253.085 318.642 252.904 C 315.520 252.720,310.797 252.060,309.741 251.660 C 308.716 251.273,306.124 251.102,304.805 251.335 C 302.539 251.736,300.235 252.183,298.527 252.553 C 292.855 253.783,290.643 253.380,287.605 250.564 C 285.610 248.713,284.686 248.391,283.529 249.143 M45.356 251.933 C 43.386 253.046,38.682 255.383,37.988 255.593 C 37.415 255.767,37.180 256.246,37.668 256.246 C 37.809 256.246,37.924 256.131,37.924 255.990 C 37.924 255.849,38.094 255.734,38.301 255.734 C 38.632 255.734,40.139 255.080,41.256 254.451 C 41.467 254.333,42.620 253.739,43.818 253.133 C 45.016 252.526,46.054 251.961,46.124 251.877 C 46.613 251.294,47.218 251.478,48.387 252.564 C 51.192 255.171,52.223 255.396,58.296 254.725 C 59.987 254.539,62.120 254.303,63.037 254.203 L 64.702 254.020 62.713 253.980 C 61.620 253.958,59.602 254.123,58.229 254.348 C 52.862 255.225,51.277 254.881,48.470 252.230 C 47.079 250.916,47.145 250.922,45.356 251.933 M167.425 251.352 C 165.694 251.495,164.828 251.698,164.093 252.134 C 162.498 253.079,161.173 253.505,159.257 253.687 L 157.463 253.857 159.218 253.898 C 160.996 253.940,161.345 253.840,164.206 252.466 C 166.238 251.490,171.064 251.216,179.416 251.601 C 182.986 251.766,188.962 252.014,192.697 252.153 C 196.432 252.292,200.756 252.528,202.306 252.678 C 203.857 252.828,207.950 252.987,211.403 253.031 C 216.833 253.101,217.127 253.087,213.581 252.927 C 207.073 252.632,197.748 252.161,190.391 251.755 C 182.042 251.295,170.565 251.093,167.425 251.352 M219.603 253.430 C 220.519 253.553,224.382 253.704,228.187 253.766 C 233.598 253.854,234.157 253.838,230.750 253.690 C 221.393 253.283,217.902 253.202,219.603 253.430 M323.069 253.359 C 323.672 253.413,324.594 253.412,325.119 253.357 C 325.644 253.302,325.151 253.258,324.023 253.259 C 322.896 253.260,322.466 253.305,323.069 253.359 M68.546 254.200 C 69.250 254.303,70.729 254.515,71.832 254.672 C 73.869 254.962,76.420 255.705,76.575 256.054 C 76.693 256.319,77.130 256.296,77.130 256.025 C 77.130 255.385,71.083 253.916,68.699 253.976 L 67.265 254.012 68.546 254.200 M149.007 254.125 C 148.302 254.175,145.247 254.316,142.217 254.440 C 137.029 254.650,137.179 254.657,144.779 254.547 C 149.218 254.482,153.831 254.339,155.029 254.228 C 157.407 254.008,151.981 253.915,149.007 254.125 M116.464 255.106 C 112.095 255.281,105.681 255.436,102.210 255.451 C 98.740 255.465,95.540 255.549,95.099 255.637 C 94.211 255.815,94.007 256.246,94.811 256.246 C 95.093 256.246,95.324 256.131,95.324 255.990 C 95.324 255.826,97.786 255.730,102.178 255.724 C 105.948 255.718,112.665 255.593,117.104 255.445 C 121.544 255.297,127.771 255.091,130.942 254.988 L 136.707 254.800 130.557 254.794 C 127.175 254.791,120.833 254.931,116.464 255.106 " stroke="none" fill="#aca5a6" fill-rule="evenodd"></path><path id="path4" d="M304.933 2.301 C 302.424 2.996,298.257 4.776,297.758 5.366 C 297.687 5.450,296.780 6.087,295.741 6.783 C 292.720 8.805,284.379 17.317,281.820 20.989 C 280.440 22.969,280.091 23.859,278.099 30.493 C 277.866 31.268,277.361 32.883,276.978 34.081 C 276.594 35.279,276.027 37.181,275.717 38.309 C 275.407 39.436,275.038 40.705,274.896 41.127 C 274.755 41.550,274.548 42.300,274.438 42.793 C 274.327 43.286,273.936 44.867,273.569 46.305 C 272.026 52.352,273.545 57.968,277.021 59.071 C 279.086 59.726,280.685 65.476,279.691 68.675 C 279.450 69.450,279.108 70.545,278.929 71.108 C 278.371 72.873,277.794 74.857,277.030 77.643 C 274.459 87.017,274.609 89.614,277.983 94.082 L 279.052 95.499 278.896 97.397 C 278.696 99.830,279.862 104.325,280.853 104.937 C 281.454 105.309,281.048 106.252,279.863 107.237 C 274.615 111.596,273.871 117.129,277.028 128.321 C 277.437 129.768,277.771 131.165,277.771 131.425 C 277.771 131.987,278.932 133.195,285.193 139.142 C 292.496 146.077,294.170 147.769,294.170 148.213 C 294.170 148.438,294.286 148.623,294.427 148.623 C 295.551 148.623,293.621 146.571,283.682 137.205 C 278.296 132.129,278.187 131.997,277.920 130.197 C 277.827 129.577,277.670 128.942,277.570 128.788 C 277.399 128.524,277.191 127.728,276.492 124.664 C 276.332 123.959,276.035 122.796,275.832 122.079 C 275.318 120.257,275.343 115.549,275.876 113.901 C 276.879 110.796,277.933 109.284,280.809 106.822 C 281.662 106.091,281.631 105.045,280.725 104.044 C 280.510 103.806,280.333 103.494,280.333 103.350 C 280.333 103.207,280.136 102.697,279.894 102.217 C 279.558 101.550,279.451 100.647,279.440 98.371 L 279.425 95.396 278.384 94.015 C 275.637 90.368,274.942 87.670,275.832 84.109 C 276.033 83.301,276.327 82.063,276.484 81.358 C 276.641 80.653,276.886 79.558,277.029 78.924 C 277.171 78.290,277.395 77.540,277.525 77.258 C 277.655 76.976,277.874 76.284,278.010 75.721 C 278.505 73.685,278.866 72.373,279.174 71.493 C 280.484 67.752,280.687 66.621,280.370 64.830 C 279.870 62.008,278.568 59.632,276.895 58.487 C 274.148 56.608,273.040 54.358,273.239 51.061 C 273.378 48.773,273.837 45.975,274.196 45.227 C 274.332 44.946,274.551 44.196,274.684 43.562 C 275.074 41.689,275.500 40.159,275.878 39.261 C 276.074 38.798,276.233 38.203,276.233 37.939 C 276.233 37.674,276.452 36.842,276.719 36.089 C 276.986 35.337,277.408 34.029,277.656 33.184 C 277.904 32.338,278.261 31.283,278.451 30.839 C 278.641 30.395,278.796 29.793,278.796 29.502 C 278.796 29.211,278.956 28.595,279.152 28.132 C 279.349 27.669,279.769 26.425,280.086 25.368 C 281.082 22.050,283.057 19.474,290.199 12.178 C 292.915 9.403,295.667 6.919,296.026 6.919 C 296.234 6.919,297.753 5.923,298.014 5.615 C 298.206 5.389,301.889 3.662,302.627 3.451 C 302.979 3.351,303.386 3.174,303.532 3.058 C 304.427 2.348,309.910 1.885,312.748 2.281 C 320.510 3.362,323.481 4.317,327.610 7.058 C 329.144 8.076,331.582 10.349,331.582 10.761 C 331.582 10.903,331.679 11.019,331.798 11.019 C 331.916 11.019,332.299 11.420,332.648 11.911 C 332.998 12.402,333.795 13.354,334.420 14.025 C 335.045 14.697,336.243 16.111,337.082 17.168 C 337.922 18.225,338.700 19.129,338.811 19.176 C 338.922 19.223,339.013 19.419,339.013 19.611 C 339.013 19.804,339.160 20.054,339.340 20.167 C 339.519 20.279,339.853 20.660,340.082 21.012 C 340.310 21.365,340.740 21.907,341.037 22.219 C 341.333 22.530,341.576 22.859,341.576 22.951 C 341.576 23.043,342.126 23.826,342.798 24.691 C 343.470 25.557,344.477 26.957,345.037 27.803 C 345.596 28.648,346.115 29.398,346.191 29.468 C 346.628 29.876,347.603 31.536,349.125 34.465 C 349.784 35.734,350.544 37.117,350.815 37.540 C 351.086 37.963,351.386 38.482,351.481 38.693 C 351.616 38.992,355.269 45.202,357.284 48.559 C 357.453 48.840,357.735 49.163,357.912 49.276 C 358.088 49.389,358.232 49.591,358.232 49.726 C 358.232 49.986,360.652 53.578,361.627 54.766 C 361.944 55.152,364.434 57.736,367.159 60.508 C 376.474 69.982,375.904 69.161,375.910 73.111 C 375.913 74.886,375.991 75.217,376.599 76.014 C 377.310 76.946,380.044 79.180,380.474 79.180 C 380.609 79.180,380.857 79.347,381.026 79.551 C 381.195 79.754,382.449 80.177,383.812 80.490 C 386.603 81.130,387.765 81.833,388.383 83.257 C 389.359 85.505,388.970 98.637,387.819 102.277 C 387.613 102.930,387.444 103.647,387.444 103.870 C 387.444 104.430,386.480 106.273,385.576 107.439 C 384.703 108.567,384.552 111.539,385.264 113.584 C 385.472 114.181,385.644 114.905,385.646 115.191 C 385.655 116.393,386.797 118.842,388.201 120.672 C 390.938 124.237,391.704 128.104,390.538 132.479 C 390.369 133.113,390.118 134.151,389.980 134.785 C 389.842 135.420,389.620 136.136,389.487 136.378 C 389.353 136.620,389.138 137.254,389.007 137.788 C 388.696 139.062,388.240 140.379,387.800 141.276 C 387.604 141.675,387.444 142.156,387.444 142.345 C 387.444 142.533,387.273 143.014,387.063 143.413 C 386.595 144.305,385.650 146.493,385.650 146.686 C 385.650 147.154,381.818 155.094,379.088 160.282 C 378.347 161.691,377.429 163.479,377.048 164.254 C 376.668 165.029,376.274 165.721,376.174 165.791 C 375.966 165.937,375.650 166.520,374.343 169.164 C 372.591 172.710,371.375 177.032,370.786 181.807 C 370.647 182.934,370.411 184.381,370.263 185.022 C 369.751 187.231,369.823 197.216,370.363 198.975 C 371.278 201.956,371.372 202.289,371.726 203.828 C 371.922 204.682,372.257 206.131,372.469 207.047 C 372.682 207.963,372.962 209.174,373.092 209.737 C 373.400 211.074,373.405 215.636,373.100 216.784 C 372.969 217.277,372.724 218.200,372.556 218.834 C 372.387 219.468,372.094 220.351,371.903 220.795 C 371.713 221.239,371.557 221.783,371.557 222.003 C 371.557 222.402,371.064 223.684,370.378 225.069 C 370.181 225.468,370.015 225.929,370.011 226.094 C 370.006 226.259,369.779 226.855,369.507 227.418 C 369.234 227.982,369.008 228.645,369.003 228.892 C 368.998 229.138,368.887 229.340,368.755 229.340 C 368.624 229.340,368.440 229.600,368.347 229.917 C 367.873 231.532,364.895 237.451,363.145 240.253 C 360.719 244.140,358.114 247.133,355.970 248.495 C 355.593 248.735,355.227 248.991,355.157 249.065 C 354.952 249.279,353.336 250.041,352.082 250.515 C 351.208 250.845,349.655 250.993,345.676 251.128 C 342.787 251.226,339.789 251.434,339.013 251.592 C 332.802 252.854,315.586 252.875,311.467 251.625 C 310.656 251.379,307.124 250.799,306.470 250.804 C 305.695 250.811,302.003 251.383,301.237 251.615 C 295.733 253.285,290.626 253.117,288.856 251.208 C 286.488 248.652,284.896 248.010,283.191 248.923 C 282.409 249.342,280.273 250.018,278.714 250.339 C 278.124 250.460,277.297 250.678,276.874 250.822 C 276.085 251.092,274.824 251.363,271.236 252.033 C 269.368 252.382,268.274 252.566,263.165 253.391 C 258.234 254.188,256.295 254.280,250.806 253.977 C 247.808 253.811,243.511 253.669,241.256 253.659 C 239.001 253.650,235.426 253.546,233.312 253.429 C 231.198 253.311,226.009 253.089,221.781 252.936 C 217.553 252.783,212.767 252.538,211.147 252.392 C 209.526 252.247,204.971 252.026,201.025 251.902 C 197.079 251.778,193.677 251.612,193.466 251.533 C 193.254 251.454,189.334 251.246,184.753 251.072 C 170.543 250.532,166.080 250.705,163.855 251.882 C 161.017 253.383,160.445 253.465,151.185 253.690 C 146.464 253.805,139.026 254.021,134.657 254.170 C 124.823 254.505,108.471 254.995,100.397 255.197 C 94.555 255.343,93.249 255.538,93.881 256.170 C 93.985 256.274,94.175 256.190,94.303 255.982 C 94.491 255.677,95.403 255.594,99.093 255.548 C 106.193 255.458,143.341 254.369,154.260 253.929 C 160.871 253.664,161.605 253.533,163.942 252.200 C 166.052 250.998,173.772 250.869,190.391 251.760 C 200.481 252.301,207.818 252.646,214.862 252.913 C 218.245 253.041,222.972 253.265,225.368 253.411 C 240.922 254.361,258.087 254.573,262.652 253.871 C 267.280 253.159,269.860 252.725,271.108 252.446 C 271.742 252.305,273.242 251.993,274.439 251.755 C 277.904 251.065,282.687 249.691,283.529 249.143 C 284.686 248.391,285.610 248.713,287.605 250.564 C 290.643 253.380,292.850 253.782,298.527 252.554 C 305.700 251.002,306.709 250.933,310.186 251.756 C 316.543 253.261,327.505 253.471,336.835 252.267 C 338.527 252.048,342.332 251.770,345.291 251.647 C 351.214 251.402,352.110 251.197,355.275 249.358 C 360.228 246.481,365.541 238.403,370.128 226.778 C 370.656 225.439,371.190 224.113,371.314 223.831 C 371.521 223.359,371.825 222.433,372.914 218.962 C 374.242 214.729,374.068 211.290,372.164 204.100 C 371.287 200.791,371.051 199.933,370.507 198.089 C 369.994 196.350,369.958 195.825,370.104 192.278 C 370.556 181.337,372.691 172.038,375.922 166.944 C 376.190 166.521,376.582 165.830,376.794 165.407 C 377.005 164.984,377.747 163.600,378.442 162.332 C 380.888 157.869,383.807 151.875,385.555 147.726 C 386.327 145.894,387.062 144.164,387.190 143.882 C 388.581 140.800,390.150 135.862,390.933 132.095 C 392.100 126.487,391.559 124.247,387.951 119.745 C 387.364 119.013,386.785 118.032,386.665 117.567 C 384.782 110.283,384.706 109.070,386.028 107.407 C 386.966 106.226,387.843 104.165,388.221 102.250 C 388.346 101.611,388.585 100.397,388.750 99.552 C 389.193 97.290,389.371 85.239,388.983 83.798 C 388.466 81.878,385.625 79.949,383.313 79.949 C 380.282 79.949,376.425 76.090,376.425 73.058 C 376.425 69.394,376.532 69.556,369.245 62.143 C 360.609 53.357,357.358 48.907,350.996 37.156 C 347.070 29.905,347.018 29.821,343.033 24.385 C 341.932 22.882,340.882 21.469,340.699 21.244 C 340.517 21.019,339.754 20.039,339.004 19.066 C 336.942 16.389,335.841 15.018,335.526 14.734 C 335.370 14.593,334.578 13.671,333.766 12.684 C 328.395 6.157,323.755 3.548,315.102 2.189 C 311.707 1.656,307.080 1.707,304.933 2.301 M276.553 51.675 C 275.965 51.913,276.509 56.125,277.191 56.608 C 277.604 56.900,279.308 59.121,279.308 59.367 C 279.308 59.919,280.584 60.838,280.905 60.518 C 281.610 59.812,280.678 55.605,279.815 55.605 C 279.677 55.605,279.564 55.438,279.564 55.234 C 279.564 55.029,279.420 54.770,279.244 54.657 C 278.841 54.400,278.402 53.698,277.872 52.466 C 277.473 51.539,277.239 51.399,276.553 51.675 M279.018 54.960 C 280.543 57.002,281.497 60.195,280.464 59.799 C 279.884 59.577,277.457 56.378,277.091 55.355 C 276.472 53.625,276.974 51.278,277.628 52.840 C 277.763 53.163,278.389 54.117,279.018 54.960 M229.853 129.608 C 229.853 129.787,232.600 135.326,233.374 136.707 C 236.383 142.078,237.205 143.117,240.371 145.546 C 241.435 146.362,242.640 147.475,243.048 148.018 C 243.457 148.562,243.857 149.065,243.939 149.135 C 244.253 149.408,245.330 151.164,246.176 152.783 C 246.377 153.168,247.477 154.321,248.619 155.345 C 252.043 158.413,262.652 169.221,262.652 169.640 C 262.652 169.971,261.486 169.849,258.937 169.251 C 258.091 169.053,256.477 168.704,255.349 168.475 C 248.833 167.152,244.283 165.943,241.586 164.818 C 233.810 161.577,228.571 161.795,228.571 165.359 C 228.571 166.247,227.815 166.598,226.297 166.414 C 223.695 166.098,215.590 163.829,213.069 162.710 C 212.787 162.585,211.864 162.200,211.019 161.854 C 209.453 161.214,205.493 159.410,204.100 158.702 C 199.416 156.324,193.781 157.582,189.315 162.003 C 188.615 162.696,187.066 163.575,185.394 164.227 C 181.957 165.569,179.745 166.790,178.603 167.977 C 177.118 169.521,176.427 169.952,171.247 172.574 C 168.164 174.134,166.545 175.121,165.535 176.056 C 164.217 177.277,160.183 180.081,158.119 181.212 C 157.035 181.806,156.632 182.041,151.313 185.178 C 149.058 186.508,145.945 188.400,144.395 189.382 C 142.844 190.364,141.345 191.283,141.063 191.424 C 140.782 191.565,140.244 191.880,139.869 192.124 C 139.494 192.369,138.244 193.145,137.092 193.850 C 135.939 194.555,134.689 195.328,134.314 195.567 C 133.939 195.807,133.378 196.153,133.068 196.336 C 132.190 196.853,127.129 199.955,126.461 200.384 C 126.132 200.596,124.624 201.505,123.110 202.405 L 120.356 204.041 117.684 203.905 C 114.250 203.730,113.577 203.922,112.691 205.329 C 110.668 208.544,106.974 210.740,104.730 210.061 C 100.164 208.681,98.676 208.900,97.370 211.146 C 96.126 213.286,95.092 213.764,91.434 213.891 C 85.889 214.084,83.533 214.803,81.340 216.972 C 80.645 217.659,79.425 218.701,78.629 219.286 C 77.325 220.245,76.552 220.704,73.543 222.310 C 73.049 222.574,71.896 222.929,70.980 223.100 C 66.208 223.993,62.489 224.786,57.877 225.895 C 57.314 226.030,56.964 225.842,55.770 224.761 C 52.962 222.218,50.786 221.434,45.996 221.240 C 41.837 221.071,41.487 220.954,38.565 218.735 C 35.518 216.421,32.823 214.038,27.162 208.651 C 25.964 207.511,24.449 206.078,23.795 205.467 C 19.991 201.913,18.235 197.641,18.590 192.805 C 18.918 188.333,17.925 186.313,14.872 185.244 C 11.393 184.025,9.558 185.185,7.945 189.622 C 7.612 190.538,6.617 192.787,5.735 194.619 C 1.019 204.414,-0.203 214.238,2.436 221.146 C 3.220 223.196,3.590 223.715,6.545 226.911 C 9.069 229.639,10.239 231.223,11.682 233.862 C 12.210 234.828,12.926 236.137,13.273 236.771 C 16.755 243.131,17.219 244.221,17.575 246.870 C 18.229 251.745,20.220 258.457,20.240 255.855 C 20.242 255.569,20.087 255.108,19.896 254.830 C 19.186 253.798,18.322 250.106,17.678 245.356 C 17.583 244.651,17.315 243.728,17.082 243.306 C 16.849 242.883,16.658 242.402,16.658 242.238 C 16.657 242.073,16.570 241.900,16.464 241.854 C 16.358 241.807,15.775 240.788,15.169 239.590 C 14.562 238.392,13.807 236.951,13.491 236.387 C 13.175 235.823,12.472 234.555,11.928 233.568 C 10.849 231.612,9.974 230.285,9.673 230.152 C 9.568 230.105,9.480 229.932,9.478 229.767 C 9.476 229.603,8.525 228.485,7.364 227.283 C 4.038 223.841,3.409 222.924,2.446 220.115 C 1.518 217.408,1.317 209.941,2.081 206.534 C 2.223 205.900,2.476 204.747,2.643 203.972 C 2.810 203.197,3.029 202.437,3.128 202.284 C 3.228 202.131,3.422 201.554,3.559 201.003 C 3.955 199.411,4.561 197.866,5.761 195.388 C 7.464 191.873,8.362 189.827,8.561 189.008 C 9.082 186.861,11.410 184.738,12.862 185.086 C 17.654 186.238,18.190 186.998,18.192 192.641 C 18.193 195.540,18.293 196.796,18.578 197.477 C 18.789 197.983,18.962 198.618,18.962 198.889 C 18.962 199.525,20.470 202.309,21.425 203.438 C 22.737 204.989,29.044 211.094,31.904 213.581 C 32.876 214.427,33.864 215.291,34.099 215.503 C 34.334 215.714,34.859 216.185,35.264 216.549 C 36.174 217.364,40.125 220.378,40.999 220.923 C 41.461 221.210,42.643 221.365,45.227 221.477 C 48.784 221.631,51.637 222.194,52.320 222.877 C 52.492 223.049,52.793 223.190,52.990 223.190 C 53.390 223.190,54.218 223.800,55.734 225.211 C 57.012 226.402,57.475 226.581,58.362 226.227 C 59.204 225.891,62.740 225.092,67.265 224.216 C 72.879 223.129,72.561 223.228,75.427 221.683 C 78.263 220.153,79.326 219.381,81.569 217.220 C 83.794 215.075,85.267 214.636,91.571 214.234 C 95.221 214.001,96.530 213.448,97.376 211.781 C 98.400 209.761,98.448 209.734,100.933 209.777 C 102.437 209.804,103.465 209.955,103.989 210.226 C 106.261 211.400,109.836 209.624,112.806 205.845 L 114.133 204.156 117.220 204.308 C 119.835 204.437,120.433 204.394,121.130 204.024 C 122.528 203.282,125.681 201.335,125.822 201.126 C 125.895 201.018,126.241 200.805,126.591 200.653 C 126.940 200.501,127.531 200.177,127.903 199.932 C 128.276 199.688,129.239 199.084,130.045 198.591 C 130.850 198.097,131.814 197.494,132.186 197.249 C 132.559 197.005,133.094 196.686,133.376 196.541 C 133.658 196.396,134.193 196.077,134.566 195.832 C 134.938 195.588,135.902 194.984,136.707 194.491 C 137.513 193.997,138.476 193.394,138.849 193.149 C 139.221 192.905,139.757 192.583,140.038 192.434 C 140.918 191.968,141.817 191.445,142.217 191.166 C 143.580 190.213,145.369 189.110,145.552 189.110 C 145.670 189.110,145.925 188.965,146.117 188.789 C 146.622 188.327,147.354 187.871,148.279 187.445 C 148.724 187.240,149.128 186.983,149.176 186.874 C 149.224 186.765,149.716 186.445,150.269 186.163 C 150.823 185.881,151.401 185.535,151.555 185.394 C 151.709 185.253,152.404 184.849,153.099 184.497 C 154.217 183.930,155.214 183.349,156.951 182.251 C 157.233 182.073,157.780 181.802,158.168 181.650 C 158.555 181.497,158.873 181.276,158.873 181.158 C 158.873 181.040,159.132 180.863,159.449 180.765 C 159.766 180.666,160.446 180.254,160.959 179.850 C 161.473 179.446,161.968 179.116,162.059 179.116 C 162.398 179.116,164.390 177.583,166.110 176.000 C 166.670 175.484,168.101 174.571,169.290 173.971 C 170.479 173.371,171.511 172.784,171.583 172.667 C 171.656 172.550,171.931 172.454,172.194 172.454 C 172.458 172.454,172.846 172.281,173.058 172.069 C 173.269 171.858,173.524 171.685,173.624 171.685 C 174.456 171.685,176.526 170.348,178.360 168.624 C 179.894 167.183,182.006 165.821,182.736 165.802 C 182.965 165.796,183.297 165.618,183.472 165.407 C 183.648 165.195,183.956 165.022,184.158 165.022 C 184.975 165.022,188.349 163.349,189.324 162.460 C 193.981 158.213,199.488 156.750,203.372 158.728 C 205.637 159.882,210.852 162.254,212.428 162.847 C 213.062 163.085,213.944 163.434,214.388 163.622 C 214.832 163.811,215.611 164.043,216.121 164.138 C 216.630 164.234,217.103 164.404,217.173 164.517 C 217.242 164.629,217.789 164.803,218.387 164.902 C 218.985 165.002,219.786 165.242,220.167 165.437 C 220.547 165.632,221.108 165.791,221.413 165.791 C 221.719 165.791,222.503 165.958,223.156 166.162 C 226.508 167.210,228.828 167.050,228.828 165.772 C 228.828 164.840,229.909 163.297,230.740 163.043 C 232.161 162.609,238.387 163.657,240.293 164.651 C 240.682 164.854,241.201 165.020,241.448 165.021 C 241.694 165.022,241.896 165.122,241.896 165.244 C 241.896 165.454,243.779 166.122,246.637 166.927 C 248.310 167.398,251.564 168.105,256.198 169.005 C 257.229 169.205,258.189 169.441,258.332 169.529 C 258.475 169.617,259.303 169.793,260.173 169.919 C 261.043 170.046,262.143 170.221,262.616 170.310 C 264.047 170.576,263.432 169.585,260.120 166.285 C 258.482 164.655,255.895 161.986,254.369 160.355 C 252.844 158.724,251.201 157.109,250.718 156.766 C 249.100 155.614,246.672 153.115,246.238 152.153 C 245.858 151.312,244.511 149.153,244.195 148.879 C 244.114 148.808,243.716 148.309,243.310 147.770 C 242.905 147.230,241.758 146.175,240.762 145.424 C 237.074 142.646,235.579 140.508,231.399 132.031 C 230.211 129.621,229.853 129.059,229.853 129.608 M194.619 198.799 C 194.337 198.855,193.933 199.046,193.722 199.225 C 193.275 199.603,191.428 200.031,189.238 200.263 C 187.495 200.447,186.917 200.757,185.215 202.415 C 184.553 203.060,183.573 203.799,183.037 204.058 C 182.501 204.317,181.736 204.692,181.337 204.891 C 180.938 205.090,180.442 205.253,180.234 205.253 C 179.691 205.253,176.450 206.720,174.119 208.021 C 173.837 208.178,172.972 208.610,172.197 208.981 C 171.422 209.352,170.327 209.881,169.763 210.157 C 168.801 210.629,168.515 210.778,167.393 211.392 C 167.146 211.527,166.224 211.989,165.343 212.417 C 162.177 213.957,163.311 215.285,167.012 214.371 C 171.998 213.140,179.027 212.763,182.174 213.556 C 182.958 213.754,184.177 214.034,184.881 214.177 C 185.586 214.321,186.912 214.630,187.828 214.864 C 190.857 215.636,191.031 215.631,192.896 214.718 L 194.619 213.876 199.231 213.909 C 201.768 213.927,204.651 214.075,205.637 214.238 C 208.882 214.774,213.332 214.848,214.005 214.376 C 214.328 214.150,215.017 213.965,215.537 213.965 C 216.057 213.965,217.387 213.792,218.491 213.581 C 219.596 213.370,221.134 213.185,221.909 213.171 C 226.198 213.093,226.014 211.792,221.310 208.949 C 220.628 208.537,219.802 208.027,219.475 207.816 C 218.820 207.392,215.033 205.064,214.142 204.536 C 213.834 204.353,213.235 203.980,212.812 203.706 C 212.389 203.432,211.755 203.066,211.403 202.892 C 211.051 202.719,210.040 202.141,209.156 201.609 C 207.610 200.677,206.462 200.392,206.168 200.867 C 206.091 200.991,205.364 201.173,204.552 201.271 C 203.740 201.369,202.584 201.569,201.985 201.716 C 200.604 202.055,199.764 201.736,197.727 200.102 C 196.213 198.887,195.563 198.614,194.619 198.799 M197.863 200.641 C 200.261 202.447,200.586 202.494,204.691 201.622 L 207.333 201.061 208.746 201.812 C 209.523 202.225,210.468 202.724,210.845 202.922 C 211.222 203.120,212.281 203.762,213.197 204.350 C 214.113 204.938,215.612 205.863,216.528 206.406 C 219.856 208.380,224.416 211.363,224.627 211.704 C 224.935 212.201,223.346 212.706,220.733 212.941 C 217.189 213.261,214.862 213.659,213.667 214.150 C 212.671 214.559,211.264 214.531,206.534 214.006 C 197.807 213.037,195.509 213.102,192.750 214.400 C 191.274 215.094,189.431 215.075,187.188 214.341 C 184.250 213.381,180.927 212.940,176.632 212.942 C 172.423 212.943,171.519 213.034,167.585 213.847 C 163.958 214.596,163.997 214.595,163.997 214.003 C 163.997 213.444,179.345 205.509,180.427 205.509 C 181.377 205.509,184.143 203.969,185.397 202.741 C 187.124 201.050,187.994 200.651,190.355 200.469 C 191.667 200.368,192.752 200.117,193.490 199.744 C 195.227 198.865,195.611 198.944,197.863 200.641 M45.484 251.515 C 44.638 251.991,43.716 252.488,43.434 252.619 C 40.785 253.855,39.003 254.740,38.844 254.900 C 38.738 255.006,38.237 255.209,37.732 255.352 C 36.789 255.617,36.279 256.246,37.006 256.246 C 37.229 256.246,37.412 256.138,37.412 256.007 C 37.412 255.876,37.671 255.688,37.988 255.591 C 38.736 255.361,42.382 253.566,44.886 252.196 C 47.279 250.886,47.045 250.884,48.470 252.230 C 51.277 254.881,52.862 255.225,58.229 254.348 C 64.603 253.306,77.130 254.417,77.130 256.025 C 77.130 256.146,77.245 256.246,77.386 256.246 C 78.832 256.246,76.315 254.959,73.286 254.149 C 70.768 253.476,60.203 253.412,57.271 254.052 C 53.273 254.925,51.328 254.449,48.698 251.954 C 47.918 251.214,47.221 250.618,47.150 250.629 C 47.079 250.641,46.329 251.039,45.484 251.515 " stroke="none" fill="#8c8c8c" fill-rule="evenodd"></path></g></svg>