<svg id="svg" version="1.1" xmlns="http://www.w3.org/2000/svg" xmlns:xlink="http://www.w3.org/1999/xlink" width="80" height="57" viewBox="0, 0, 400,240.8"><g id="svgg"><path id="path0" d="M147.068 0.323 C 146.895 0.775,140.700 1.681,137.732 1.689 C 137.013 1.691,135.990 1.849,135.461 2.040 C 134.931 2.231,133.925 2.392,133.225 2.398 C 132.526 2.403,131.564 2.571,131.089 2.769 C 130.613 2.968,129.855 3.131,129.405 3.131 C 128.954 3.131,127.969 3.347,127.215 3.612 C 126.461 3.877,125.624 4.097,125.355 4.102 C 125.085 4.106,124.654 4.268,124.397 4.463 C 124.140 4.657,123.723 4.816,123.471 4.816 C 123.219 4.816,122.725 4.966,122.373 5.150 C 122.022 5.333,121.138 5.766,120.409 6.113 C 118.563 6.990,116.865 7.939,115.592 8.804 C 107.036 14.620,102.845 19.113,100.415 25.074 C 99.858 26.440,99.441 27.427,98.873 28.718 C 97.478 31.891,97.480 31.881,97.462 34.196 C 97.448 35.927,97.549 36.703,97.875 37.383 C 98.335 38.344,98.313 39.063,97.750 41.495 C 97.408 42.972,97.578 43.387,98.495 43.319 C 99.688 43.230,99.940 43.350,99.944 44.010 C 99.948 44.715,100.730 47.930,101.005 48.375 C 101.257 48.782,104.081 45.587,104.971 43.889 C 105.356 43.154,105.916 43.207,106.230 44.010 C 106.372 44.374,106.633 44.997,106.809 45.394 C 106.985 45.792,107.286 46.496,107.477 46.960 C 107.669 47.423,108.097 48.453,108.429 49.247 C 109.411 51.594,110.230 54.160,110.560 55.925 C 110.691 56.623,110.895 57.682,111.014 58.278 C 111.132 58.874,111.236 60.514,111.244 61.923 C 111.258 64.512,111.179 64.928,109.912 68.879 C 109.242 70.969,109.209 71.282,109.661 71.282 C 109.843 71.282,110.628 71.944,111.407 72.754 C 112.186 73.563,112.986 74.393,113.185 74.599 C 113.384 74.805,113.768 75.272,114.039 75.637 C 114.310 76.001,115.300 77.149,116.239 78.186 C 118.238 80.395,119.403 81.825,121.921 85.168 C 125.521 89.944,128.464 90.744,133.775 88.391 C 134.413 88.109,137.084 87.285,138.591 86.906 C 140.553 86.413,142.615 86.368,143.640 86.796 C 144.141 87.005,144.757 87.176,145.010 87.176 C 147.988 87.176,153.036 93.364,151.603 95.258 C 151.409 95.515,151.246 95.968,151.242 96.263 C 151.238 96.559,150.923 97.443,150.544 98.227 C 150.164 99.011,149.778 99.961,149.686 100.338 C 149.594 100.715,149.275 101.403,148.976 101.866 C 147.977 103.415,146.848 106.079,146.422 107.887 C 146.313 108.350,146.109 109.055,145.969 109.452 C 145.828 109.849,145.479 110.987,145.192 111.981 C 144.906 112.974,144.582 114.004,144.473 114.269 C 144.363 114.533,144.117 115.346,143.924 116.075 C 143.732 116.803,143.395 117.995,143.175 118.724 C 142.955 119.452,142.628 120.590,142.448 121.252 C 141.615 124.316,140.585 127.789,140.411 128.123 C 140.305 128.327,140.143 128.868,140.053 129.328 C 139.962 129.787,139.786 130.379,139.662 130.644 C 139.538 130.909,139.280 131.830,139.089 132.691 C 138.483 135.423,138.227 136.411,137.999 136.905 C 137.877 137.170,137.653 137.929,137.503 138.591 C 137.208 139.893,136.768 141.738,136.299 143.648 C 136.136 144.311,135.895 145.123,135.763 145.455 C 135.630 145.786,135.382 146.598,135.210 147.261 C 133.360 154.407,132.088 156.051,128.404 156.051 C 126.679 156.051,126.359 155.970,124.726 155.118 C 120.345 152.833,118.760 151.982,117.569 151.272 C 116.868 150.854,116.213 150.512,116.113 150.512 C 116.013 150.512,115.720 150.346,115.461 150.144 C 115.203 149.941,113.961 149.115,112.703 148.307 C 110.260 146.740,106.442 143.230,106.442 142.551 C 106.442 142.326,106.272 142.001,106.065 141.829 C 105.362 141.245,105.796 136.922,106.716 135.340 C 106.832 135.141,106.987 134.816,107.060 134.618 C 107.134 134.419,107.645 133.390,108.195 132.330 C 108.746 131.270,109.525 129.753,109.926 128.958 C 110.328 128.164,110.731 127.457,110.823 127.388 C 110.914 127.319,111.240 126.723,111.546 126.063 C 111.853 125.404,112.293 124.597,112.524 124.269 C 113.282 123.195,113.072 122.662,111.213 120.934 C 110.261 120.050,108.284 118.156,106.818 116.726 C 105.353 115.295,102.963 113.020,101.508 111.668 C 100.052 110.317,97.560 107.970,95.969 106.452 C 94.378 104.934,92.643 103.293,92.113 102.805 C 91.583 102.317,90.542 101.337,89.799 100.628 C 84.406 95.478,79.331 90.657,77.915 89.339 C 76.993 88.480,75.530 87.088,74.664 86.244 C 70.591 82.276,70.110 82.268,66.320 86.093 C 63.369 89.071,62.904 89.303,61.446 88.518 C 60.596 88.060,55.926 86.213,55.618 86.213 C 55.485 86.213,55.268 86.511,55.137 86.875 C 55.005 87.240,54.798 87.754,54.677 88.019 C 54.557 88.284,54.409 88.826,54.349 89.223 C 54.288 89.621,54.121 90.271,53.977 90.668 C 53.517 91.938,52.266 96.650,52.091 97.772 C 52.019 98.236,51.856 98.745,51.729 98.903 C 51.529 99.153,51.321 99.968,50.362 104.275 C 50.259 104.738,50.047 105.354,49.892 105.643 C 49.736 105.933,49.609 106.561,49.609 107.040 C 49.609 107.519,49.438 108.241,49.230 108.644 C 47.610 111.776,49.478 115.138,55.617 120.139 C 56.206 120.619,57.127 121.450,57.663 121.987 C 58.200 122.523,59.181 123.386,59.843 123.905 C 60.506 124.423,61.645 125.393,62.374 126.060 C 63.104 126.727,64.780 128.140,66.100 129.199 C 67.419 130.259,69.043 131.620,69.710 132.225 C 70.376 132.829,71.453 133.750,72.102 134.271 C 74.825 136.455,74.665 137.742,70.972 143.344 C 68.818 146.611,67.617 148.460,67.073 149.347 C 65.721 151.552,65.077 152.589,64.724 153.126 C 64.494 153.476,64.208 153.980,64.088 154.244 C 63.968 154.509,63.389 155.539,62.800 156.532 C 61.290 159.082,58.604 164.711,57.458 167.730 C 57.106 168.657,56.659 169.723,56.464 170.098 C 56.270 170.473,56.111 170.890,56.111 171.025 C 56.111 171.159,55.955 171.611,55.765 172.029 C 55.575 172.446,55.312 173.167,55.182 173.630 C 55.052 174.094,54.713 175.069,54.430 175.798 C 53.689 177.707,52.258 181.816,52.040 182.663 C 51.937 183.061,51.737 183.603,51.594 183.867 C 51.452 184.131,51.102 185.105,50.818 186.033 C 50.534 186.960,50.203 187.935,50.082 188.200 C 49.836 188.740,49.396 189.989,48.515 192.655 C 48.186 193.648,47.760 194.786,47.568 195.184 C 47.376 195.581,46.828 196.936,46.351 198.194 C 43.011 206.999,36.468 216.641,31.547 220.009 C 31.084 220.326,29.946 221.122,29.019 221.777 C 27.196 223.064,22.856 225.338,21.604 225.661 C 20.885 225.847,20.109 226.088,17.339 226.984 C 16.743 227.177,15.950 227.335,15.577 227.334 C 15.204 227.333,14.675 227.453,14.402 227.599 C 13.854 227.892,6.164 228.577,5.647 228.379 C 4.607 227.979,1.802 228.795,0.903 229.758 L 0.000 230.725 0.000 234.181 C 0.000 237.030,0.063 237.661,0.361 237.775 C 0.560 237.851,0.722 238.114,0.722 238.358 C 0.722 238.602,1.035 239.102,1.417 239.468 L 2.112 240.134 30.240 240.107 C 57.428 240.081,58.393 240.064,59.106 239.622 C 60.563 238.719,61.483 237.530,61.670 236.308 C 62.586 230.340,62.677 229.135,62.404 226.610 C 61.846 221.453,62.406 215.449,63.721 212.486 C 63.906 212.069,64.058 211.586,64.058 211.414 C 64.058 208.815,69.696 201.267,75.749 195.763 C 76.774 194.831,78.769 192.423,79.448 191.300 C 80.500 189.559,82.369 185.837,83.181 183.865 C 83.672 182.673,84.223 181.373,84.404 180.975 C 84.586 180.578,84.807 179.999,84.895 179.690 C 84.983 179.380,85.266 178.648,85.525 178.064 L 85.994 177.003 86.550 177.544 C 88.676 179.618,89.573 183.113,88.520 185.224 C 88.311 185.643,88.140 186.129,88.140 186.303 C 88.140 186.643,86.358 192.215,85.993 193.016 C 85.792 193.458,85.512 194.389,84.414 198.254 C 83.561 201.260,85.043 203.640,88.983 205.592 C 91.917 207.046,93.836 208.079,95.075 208.871 C 95.644 209.235,96.349 209.637,96.640 209.763 C 97.212 210.011,97.525 210.202,99.205 211.333 C 99.808 211.739,100.464 212.147,100.662 212.239 C 101.078 212.433,101.930 212.974,103.239 213.876 C 103.742 214.223,104.804 214.924,105.599 215.433 C 106.394 215.942,107.098 216.418,107.164 216.490 C 107.231 216.562,108.043 217.131,108.970 217.755 C 111.436 219.415,112.550 220.191,112.950 220.527 C 113.512 220.999,118.305 224.520,118.995 224.968 C 119.339 225.191,119.770 225.516,119.954 225.691 C 120.138 225.866,120.722 226.330,121.252 226.724 C 121.782 227.117,122.324 227.524,122.456 227.628 C 122.589 227.732,123.564 228.463,124.624 229.251 C 125.683 230.040,126.659 230.776,126.791 230.886 C 126.924 230.997,127.411 231.353,127.875 231.678 C 128.338 232.004,128.772 232.334,128.838 232.413 C 129.107 232.734,132.869 235.195,133.654 235.563 C 136.565 236.930,137.568 237.272,140.928 238.041 C 143.209 238.563,150.039 238.552,152.318 238.023 C 154.555 237.504,156.965 236.788,157.857 236.379 C 158.254 236.196,159.025 235.864,159.570 235.642 C 161.937 234.673,166.378 231.368,168.306 229.139 C 172.074 224.783,174.973 220.990,176.645 218.227 C 176.781 218.003,177.212 217.333,177.604 216.737 C 178.529 215.330,178.820 214.845,179.268 213.967 C 179.471 213.570,180.012 212.595,180.471 211.800 C 181.782 209.530,186.394 200.161,186.394 199.768 C 186.394 199.660,186.626 199.072,186.910 198.461 C 187.193 197.851,187.589 196.972,187.789 196.508 C 187.989 196.045,188.286 195.394,188.449 195.063 C 188.613 194.732,188.821 194.110,188.913 193.681 C 189.005 193.252,189.180 192.840,189.302 192.764 C 189.424 192.688,189.528 192.443,189.533 192.219 C 189.537 191.995,189.750 191.379,190.006 190.849 C 190.262 190.319,190.475 189.718,190.479 189.512 C 190.484 189.307,190.604 189.022,190.747 188.880 C 190.890 188.737,191.097 188.255,191.208 187.808 C 191.459 186.793,191.894 185.529,192.315 184.588 C 192.703 183.723,193.332 181.975,193.615 180.975 C 193.728 180.578,194.157 179.278,194.569 178.085 C 195.744 174.685,196.029 173.775,196.028 173.426 C 196.027 173.247,196.174 172.760,196.354 172.342 C 196.534 171.925,196.904 170.825,197.177 169.898 C 197.449 168.970,197.844 167.650,198.053 166.963 C 198.263 166.275,198.435 165.483,198.435 165.201 C 198.435 164.919,198.557 164.459,198.707 164.179 C 198.857 163.899,199.131 163.066,199.316 162.328 C 199.933 159.870,200.645 156.665,200.819 155.569 C 200.914 154.973,201.120 154.249,201.278 153.959 C 201.436 153.670,201.565 153.073,201.565 152.633 C 201.565 152.193,201.676 151.454,201.811 150.992 C 201.946 150.529,202.215 148.740,202.409 147.016 C 202.602 145.293,202.871 143.300,203.006 142.589 C 203.384 140.594,203.317 130.036,202.913 127.875 C 202.727 126.881,202.497 125.157,202.403 124.043 C 202.308 122.929,202.081 121.659,201.898 121.221 C 201.715 120.783,201.565 120.105,201.565 119.714 C 201.565 119.323,201.414 118.697,201.229 118.322 C 200.902 117.659,200.686 116.963,199.641 113.185 C 199.367 112.191,198.983 111.072,198.788 110.697 C 198.594 110.322,198.435 109.828,198.435 109.599 C 198.435 109.370,198.276 108.973,198.081 108.716 C 197.887 108.458,197.724 108.028,197.720 107.760 C 197.716 107.491,197.564 107.058,197.383 106.797 C 197.203 106.535,196.974 106.051,196.874 105.719 C 196.655 104.986,194.251 100.100,193.617 99.097 C 193.120 98.312,192.953 98.035,191.702 95.925 C 191.244 95.153,190.678 94.314,190.443 94.060 C 190.208 93.806,189.717 93.156,189.351 92.615 C 188.332 91.108,186.359 89.025,181.807 84.648 C 179.522 82.451,177.986 80.423,176.844 78.099 L 175.921 76.219 175.945 73.184 C 175.963 70.963,176.068 69.962,176.338 69.452 C 177.229 67.763,177.734 64.186,178.219 56.111 C 178.358 53.793,178.626 51.355,178.813 50.692 C 179.938 46.713,180.419 38.759,179.753 35.160 C 179.544 34.034,179.312 32.625,179.237 32.029 C 179.162 31.433,178.954 30.731,178.774 30.470 C 178.594 30.209,178.447 29.775,178.448 29.507 C 178.449 29.238,178.290 28.531,178.096 27.935 C 177.902 27.339,177.471 25.961,177.139 24.874 C 176.807 23.786,176.431 22.702,176.304 22.465 C 176.176 22.229,175.821 21.385,175.513 20.590 C 175.206 19.795,174.717 18.712,174.427 18.182 C 174.137 17.652,173.608 16.623,173.251 15.894 C 172.894 15.166,172.525 14.515,172.431 14.449 C 172.337 14.383,172.108 14.035,171.922 13.676 C 171.233 12.347,169.159 9.534,167.811 8.100 C 167.046 7.287,166.417 6.549,166.413 6.459 C 166.409 6.368,165.590 5.583,164.592 4.713 L 162.778 3.131 160.768 3.131 C 159.276 3.131,158.681 3.038,158.459 2.769 C 158.294 2.571,158.037 2.406,157.887 2.404 C 157.566 2.399,156.051 0.628,156.051 0.257 C 156.051 -0.158,147.227 -0.093,147.068 0.323 M227.694 7.998 C 226.899 8.410,225.870 8.829,225.406 8.928 C 224.943 9.027,223.805 9.268,222.878 9.464 C 220.901 9.881,219.985 10.315,218.182 11.684 C 217.453 12.237,216.725 12.733,216.564 12.787 C 215.268 13.216,208.790 20.897,208.790 22.005 C 208.790 22.169,208.631 22.514,208.436 22.772 C 208.242 23.029,208.079 23.475,208.075 23.764 C 208.071 24.052,207.922 24.434,207.744 24.612 C 207.566 24.790,207.283 25.854,207.116 26.977 C 206.948 28.100,206.715 29.602,206.599 30.316 C 206.355 31.803,207.132 37.661,207.725 38.808 C 207.913 39.172,208.067 39.725,208.067 40.036 C 208.067 40.347,208.169 40.705,208.294 40.831 C 208.523 41.063,209.136 43.579,209.551 45.996 C 209.676 46.725,209.889 47.646,210.025 48.043 C 210.686 49.979,210.695 61.037,210.037 62.306 C 209.640 63.071,209.551 65.235,209.904 65.528 C 210.100 65.690,210.948 65.761,212.067 65.709 C 213.526 65.641,213.944 65.698,214.083 65.984 C 214.179 66.183,214.423 66.725,214.624 67.188 C 217.031 72.740,219.747 76.085,222.547 76.945 C 222.861 77.042,223.231 77.210,223.369 77.320 C 223.763 77.633,227.763 77.820,229.601 77.612 C 231.954 77.345,231.942 77.097,229.482 75.135 C 227.264 73.368,225.024 71.037,224.466 69.917 C 224.148 69.277,223.734 68.453,223.546 68.085 C 223.197 67.403,223.309 66.119,223.739 65.852 C 223.861 65.777,223.961 65.411,223.961 65.039 C 223.961 63.568,225.145 62.758,226.157 63.537 C 226.472 63.781,227.489 64.393,228.417 64.897 C 229.344 65.402,230.438 66.070,230.848 66.381 C 232.447 67.597,232.253 66.246,230.123 61.349 C 229.936 60.918,229.509 59.699,229.173 58.639 C 228.838 57.580,228.458 56.388,228.330 55.990 C 227.190 52.459,227.211 52.663,227.237 45.730 C 227.251 42.073,227.339 38.956,227.434 38.803 C 227.603 38.530,229.695 39.826,230.903 40.951 C 231.884 41.865,232.062 41.560,232.241 38.651 C 232.564 33.435,233.586 31.306,235.769 31.306 C 236.923 31.306,236.948 31.470,237.026 39.511 C 237.097 46.868,237.305 49.500,238.044 52.378 C 238.371 53.655,238.766 55.477,239.130 57.397 C 239.252 58.039,239.456 58.689,239.582 58.842 C 239.709 58.996,239.888 59.554,239.979 60.084 C 240.071 60.614,240.303 61.527,240.494 62.112 C 242.001 66.732,240.531 74.727,237.709 77.259 C 237.366 77.567,236.814 78.059,236.481 78.354 C 235.869 78.897,234.794 79.443,232.390 80.433 C 229.908 81.456,223.239 87.085,223.239 88.157 C 223.239 88.246,222.670 89.022,221.975 89.882 C 221.279 90.741,220.548 91.689,220.349 91.989 C 220.151 92.288,219.877 92.656,219.742 92.805 C 219.606 92.954,219.075 93.727,218.561 94.521 C 218.047 95.316,217.145 96.700,216.558 97.596 C 215.579 99.090,214.970 100.139,213.826 102.299 C 213.595 102.735,213.310 103.223,213.193 103.382 C 213.076 103.542,212.516 104.702,211.949 105.960 C 211.382 107.219,210.820 108.432,210.702 108.658 C 210.383 109.263,208.861 113.210,208.677 113.907 C 208.590 114.238,208.427 114.726,208.316 114.991 C 207.969 115.815,207.147 118.760,206.738 120.650 C 206.522 121.644,206.240 122.890,206.110 123.420 C 205.980 123.949,205.778 125.304,205.662 126.430 C 205.545 127.556,205.334 128.855,205.193 129.318 C 204.788 130.646,204.874 141.874,205.303 143.648 C 205.495 144.443,205.653 145.699,205.655 146.440 C 205.658 147.180,205.821 148.318,206.018 148.968 C 206.215 149.619,206.377 150.476,206.377 150.873 C 206.378 151.926,207.340 156.760,207.732 157.684 C 207.916 158.119,208.067 158.790,208.067 159.175 C 208.067 159.560,208.166 159.936,208.287 160.011 C 208.408 160.086,208.579 160.607,208.666 161.169 C 208.753 161.731,209.033 162.815,209.289 163.577 C 209.544 164.339,209.753 165.227,209.753 165.550 C 209.753 165.872,209.847 166.195,209.962 166.266 C 210.077 166.337,210.412 167.183,210.706 168.146 C 211.429 170.510,212.193 172.659,212.570 173.390 C 212.741 173.721,212.882 174.118,212.882 174.273 C 212.883 174.428,213.036 174.861,213.222 175.236 C 213.408 175.611,213.798 176.568,214.088 177.363 C 214.377 178.158,214.770 179.159,214.960 179.587 C 215.150 180.016,215.454 180.720,215.636 181.152 C 215.818 181.585,216.357 182.779,216.834 183.806 C 217.310 184.832,217.700 185.725,217.700 185.789 C 217.700 185.951,220.791 192.451,221.079 192.896 C 221.208 193.095,221.424 193.515,221.560 193.830 C 221.873 194.559,223.060 196.891,224.762 200.120 C 225.495 201.511,226.432 203.299,226.843 204.094 C 227.255 204.889,228.179 206.623,228.897 207.947 C 229.615 209.272,230.451 210.843,230.754 211.439 C 231.057 212.035,231.820 213.425,232.450 214.528 C 233.079 215.631,233.594 216.612,233.594 216.707 C 233.594 216.802,233.759 217.091,233.961 217.350 C 234.162 217.609,234.896 218.688,235.591 219.747 C 237.268 222.303,240.301 226.334,241.300 227.333 C 241.367 227.399,241.898 228.035,242.482 228.745 C 246.810 234.015,252.487 237.432,258.519 238.399 C 259.181 238.505,260.048 238.708,260.446 238.849 C 264.286 240.211,280.481 240.661,291.150 239.702 C 293.335 239.505,296.153 239.254,297.411 239.143 C 298.669 239.032,300.078 238.822,300.540 238.676 C 301.003 238.530,302.142 238.411,303.070 238.411 C 303.999 238.411,305.138 238.299,305.601 238.163 C 306.063 238.027,307.797 237.814,309.452 237.691 C 312.496 237.464,317.156 236.732,318.483 236.273 C 318.880 236.136,320.018 235.782,321.011 235.488 C 322.005 235.193,322.980 234.867,323.179 234.763 C 323.377 234.659,324.082 234.350,324.744 234.076 C 325.406 233.802,326.111 233.472,326.309 233.344 C 326.508 233.215,326.833 233.046,327.032 232.968 C 327.748 232.689,333.205 229.941,334.618 229.148 C 335.412 228.703,337.038 227.838,338.230 227.227 C 342.011 225.290,341.631 226.902,341.094 215.058 C 340.953 211.958,340.997 211.658,342.058 208.429 C 342.821 206.106,343.212 206.085,345.482 208.244 C 347.282 209.955,348.070 210.929,348.946 212.523 C 350.888 216.053,351.612 218.090,352.111 221.430 C 352.230 222.223,352.433 223.252,352.562 223.718 C 352.691 224.183,352.797 225.998,352.798 227.752 C 352.800 232.639,353.641 233.988,357.189 234.798 C 359.021 235.217,391.369 234.989,394.341 234.536 C 396.920 234.144,399.278 232.550,399.278 231.200 C 399.278 230.919,399.440 230.627,399.639 230.551 C 399.917 230.444,399.999 229.988,399.996 228.571 L 399.993 226.731 396.926 225.931 C 395.239 225.491,393.334 225.036,392.693 224.919 C 392.052 224.802,391.401 224.607,391.248 224.485 C 391.095 224.364,390.568 224.193,390.077 224.104 C 389.149 223.937,387.590 223.273,386.464 222.565 C 386.105 222.340,384.550 221.397,383.009 220.470 C 381.467 219.542,379.957 218.621,379.653 218.423 C 378.947 217.961,376.501 216.457,375.893 216.110 C 375.637 215.964,375.105 215.558,374.712 215.207 C 374.318 214.857,373.908 214.570,373.802 214.570 C 373.695 214.570,373.396 214.409,373.137 214.213 C 366.298 209.024,363.341 205.838,361.178 201.325 C 360.098 199.070,359.357 197.377,359.176 196.749 C 359.080 196.418,358.896 196.015,358.767 195.853 C 358.637 195.691,358.443 195.203,358.336 194.769 C 358.116 193.884,357.703 192.653,357.263 191.571 C 356.716 190.230,356.364 189.169,356.058 187.943 C 355.890 187.271,355.630 186.493,355.480 186.213 C 355.330 185.932,355.208 184.847,355.208 183.801 C 355.208 181.129,355.671 180.681,360.867 178.328 C 361.927 177.849,362.956 177.354,363.155 177.228 C 363.353 177.103,363.766 176.893,364.071 176.761 C 364.377 176.630,365.217 175.964,365.938 175.282 C 368.233 173.111,367.901 171.813,364.076 167.992 C 361.187 165.107,359.295 162.747,358.130 160.577 C 357.724 159.821,357.287 159.008,357.158 158.771 C 356.943 158.374,356.679 157.789,355.591 155.292 C 355.380 154.808,355.208 154.252,355.208 154.057 C 355.208 153.861,355.045 153.566,354.846 153.402 C 354.648 153.237,354.485 152.934,354.485 152.728 C 354.485 152.094,351.485 146.237,350.884 145.695 C 350.810 145.629,350.429 145.145,350.037 144.620 C 348.846 143.025,344.254 138.829,342.203 137.462 C 341.872 137.242,341.208 136.691,340.727 136.239 C 340.246 135.787,339.189 134.896,338.379 134.259 C 337.568 133.623,336.905 132.974,336.905 132.817 C 336.905 132.546,339.456 130.161,340.233 129.706 C 340.585 129.499,341.340 128.868,342.638 127.694 C 342.967 127.396,343.303 127.152,343.383 127.152 C 343.463 127.152,343.928 126.800,344.416 126.369 C 344.905 125.939,345.567 125.394,345.887 125.157 C 346.893 124.416,351.928 120.429,352.559 119.874 C 352.890 119.583,354.136 118.587,355.328 117.662 C 356.520 116.736,357.604 115.852,357.736 115.696 C 357.869 115.540,358.154 115.317,358.370 115.202 C 358.586 115.086,359.309 114.503,359.976 113.907 C 360.642 113.311,361.399 112.661,361.658 112.462 C 363.496 111.048,363.609 108.878,362.151 102.950 C 362.021 102.420,361.809 101.396,361.681 100.674 C 361.552 99.951,361.358 99.247,361.249 99.108 C 361.139 98.970,360.980 98.423,360.894 97.893 C 360.684 96.598,360.066 93.834,359.655 92.354 C 359.472 91.692,359.270 90.825,359.207 90.427 C 358.407 85.379,355.563 83.550,351.532 85.491 L 350.030 86.214 349.377 85.431 C 344.524 79.608,343.501 79.467,338.946 83.991 C 337.709 85.219,335.146 87.422,333.249 88.886 C 331.353 90.351,329.476 91.811,329.079 92.131 C 328.682 92.451,327.979 92.988,327.517 93.323 C 327.056 93.659,326.189 94.392,325.591 94.953 C 324.993 95.514,323.745 96.596,322.818 97.358 C 321.890 98.120,320.211 99.556,319.085 100.549 C 317.959 101.541,316.400 102.867,315.620 103.495 C 314.840 104.122,313.698 105.127,313.083 105.728 C 312.467 106.329,311.533 107.137,311.008 107.523 C 310.484 107.910,309.289 108.935,308.355 109.802 C 307.420 110.669,305.261 112.571,303.558 114.028 C 297.920 118.848,298.194 118.414,299.759 120.056 C 300.388 120.716,301.391 121.844,301.987 122.563 C 302.583 123.282,303.326 124.148,303.639 124.488 C 303.952 124.827,304.656 125.638,305.204 126.290 C 305.753 126.942,306.364 127.653,306.562 127.872 C 308.778 130.308,309.071 133.293,307.312 135.517 C 304.051 139.643,302.271 141.017,296.448 143.902 C 294.395 144.919,292.553 145.848,292.354 145.966 C 292.155 146.084,291.830 146.246,291.632 146.326 C 290.942 146.605,287.656 148.153,287.297 148.369 C 287.098 148.489,286.665 148.702,286.334 148.843 C 286.002 148.985,284.771 149.581,283.597 150.169 C 280.785 151.576,279.046 151.988,277.773 151.547 C 276.687 151.171,275.260 150.253,275.258 149.929 C 275.257 149.807,275.104 149.536,274.919 149.327 C 274.518 148.874,273.306 146.724,272.612 145.233 C 272.339 144.647,271.801 143.656,271.415 143.029 C 271.030 142.403,270.474 141.311,270.179 140.602 C 269.885 139.893,269.345 138.663,268.978 137.869 C 268.108 135.980,267.309 133.678,267.309 133.057 C 267.309 132.786,267.092 132.159,266.827 131.665 C 266.562 131.171,266.346 130.447,266.346 130.057 C 266.346 129.667,266.247 129.287,266.126 129.212 C 266.005 129.137,265.836 128.616,265.750 128.054 C 265.576 126.912,265.110 125.104,264.432 122.938 C 264.183 122.143,263.917 121.060,263.841 120.530 C 263.765 120.000,263.480 118.645,263.207 117.520 C 262.935 116.394,262.602 114.877,262.469 114.148 C 262.336 113.420,262.124 112.721,261.998 112.595 C 261.873 112.469,261.770 112.066,261.770 111.700 C 261.770 111.334,261.610 110.562,261.414 109.985 C 261.218 109.409,260.954 108.205,260.828 107.312 C 260.701 106.418,260.497 105.558,260.374 105.402 C 260.251 105.245,260.082 104.586,259.997 103.938 C 259.912 103.289,259.749 102.639,259.635 102.493 C 259.521 102.347,259.354 101.746,259.264 101.158 C 258.973 99.251,257.547 95.184,256.455 93.140 C 255.943 92.183,256.678 90.441,257.404 90.890 C 257.536 90.971,258.112 91.138,258.683 91.259 C 261.421 91.842,264.155 92.617,266.948 93.603 C 267.875 93.930,269.063 94.303,269.587 94.432 C 270.112 94.561,270.654 94.759,270.791 94.872 C 272.675 96.411,278.436 95.414,281.602 93.001 C 282.986 91.946,283.305 91.749,286.320 90.083 C 287.800 89.266,290.668 86.463,290.668 85.834 C 290.668 85.136,291.419 84.768,292.847 84.768 C 295.885 84.768,296.596 83.779,296.742 79.349 C 296.959 72.802,298.566 69.181,302.719 65.879 C 303.845 64.984,304.660 64.823,305.690 65.292 C 306.696 65.750,307.409 65.370,308.528 63.779 C 310.187 61.422,310.869 60.825,312.462 60.333 C 316.054 59.225,317.032 57.195,317.634 49.609 C 317.786 47.688,317.969 45.792,318.040 45.394 C 318.683 41.819,318.414 39.940,317.182 39.384 C 315.448 38.603,310.415 33.024,310.415 31.884 C 310.415 31.752,310.300 31.528,310.159 31.387 C 310.018 31.247,309.429 30.126,308.850 28.898 C 308.271 27.670,307.682 26.550,307.541 26.409 C 307.400 26.268,307.285 25.917,307.285 25.629 C 307.285 25.340,307.122 24.969,306.924 24.804 C 306.725 24.639,306.562 24.403,306.562 24.278 C 306.562 22.543,299.049 14.449,297.438 14.449 C 297.323 14.449,297.098 14.291,296.938 14.098 C 296.463 13.526,290.582 10.364,289.983 10.358 C 289.805 10.357,289.371 10.208,289.020 10.027 C 287.563 9.280,284.774 8.457,282.360 8.061 C 281.300 7.887,279.946 7.630,279.350 7.490 C 276.461 6.813,264.363 7.475,262.724 8.401 C 262.520 8.516,261.870 8.690,261.279 8.788 C 260.688 8.886,259.991 9.079,259.729 9.217 C 259.467 9.355,258.925 9.551,258.525 9.654 C 256.465 10.182,252.367 12.106,248.290 14.459 C 244.185 16.828,242.294 16.671,238.369 13.638 C 235.847 11.689,234.264 10.435,233.750 9.979 C 233.504 9.761,232.852 9.278,232.301 8.906 C 231.750 8.534,231.094 8.003,230.844 7.727 C 230.223 7.041,229.401 7.112,227.694 7.998 " stroke="none" fill="#040404" fill-rule="evenodd"></path><path id="path1" d="M0.000 115.232 C 0.000 178.609,0.070 230.464,0.155 230.464 C 0.240 230.464,0.647 230.085,1.058 229.622 C 1.805 228.782,4.673 228.005,5.647 228.379 C 6.164 228.577,13.854 227.892,14.402 227.599 C 14.675 227.453,15.204 227.333,15.577 227.334 C 15.950 227.335,16.743 227.177,17.339 226.984 C 20.109 226.088,20.885 225.847,21.604 225.661 C 22.856 225.338,27.196 223.064,29.019 221.777 C 29.946 221.122,31.084 220.326,31.547 220.009 C 36.468 216.641,43.011 206.999,46.351 198.194 C 46.828 196.936,47.376 195.581,47.568 195.184 C 47.760 194.786,48.186 193.648,48.515 192.655 C 49.396 189.989,49.836 188.740,50.082 188.200 C 50.203 187.935,50.534 186.960,50.818 186.033 C 51.102 185.105,51.452 184.131,51.594 183.867 C 51.737 183.603,51.937 183.061,52.040 182.663 C 52.258 181.816,53.689 177.707,54.430 175.798 C 54.713 175.069,55.052 174.094,55.182 173.630 C 55.312 173.167,55.575 172.446,55.765 172.029 C 55.955 171.611,56.111 171.159,56.111 171.025 C 56.111 170.890,56.270 170.473,56.464 170.098 C 56.659 169.723,57.106 168.657,57.458 167.730 C 58.604 164.711,61.290 159.082,62.800 156.532 C 63.389 155.539,63.968 154.509,64.088 154.244 C 64.208 153.980,64.494 153.476,64.724 153.126 C 65.077 152.589,65.721 151.552,67.073 149.347 C 67.617 148.460,68.818 146.611,70.972 143.344 C 74.665 137.742,74.825 136.455,72.102 134.271 C 71.453 133.750,70.376 132.829,69.710 132.225 C 69.043 131.620,67.419 130.259,66.100 129.199 C 64.780 128.140,63.104 126.727,62.374 126.060 C 61.645 125.393,60.506 124.423,59.843 123.905 C 59.181 123.386,58.200 122.523,57.663 121.987 C 57.127 121.450,56.206 120.619,55.617 120.139 C 49.478 115.138,47.610 111.776,49.230 108.644 C 49.438 108.241,49.609 107.519,49.609 107.040 C 49.609 106.561,49.736 105.933,49.892 105.643 C 50.047 105.354,50.259 104.738,50.362 104.275 C 51.321 99.968,51.529 99.153,51.729 98.903 C 51.856 98.745,52.019 98.236,52.091 97.772 C 52.266 96.650,53.517 91.938,53.977 90.668 C 54.121 90.271,54.288 89.621,54.349 89.223 C 54.409 88.826,54.557 88.284,54.677 88.019 C 54.798 87.754,55.005 87.240,55.137 86.875 C 55.268 86.511,55.485 86.213,55.618 86.213 C 55.926 86.213,60.596 88.060,61.446 88.518 C 62.904 89.303,63.369 89.071,66.320 86.093 C 70.110 82.268,70.591 82.276,74.664 86.244 C 75.530 87.088,76.993 88.480,77.915 89.339 C 79.331 90.657,84.406 95.478,89.799 100.628 C 90.542 101.337,91.583 102.317,92.113 102.805 C 92.643 103.293,94.378 104.934,95.969 106.452 C 97.560 107.970,100.052 110.317,101.508 111.668 C 102.963 113.020,105.353 115.295,106.818 116.726 C 108.284 118.156,110.261 120.050,111.213 120.934 C 113.072 122.662,113.282 123.195,112.524 124.269 C 112.293 124.597,111.853 125.404,111.546 126.063 C 111.240 126.723,110.914 127.319,110.823 127.388 C 110.731 127.457,110.328 128.164,109.926 128.958 C 108.787 131.213,107.115 134.460,106.886 134.859 C 106.773 135.057,106.643 135.328,106.597 135.461 C 106.552 135.593,106.370 136.081,106.192 136.544 C 105.685 137.871,105.598 141.442,106.065 141.829 C 106.272 142.001,106.442 142.326,106.442 142.551 C 106.442 143.230,110.260 146.740,112.703 148.307 C 113.961 149.115,115.203 149.941,115.461 150.144 C 115.720 150.346,116.013 150.512,116.113 150.512 C 116.213 150.512,116.868 150.854,117.569 151.272 C 118.760 151.982,120.345 152.833,124.726 155.118 C 126.359 155.970,126.679 156.051,128.404 156.051 C 132.088 156.051,133.360 154.407,135.210 147.261 C 135.382 146.598,135.630 145.786,135.763 145.455 C 135.895 145.123,136.136 144.311,136.299 143.648 C 136.768 141.738,137.208 139.893,137.503 138.591 C 137.653 137.929,137.877 137.170,137.999 136.905 C 138.227 136.411,138.483 135.423,139.089 132.691 C 139.280 131.830,139.538 130.909,139.662 130.644 C 139.786 130.379,139.962 129.787,140.053 129.328 C 140.143 128.868,140.305 128.327,140.411 128.123 C 140.585 127.789,141.615 124.316,142.448 121.252 C 142.628 120.590,142.955 119.452,143.175 118.724 C 143.395 117.995,143.732 116.803,143.924 116.075 C 144.117 115.346,144.363 114.533,144.473 114.269 C 144.582 114.004,144.906 112.974,145.192 111.981 C 145.479 110.987,145.828 109.849,145.969 109.452 C 146.109 109.055,146.313 108.350,146.422 107.887 C 146.848 106.079,147.977 103.415,148.976 101.866 C 149.275 101.403,149.594 100.715,149.686 100.338 C 149.778 99.961,150.164 99.011,150.544 98.227 C 150.923 97.443,151.238 96.559,151.242 96.263 C 151.246 95.968,151.409 95.515,151.603 95.258 C 153.036 93.364,147.988 87.176,145.010 87.176 C 144.757 87.176,144.141 87.005,143.640 86.796 C 142.615 86.368,140.553 86.413,138.591 86.906 C 137.084 87.285,134.413 88.109,133.775 88.391 C 128.464 90.744,125.521 89.944,121.921 85.168 C 119.403 81.825,118.238 80.395,116.239 78.186 C 115.300 77.149,114.310 76.001,114.039 75.637 C 113.768 75.272,113.384 74.805,113.185 74.599 C 112.986 74.393,112.186 73.563,111.407 72.754 C 110.628 71.944,109.843 71.282,109.661 71.282 C 109.209 71.282,109.242 70.969,109.912 68.879 C 111.179 64.928,111.258 64.512,111.244 61.923 C 111.236 60.514,111.132 58.874,111.014 58.278 C 110.895 57.682,110.691 56.623,110.560 55.925 C 110.230 54.160,109.411 51.594,108.429 49.247 C 108.097 48.453,107.669 47.423,107.477 46.960 C 107.286 46.496,106.985 45.792,106.809 45.394 C 106.633 44.997,106.372 44.374,106.230 44.010 C 105.916 43.207,105.356 43.154,104.971 43.889 C 104.081 45.587,101.257 48.782,101.005 48.375 C 100.730 47.930,99.948 44.715,99.944 44.010 C 99.940 43.350,99.688 43.230,98.495 43.319 C 97.578 43.387,97.408 42.972,97.750 41.495 C 98.313 39.063,98.335 38.344,97.875 37.383 C 97.549 36.703,97.448 35.927,97.462 34.196 C 97.480 31.881,97.478 31.891,98.873 28.718 C 99.441 27.427,99.858 26.440,100.415 25.074 C 102.845 19.113,107.036 14.620,115.592 8.804 C 116.865 7.939,118.563 6.990,120.409 6.113 C 121.138 5.766,122.022 5.333,122.373 5.150 C 122.725 4.966,123.219 4.816,123.471 4.816 C 123.723 4.816,124.140 4.657,124.397 4.463 C 124.654 4.268,125.085 4.106,125.355 4.102 C 125.624 4.097,126.461 3.877,127.215 3.612 C 127.969 3.347,128.954 3.131,129.405 3.131 C 129.855 3.131,130.613 2.968,131.089 2.769 C 131.564 2.571,132.526 2.403,133.225 2.398 C 133.925 2.392,134.931 2.231,135.461 2.040 C 135.990 1.849,136.961 1.691,137.617 1.689 C 139.155 1.685,143.721 1.207,145.557 0.858 C 150.017 0.012,149.016 -0.000,73.590 -0.000 L 0.000 0.000 0.000 115.232 M156.051 0.257 C 156.051 0.628,157.566 2.399,157.887 2.404 C 158.037 2.406,158.294 2.571,158.459 2.769 C 158.681 3.038,159.276 3.131,160.768 3.131 L 162.778 3.131 164.592 4.713 C 165.590 5.583,166.409 6.368,166.413 6.459 C 166.417 6.549,167.046 7.287,167.811 8.100 C 169.159 9.534,171.233 12.347,171.922 13.676 C 172.108 14.035,172.337 14.383,172.431 14.449 C 172.525 14.515,172.894 15.166,173.251 15.894 C 173.608 16.623,174.137 17.652,174.427 18.182 C 174.717 18.712,175.206 19.795,175.513 20.590 C 175.821 21.385,176.176 22.229,176.304 22.465 C 176.431 22.702,176.807 23.786,177.139 24.874 C 177.471 25.961,177.902 27.339,178.096 27.935 C 178.290 28.531,178.449 29.238,178.448 29.507 C 178.447 29.775,178.594 30.209,178.774 30.470 C 178.954 30.731,179.162 31.433,179.237 32.029 C 179.312 32.625,179.544 34.034,179.753 35.160 C 180.419 38.759,179.938 46.713,178.813 50.692 C 178.626 51.355,178.358 53.793,178.219 56.111 C 177.734 64.186,177.229 67.763,176.338 69.452 C 176.068 69.962,175.963 70.963,175.945 73.184 L 175.921 76.219 176.844 78.099 C 177.986 80.423,179.522 82.451,181.807 84.648 C 186.359 89.025,188.332 91.108,189.351 92.615 C 189.717 93.156,190.208 93.806,190.443 94.060 C 190.678 94.314,191.244 95.156,191.702 95.932 C 192.160 96.708,192.719 97.629,192.944 97.979 C 193.722 99.186,193.984 99.670,195.337 102.389 C 196.083 103.890,196.775 105.388,196.874 105.719 C 196.974 106.051,197.203 106.535,197.383 106.797 C 197.564 107.058,197.716 107.491,197.720 107.760 C 197.724 108.028,197.887 108.458,198.081 108.716 C 198.276 108.973,198.435 109.370,198.435 109.599 C 198.435 109.828,198.594 110.322,198.788 110.697 C 198.983 111.072,199.367 112.191,199.641 113.185 C 200.686 116.963,200.902 117.659,201.229 118.322 C 201.414 118.697,201.565 119.323,201.565 119.714 C 201.565 120.105,201.715 120.783,201.898 121.221 C 202.081 121.659,202.308 122.929,202.403 124.043 C 202.497 125.157,202.727 126.881,202.913 127.875 C 203.317 130.036,203.384 140.594,203.006 142.589 C 202.871 143.300,202.602 145.293,202.409 147.016 C 202.215 148.740,201.946 150.529,201.811 150.992 C 201.676 151.454,201.565 152.193,201.565 152.633 C 201.565 153.073,201.436 153.670,201.278 153.959 C 201.120 154.249,200.914 154.973,200.819 155.569 C 200.645 156.665,199.933 159.870,199.316 162.328 C 199.131 163.066,198.857 163.899,198.707 164.179 C 198.557 164.459,198.435 164.919,198.435 165.201 C 198.435 165.483,198.263 166.275,198.053 166.963 C 197.844 167.650,197.449 168.970,197.177 169.898 C 196.904 170.825,196.534 171.925,196.354 172.342 C 196.174 172.760,196.027 173.247,196.028 173.426 C 196.029 173.775,195.744 174.685,194.569 178.085 C 194.157 179.278,193.728 180.578,193.615 180.975 C 193.332 181.975,192.703 183.723,192.315 184.588 C 191.894 185.529,191.459 186.793,191.208 187.808 C 191.097 188.255,190.890 188.737,190.747 188.880 C 190.604 189.022,190.484 189.307,190.479 189.512 C 190.475 189.718,190.262 190.319,190.006 190.849 C 189.750 191.379,189.537 191.995,189.533 192.219 C 189.528 192.443,189.424 192.688,189.302 192.764 C 189.180 192.840,189.005 193.252,188.913 193.681 C 188.821 194.110,188.613 194.732,188.449 195.063 C 188.286 195.394,187.989 196.045,187.789 196.508 C 187.589 196.972,187.193 197.851,186.910 198.461 C 186.626 199.072,186.394 199.660,186.394 199.768 C 186.394 200.161,181.782 209.530,180.471 211.800 C 180.012 212.595,179.471 213.570,179.268 213.967 C 178.820 214.845,178.529 215.330,177.604 216.737 C 177.212 217.333,176.781 218.003,176.645 218.227 C 174.973 220.990,172.074 224.783,168.306 229.139 C 166.378 231.368,161.937 234.673,159.570 235.642 C 159.025 235.864,158.254 236.196,157.857 236.379 C 156.965 236.788,154.555 237.504,152.318 238.023 C 150.039 238.552,143.209 238.563,140.928 238.041 C 137.568 237.272,136.565 236.930,133.654 235.563 C 132.869 235.195,129.107 232.734,128.838 232.413 C 128.772 232.334,128.338 232.004,127.875 231.678 C 127.411 231.353,126.924 230.997,126.791 230.886 C 126.659 230.776,125.683 230.040,124.624 229.251 C 123.564 228.463,122.589 227.732,122.456 227.628 C 122.324 227.524,121.782 227.117,121.252 226.724 C 120.722 226.330,120.138 225.866,119.954 225.691 C 119.770 225.516,119.339 225.191,118.995 224.968 C 118.305 224.520,113.512 220.999,112.950 220.527 C 112.550 220.191,111.436 219.415,108.970 217.755 C 108.043 217.131,107.231 216.562,107.164 216.490 C 107.098 216.418,106.394 215.942,105.599 215.433 C 104.804 214.924,103.742 214.223,103.239 213.876 C 101.930 212.974,101.078 212.433,100.662 212.239 C 100.464 212.147,99.808 211.739,99.205 211.333 C 97.525 210.202,97.212 210.011,96.640 209.763 C 96.349 209.637,95.644 209.235,95.075 208.871 C 93.836 208.079,91.917 207.046,88.983 205.592 C 85.043 203.640,83.561 201.260,84.414 198.254 C 85.512 194.389,85.792 193.458,85.993 193.016 C 86.358 192.215,88.140 186.643,88.140 186.303 C 88.140 186.129,88.311 185.643,88.520 185.224 C 89.573 183.113,88.676 179.618,86.550 177.544 L 85.994 177.003 85.525 178.064 C 85.266 178.648,84.983 179.380,84.895 179.690 C 84.807 179.999,84.586 180.578,84.404 180.975 C 84.223 181.373,83.672 182.673,83.181 183.865 C 82.369 185.837,80.500 189.559,79.448 191.300 C 78.769 192.423,76.774 194.831,75.749 195.763 C 69.696 201.267,64.058 208.815,64.058 211.414 C 64.058 211.586,63.906 212.069,63.721 212.486 C 62.406 215.449,61.846 221.453,62.404 226.610 C 62.677 229.135,62.586 230.340,61.670 236.308 C 61.483 237.530,60.563 238.719,59.106 239.622 C 58.393 240.064,57.428 240.081,30.240 240.107 L 2.112 240.134 1.430 239.480 C 1.054 239.120,0.715 238.605,0.675 238.336 C 0.485 237.054,0.000 237.699,0.000 239.233 L 0.000 240.819 200.000 240.819 L 400.000 240.819 400.000 235.621 C 400.000 231.570,399.934 230.446,399.699 230.524 C 399.533 230.579,399.344 230.886,399.278 231.206 C 398.951 232.786,396.944 234.140,394.341 234.536 C 391.369 234.989,359.021 235.217,357.189 234.798 C 353.641 233.988,352.800 232.639,352.798 227.752 C 352.797 225.998,352.691 224.183,352.562 223.718 C 352.433 223.252,352.230 222.223,352.111 221.430 C 351.612 218.090,350.888 216.053,348.946 212.523 C 348.070 210.929,347.282 209.955,345.482 208.244 C 343.212 206.085,342.821 206.106,342.058 208.429 C 340.997 211.658,340.953 211.958,341.094 215.058 C 341.631 226.902,342.011 225.290,338.230 227.227 C 337.038 227.838,335.412 228.703,334.618 229.148 C 333.823 229.594,331.818 230.626,330.163 231.441 C 328.507 232.256,326.990 233.021,326.791 233.140 C 326.411 233.368,326.344 233.398,324.624 234.120 C 324.028 234.370,323.377 234.659,323.179 234.763 C 322.980 234.867,322.005 235.193,321.011 235.488 C 320.018 235.782,318.880 236.136,318.483 236.273 C 317.156 236.732,312.496 237.464,309.452 237.691 C 307.797 237.814,306.063 238.027,305.601 238.163 C 305.138 238.299,303.999 238.411,303.070 238.411 C 302.142 238.411,301.003 238.530,300.540 238.676 C 300.078 238.822,298.669 239.032,297.411 239.143 C 296.153 239.254,293.335 239.505,291.150 239.702 C 280.481 240.661,264.286 240.211,260.446 238.849 C 260.048 238.708,259.181 238.505,258.519 238.399 C 252.487 237.432,246.810 234.015,242.482 228.745 C 241.898 228.035,241.367 227.399,241.300 227.333 C 240.301 226.334,237.268 222.303,235.591 219.747 C 234.896 218.688,234.162 217.609,233.961 217.350 C 233.759 217.091,233.594 216.802,233.594 216.707 C 233.594 216.612,233.079 215.631,232.450 214.528 C 231.820 213.425,231.057 212.035,230.754 211.439 C 230.451 210.843,229.615 209.272,228.897 207.947 C 228.179 206.623,227.255 204.889,226.843 204.094 C 226.432 203.299,225.495 201.511,224.762 200.120 C 223.060 196.891,221.873 194.559,221.560 193.830 C 221.424 193.515,221.208 193.095,221.079 192.896 C 220.791 192.451,217.700 185.951,217.700 185.789 C 217.700 185.725,217.310 184.832,216.834 183.806 C 216.357 182.779,215.818 181.585,215.636 181.152 C 215.454 180.720,215.150 180.016,214.960 179.587 C 214.770 179.159,214.377 178.158,214.088 177.363 C 213.798 176.568,213.408 175.611,213.222 175.236 C 213.036 174.861,212.883 174.428,212.882 174.273 C 212.882 174.118,212.741 173.721,212.570 173.390 C 212.193 172.659,211.429 170.510,210.706 168.146 C 210.412 167.183,210.077 166.337,209.962 166.266 C 209.847 166.195,209.753 165.872,209.753 165.550 C 209.753 165.227,209.544 164.339,209.289 163.577 C 209.033 162.815,208.753 161.731,208.666 161.169 C 208.579 160.607,208.408 160.086,208.287 160.011 C 208.166 159.936,208.067 159.560,208.067 159.175 C 208.067 158.790,207.916 158.119,207.732 157.684 C 207.340 156.760,206.378 151.926,206.377 150.873 C 206.377 150.476,206.215 149.619,206.018 148.968 C 205.821 148.318,205.658 147.180,205.655 146.440 C 205.653 145.699,205.495 144.443,205.303 143.648 C 204.874 141.874,204.788 130.646,205.193 129.318 C 205.334 128.855,205.545 127.556,205.662 126.430 C 205.778 125.304,205.980 123.949,206.110 123.420 C 206.240 122.890,206.522 121.644,206.738 120.650 C 207.147 118.760,207.969 115.815,208.316 114.991 C 208.427 114.726,208.590 114.238,208.677 113.907 C 208.861 113.210,210.383 109.263,210.702 108.658 C 210.820 108.432,211.382 107.219,211.949 105.960 C 212.516 104.702,213.067 103.553,213.173 103.406 C 213.355 103.157,214.156 101.716,215.042 100.048 C 215.256 99.644,215.925 98.561,216.529 97.640 C 217.132 96.719,218.047 95.316,218.561 94.521 C 219.075 93.727,219.606 92.954,219.742 92.805 C 219.877 92.656,220.151 92.288,220.349 91.989 C 220.548 91.689,221.279 90.741,221.975 89.882 C 222.670 89.022,223.239 88.246,223.239 88.157 C 223.239 87.085,229.908 81.456,232.390 80.433 C 234.794 79.443,235.869 78.897,236.481 78.354 C 236.814 78.059,237.366 77.567,237.709 77.259 C 240.531 74.727,242.001 66.732,240.494 62.112 C 240.303 61.527,240.071 60.614,239.979 60.084 C 239.888 59.554,239.709 58.996,239.582 58.842 C 239.456 58.689,239.252 58.039,239.130 57.397 C 238.766 55.477,238.371 53.655,238.044 52.378 C 237.305 49.500,237.097 46.868,237.026 39.511 C 236.948 31.470,236.923 31.306,235.769 31.306 C 233.586 31.306,232.564 33.435,232.241 38.651 C 232.062 41.560,231.884 41.865,230.903 40.951 C 229.695 39.826,227.603 38.530,227.434 38.803 C 227.339 38.956,227.251 42.073,227.237 45.730 C 227.211 52.663,227.190 52.459,228.330 55.990 C 228.458 56.388,228.838 57.580,229.173 58.639 C 229.509 59.699,229.936 60.918,230.123 61.349 C 232.253 66.246,232.447 67.597,230.848 66.381 C 230.438 66.070,229.344 65.402,228.417 64.897 C 227.489 64.393,226.472 63.781,226.157 63.537 C 225.145 62.758,223.961 63.568,223.961 65.039 C 223.961 65.411,223.861 65.777,223.739 65.852 C 223.309 66.119,223.197 67.403,223.546 68.085 C 223.734 68.453,224.148 69.277,224.466 69.917 C 225.024 71.037,227.264 73.368,229.482 75.135 C 231.942 77.097,231.954 77.345,229.601 77.612 C 227.763 77.820,223.763 77.633,223.369 77.320 C 223.231 77.210,222.861 77.042,222.547 76.945 C 219.747 76.085,217.031 72.740,214.624 67.188 C 214.423 66.725,214.179 66.183,214.083 65.984 C 213.944 65.698,213.526 65.641,212.067 65.709 C 210.948 65.761,210.100 65.690,209.904 65.528 C 209.551 65.235,209.640 63.071,210.037 62.306 C 210.695 61.037,210.686 49.979,210.025 48.043 C 209.889 47.646,209.676 46.725,209.551 45.996 C 209.136 43.579,208.523 41.063,208.294 40.831 C 208.169 40.705,208.067 40.347,208.067 40.036 C 208.067 39.725,207.913 39.172,207.725 38.808 C 207.132 37.661,206.355 31.803,206.599 30.316 C 206.715 29.602,206.948 28.100,207.116 26.977 C 207.283 25.854,207.566 24.790,207.744 24.612 C 207.922 24.434,208.071 24.052,208.075 23.764 C 208.079 23.475,208.242 23.029,208.436 22.772 C 208.631 22.514,208.790 22.169,208.790 22.005 C 208.790 20.897,215.268 13.216,216.564 12.787 C 216.725 12.733,217.453 12.237,218.182 11.684 C 219.985 10.315,220.901 9.881,222.878 9.464 C 223.805 9.268,224.943 9.027,225.406 8.928 C 225.870 8.829,226.923 8.405,227.747 7.986 C 229.499 7.096,230.218 7.036,230.844 7.727 C 231.094 8.003,231.750 8.534,232.301 8.906 C 232.852 9.278,233.504 9.761,233.750 9.979 C 234.264 10.435,235.847 11.689,238.369 13.638 C 242.294 16.671,244.185 16.828,248.290 14.459 C 252.367 12.106,256.465 10.182,258.525 9.654 C 258.925 9.551,259.467 9.355,259.729 9.217 C 259.991 9.079,260.688 8.886,261.279 8.788 C 261.870 8.690,262.520 8.516,262.724 8.401 C 264.363 7.475,276.461 6.813,279.350 7.490 C 279.946 7.630,281.300 7.887,282.360 8.061 C 284.774 8.457,287.563 9.280,289.020 10.027 C 289.371 10.208,289.805 10.357,289.983 10.358 C 290.582 10.364,296.463 13.526,296.938 14.098 C 297.098 14.291,297.323 14.449,297.438 14.449 C 299.049 14.449,306.562 22.543,306.562 24.278 C 306.562 24.403,306.725 24.639,306.924 24.804 C 307.122 24.969,307.285 25.340,307.285 25.629 C 307.285 25.917,307.400 26.268,307.541 26.409 C 307.682 26.550,308.271 27.670,308.850 28.898 C 309.429 30.126,310.018 31.247,310.159 31.387 C 310.300 31.528,310.415 31.752,310.415 31.884 C 310.415 33.024,315.448 38.603,317.182 39.384 C 318.414 39.940,318.683 41.819,318.040 45.394 C 317.969 45.792,317.786 47.688,317.634 49.609 C 317.032 57.195,316.054 59.225,312.462 60.333 C 310.869 60.825,310.187 61.422,308.528 63.779 C 307.409 65.370,306.696 65.750,305.690 65.292 C 304.660 64.823,303.845 64.984,302.719 65.879 C 298.566 69.181,296.959 72.802,296.742 79.349 C 296.596 83.779,295.885 84.768,292.847 84.768 C 291.419 84.768,290.668 85.136,290.668 85.834 C 290.668 86.463,287.800 89.266,286.320 90.083 C 283.305 91.749,282.986 91.946,281.602 93.001 C 278.436 95.414,272.675 96.411,270.791 94.872 C 270.654 94.759,270.112 94.561,269.587 94.432 C 269.063 94.303,267.875 93.930,266.948 93.603 C 264.155 92.617,261.421 91.842,258.683 91.259 C 258.112 91.138,257.536 90.971,257.404 90.890 C 256.678 90.441,255.943 92.183,256.455 93.140 C 257.547 95.184,258.973 99.251,259.264 101.158 C 259.354 101.746,259.521 102.347,259.635 102.493 C 259.749 102.639,259.912 103.289,259.997 103.938 C 260.082 104.586,260.251 105.245,260.374 105.402 C 260.497 105.558,260.701 106.418,260.828 107.312 C 260.954 108.205,261.218 109.409,261.414 109.985 C 261.610 110.562,261.770 111.334,261.770 111.700 C 261.770 112.066,261.873 112.469,261.998 112.595 C 262.124 112.721,262.336 113.420,262.469 114.148 C 262.602 114.877,262.935 116.394,263.207 117.520 C 263.480 118.645,263.765 120.000,263.841 120.530 C 263.917 121.060,264.183 122.143,264.432 122.938 C 265.110 125.104,265.576 126.912,265.750 128.054 C 265.836 128.616,266.005 129.137,266.126 129.212 C 266.247 129.287,266.346 129.667,266.346 130.057 C 266.346 130.447,266.562 131.171,266.827 131.665 C 267.092 132.159,267.309 132.786,267.309 133.057 C 267.309 133.678,268.108 135.980,268.978 137.869 C 269.345 138.663,269.885 139.893,270.179 140.602 C 270.474 141.311,271.030 142.403,271.415 143.029 C 271.801 143.656,272.339 144.647,272.612 145.233 C 273.306 146.724,274.518 148.874,274.919 149.327 C 275.104 149.536,275.257 149.807,275.258 149.929 C 275.260 150.253,276.687 151.171,277.773 151.547 C 279.046 151.988,280.785 151.576,283.597 150.169 C 284.771 149.581,286.002 148.985,286.334 148.843 C 286.665 148.702,287.098 148.489,287.297 148.369 C 287.495 148.250,288.525 147.753,289.585 147.265 C 290.644 146.777,291.674 146.277,291.872 146.155 C 292.071 146.033,292.396 145.871,292.595 145.794 C 293.269 145.535,300.174 142.056,301.264 141.426 C 302.394 140.774,305.746 137.499,307.312 135.517 C 309.071 133.293,308.778 130.308,306.562 127.872 C 306.364 127.653,305.753 126.942,305.204 126.290 C 304.656 125.638,303.952 124.827,303.639 124.488 C 303.326 124.148,302.583 123.282,301.987 122.563 C 301.391 121.844,300.388 120.716,299.759 120.056 C 298.194 118.414,297.920 118.848,303.558 114.028 C 305.261 112.571,307.420 110.669,308.355 109.802 C 309.289 108.935,310.484 107.910,311.008 107.523 C 311.533 107.137,312.467 106.329,313.083 105.728 C 313.698 105.127,314.840 104.122,315.620 103.495 C 316.400 102.867,317.959 101.541,319.085 100.549 C 320.211 99.556,321.890 98.120,322.818 97.358 C 323.745 96.596,324.993 95.514,325.591 94.953 C 326.189 94.392,327.056 93.659,327.517 93.323 C 327.979 92.988,328.682 92.451,329.079 92.131 C 329.476 91.811,331.353 90.351,333.249 88.886 C 335.146 87.422,337.709 85.219,338.946 83.991 C 343.501 79.467,344.524 79.608,349.377 85.431 L 350.030 86.214 351.532 85.491 C 355.563 83.550,358.407 85.379,359.207 90.427 C 359.270 90.825,359.472 91.692,359.655 92.354 C 360.066 93.834,360.684 96.598,360.894 97.893 C 360.980 98.423,361.139 98.970,361.249 99.108 C 361.358 99.247,361.552 99.951,361.681 100.674 C 361.809 101.396,362.021 102.420,362.151 102.950 C 363.609 108.878,363.496 111.048,361.658 112.462 C 361.399 112.661,360.642 113.311,359.976 113.907 C 359.309 114.503,358.586 115.086,358.370 115.202 C 358.154 115.317,357.869 115.540,357.736 115.696 C 357.604 115.852,356.520 116.736,355.328 117.662 C 354.136 118.587,352.890 119.583,352.559 119.874 C 351.928 120.429,346.893 124.416,345.887 125.157 C 345.567 125.394,344.905 125.939,344.416 126.369 C 343.928 126.800,343.463 127.152,343.383 127.152 C 343.303 127.152,342.967 127.396,342.638 127.694 C 341.340 128.868,340.585 129.499,340.233 129.706 C 339.456 130.161,336.905 132.546,336.905 132.817 C 336.905 132.974,337.568 133.623,338.379 134.259 C 339.189 134.896,340.246 135.787,340.727 136.239 C 341.208 136.691,341.872 137.242,342.203 137.462 C 344.254 138.829,348.846 143.025,350.037 144.620 C 350.429 145.145,350.810 145.629,350.884 145.695 C 351.485 146.237,354.485 152.094,354.485 152.728 C 354.485 152.934,354.648 153.237,354.846 153.402 C 355.045 153.566,355.208 153.861,355.208 154.057 C 355.208 154.252,355.380 154.808,355.591 155.292 C 356.679 157.789,356.943 158.374,357.158 158.771 C 357.287 159.008,357.724 159.821,358.130 160.577 C 359.295 162.747,361.187 165.107,364.076 167.992 C 367.901 171.813,368.233 173.111,365.938 175.282 C 365.217 175.964,364.377 176.630,364.071 176.761 C 363.766 176.893,363.353 177.103,363.155 177.228 C 362.956 177.354,361.927 177.849,360.867 178.328 C 355.671 180.681,355.208 181.129,355.208 183.801 C 355.208 184.847,355.330 185.932,355.480 186.213 C 355.630 186.493,355.890 187.271,356.058 187.943 C 356.364 189.169,356.716 190.230,357.263 191.571 C 357.670 192.572,358.104 193.845,358.331 194.702 C 358.435 195.099,358.696 195.750,358.910 196.147 C 359.124 196.544,359.299 196.967,359.300 197.087 C 359.302 197.301,359.935 198.730,361.178 201.325 C 363.341 205.838,366.298 209.024,373.137 214.213 C 373.396 214.409,373.695 214.570,373.802 214.570 C 373.908 214.570,374.318 214.857,374.712 215.207 C 375.105 215.558,375.637 215.964,375.893 216.110 C 376.501 216.457,378.947 217.961,379.653 218.423 C 379.957 218.621,381.467 219.542,383.009 220.470 C 384.550 221.397,386.105 222.340,386.464 222.565 C 387.590 223.273,389.149 223.937,390.077 224.104 C 390.568 224.193,391.095 224.364,391.248 224.485 C 391.401 224.607,392.052 224.799,392.693 224.913 C 393.334 225.026,395.051 225.452,396.508 225.860 C 397.965 226.267,399.347 226.602,399.579 226.605 C 399.979 226.610,400.000 221.057,400.000 113.305 L 400.000 0.000 278.025 0.000 C 191.745 0.000,156.051 0.075,156.051 0.257 " stroke="none" fill="#fbfbfb" fill-rule="evenodd"></path></g></svg>