<svg id="svg" version="1.1" xmlns="http://www.w3.org/2000/svg" xmlns:xlink="http://www.w3.org/1999/xlink" width="400" height="400" viewBox="0, 0, 400,400"><g id="svgg"><path id="path0" d="M214.000 174.700 C 214.000 175.012,214.214 175.195,214.475 175.108 C 215.200 174.867,215.303 174.133,214.611 174.133 C 214.275 174.133,214.000 174.388,214.000 174.700 M213.029 176.229 C 212.339 176.918,212.183 178.000,212.772 178.000 C 212.977 178.000,213.223 177.685,213.318 177.300 C 213.414 176.915,213.440 177.050,213.377 177.600 C 213.248 178.721,214.142 180.207,214.728 179.844 C 214.938 179.715,215.335 179.881,215.611 180.214 C 216.029 180.717,216.004 180.776,215.457 180.566 C 214.562 180.223,214.631 180.867,215.600 181.908 C 216.040 182.380,216.400 182.928,216.400 183.125 C 216.400 183.322,216.850 183.969,217.400 184.562 C 217.950 185.156,218.400 185.923,218.400 186.267 C 218.400 186.671,218.653 186.827,219.112 186.707 C 219.988 186.478,220.875 187.359,220.717 188.302 C 220.649 188.711,220.819 188.954,221.130 188.890 C 221.699 188.772,221.479 189.332,220.513 190.460 C 220.067 190.982,220.053 191.186,220.450 191.431 C 220.733 191.606,221.020 191.541,221.106 191.283 C 221.218 190.945,221.399 190.952,221.789 191.312 C 222.098 191.596,222.177 191.975,221.978 192.219 C 221.565 192.726,222.836 194.249,224.800 195.603 C 225.570 196.133,226.916 197.240,227.790 198.062 C 228.770 198.983,229.482 199.390,229.647 199.124 C 230.148 198.313,232.342 199.497,235.913 202.507 C 240.914 206.723,245.666 210.255,248.469 211.839 C 249.806 212.595,251.431 213.660,252.081 214.207 C 254.922 216.597,254.618 214.822,251.425 210.375 C 248.375 206.128,248.121 205.485,248.976 204.180 C 250.767 201.447,254.242 203.436,257.352 208.976 C 258.789 211.537,260.347 213.497,263.347 216.522 C 265.711 218.905,267.717 221.314,268.161 222.304 C 269.019 224.217,268.978 224.207,272.917 223.436 C 293.549 219.397,294.405 219.153,293.073 217.681 C 292.703 217.272,292.400 216.767,292.400 216.558 C 292.400 216.350,291.005 214.834,289.300 213.190 L 286.200 210.200 289.190 213.300 C 293.589 217.860,292.317 217.092,285.466 211.051 C 282.130 208.110,278.500 204.915,277.400 203.951 C 276.301 202.988,272.161 199.338,268.200 195.841 C 258.805 187.542,256.054 185.125,254.617 183.904 L 253.435 182.899 250.017 183.855 C 242.683 185.906,240.406 186.514,235.070 187.847 L 229.541 189.229 228.164 188.377 C 226.998 187.657,226.594 187.593,225.534 187.963 C 224.844 188.203,224.132 188.400,223.949 188.400 C 223.767 188.400,222.328 186.465,220.751 184.100 C 215.787 176.655,214.210 175.047,213.029 176.229 M219.439 187.538 C 219.300 187.761,219.382 188.065,219.620 188.212 C 220.235 188.593,220.632 188.072,220.118 187.558 C 219.831 187.271,219.607 187.264,219.439 187.538 M278.000 202.510 C 278.000 202.571,279.395 203.966,281.100 205.610 L 284.200 208.600 281.210 205.500 C 278.433 202.621,278.000 202.217,278.000 202.510 " stroke="none" fill="#d3244b" fill-rule="evenodd"></path><path id="path1" d="M224.145 166.600 C 224.018 166.930,223.664 167.200,223.357 167.200 C 222.559 167.200,222.668 167.907,223.500 168.124 C 224.027 168.262,223.977 168.319,223.300 168.354 C 222.805 168.379,222.400 168.595,222.400 168.833 C 222.400 169.072,222.177 169.192,221.904 169.101 C 221.631 169.010,221.181 169.162,220.904 169.439 C 220.196 170.147,220.274 170.603,221.000 170.000 C 221.465 169.614,221.600 169.612,221.600 169.988 C 221.600 170.256,221.240 170.569,220.800 170.684 C 220.329 170.807,219.988 171.245,219.972 171.747 C 219.946 172.547,219.925 172.552,219.642 171.831 C 219.475 171.403,218.910 171.030,218.371 170.991 C 217.279 170.910,216.375 171.868,216.712 172.749 C 216.848 173.101,216.765 173.226,216.504 173.064 C 215.920 172.704,214.913 173.128,214.636 173.852 C 214.508 174.183,214.582 174.335,214.805 174.197 C 215.022 174.063,215.200 174.223,215.200 174.553 C 215.200 174.883,215.017 175.266,214.793 175.404 C 214.560 175.548,215.135 176.543,216.135 177.728 C 217.097 178.868,219.174 181.735,220.751 184.100 C 222.328 186.465,223.767 188.400,223.949 188.400 C 224.132 188.400,224.844 188.203,225.534 187.963 C 226.594 187.593,226.998 187.657,228.164 188.377 L 229.541 189.229 235.070 187.847 C 240.406 186.514,242.683 185.906,250.017 183.855 L 253.435 182.899 254.617 183.904 C 256.054 185.125,258.805 187.542,268.200 195.841 C 272.161 199.338,276.301 202.988,277.400 203.951 C 278.500 204.915,282.154 208.131,285.519 211.099 C 294.050 218.620,293.473 217.505,284.252 208.645 C 279.734 204.304,276.191 200.568,275.789 199.720 C 275.408 198.918,274.579 197.826,273.947 197.294 C 273.315 196.762,272.907 196.150,273.041 195.934 C 273.267 195.569,271.744 193.604,271.230 193.597 C 271.104 193.595,268.148 190.805,264.662 187.397 C 261.176 183.989,258.183 181.200,258.010 181.200 C 257.838 181.200,256.753 180.300,255.600 179.200 C 253.497 177.195,250.922 176.432,250.200 177.600 C 250.064 177.820,250.154 178.000,250.400 178.000 C 250.646 178.000,250.736 178.180,250.599 178.401 C 250.434 178.669,250.103 178.669,249.602 178.401 C 248.636 177.884,246.519 177.883,246.200 178.400 C 246.064 178.620,245.404 178.800,244.734 178.800 C 243.867 178.800,243.575 178.958,243.724 179.347 C 243.890 179.778,243.545 179.850,242.102 179.688 C 240.531 179.511,240.304 179.574,240.517 180.127 C 240.721 180.659,240.558 180.732,239.595 180.539 C 238.060 180.232,236.758 180.676,237.611 181.215 C 238.031 181.481,238.053 181.590,237.686 181.594 C 236.738 181.605,235.200 180.316,235.200 179.511 C 235.200 178.967,235.010 178.787,234.600 178.945 C 233.930 179.202,233.771 178.588,234.407 178.196 C 234.991 177.835,234.426 177.104,233.760 177.360 C 233.079 177.621,233.027 177.133,233.667 176.493 C 234.023 176.137,233.975 175.965,233.467 175.770 C 233.100 175.630,232.800 175.274,232.800 174.980 C 232.800 174.115,230.784 172.107,230.532 172.721 C 230.373 173.112,230.182 173.062,229.772 172.521 C 229.037 171.552,229.064 171.173,229.847 171.473 C 230.985 171.910,229.847 170.327,227.402 168.072 C 225.015 165.870,224.512 165.643,224.145 166.600 " stroke="none" fill="#f1e6d8" fill-rule="evenodd"></path><path id="path2" d="M301.600 77.790 C 301.600 78.232,301.299 78.320,300.400 78.140 C 299.636 77.987,299.200 78.063,299.200 78.350 C 299.200 78.598,298.840 78.800,298.400 78.800 C 297.960 78.800,297.600 78.980,297.600 79.200 C 297.600 79.420,297.328 79.600,296.995 79.600 C 296.244 79.600,294.806 80.390,294.004 81.243 C 293.672 81.596,293.012 82.008,292.537 82.158 C 292.062 82.308,290.959 83.206,290.085 84.154 C 289.211 85.102,288.201 85.991,287.839 86.130 C 287.478 86.268,287.084 86.638,286.964 86.950 C 286.844 87.263,285.145 89.110,283.189 91.055 C 280.273 93.955,279.674 94.755,279.861 95.500 C 280.033 96.184,279.945 96.354,279.509 96.186 C 279.189 96.064,278.739 96.197,278.507 96.482 C 277.612 97.582,276.400 100.059,276.400 100.789 C 276.400 101.209,276.220 101.664,276.000 101.800 C 275.441 102.145,275.498 104.000,276.067 104.000 C 276.323 104.000,276.398 104.135,276.233 104.300 C 276.068 104.465,275.723 104.600,275.467 104.600 C 275.210 104.600,274.942 105.005,274.872 105.500 C 274.787 106.099,274.950 106.400,275.360 106.400 C 275.747 106.400,275.888 106.626,275.741 107.010 C 275.561 107.478,275.379 107.514,274.958 107.165 C 274.163 106.505,273.755 107.796,274.386 108.974 C 274.657 109.481,274.792 110.234,274.686 110.647 C 274.524 111.279,274.485 111.255,274.446 110.500 C 274.421 110.005,274.214 109.600,273.987 109.600 C 273.313 109.600,273.038 110.849,273.537 111.648 C 274.105 112.557,274.147 114.400,273.600 114.400 C 273.380 114.400,273.173 114.985,273.140 115.700 C 273.084 116.910,273.069 116.924,272.913 115.900 C 272.533 113.386,271.492 114.925,271.088 118.600 C 270.938 119.961,271.785 119.710,272.047 118.316 L 272.295 117.000 272.347 118.500 C 272.376 119.325,272.220 120.000,272.000 120.000 C 271.778 120.000,271.600 121.067,271.600 122.400 C 271.600 123.733,271.422 124.800,271.200 124.800 C 270.980 124.800,270.800 125.250,270.800 125.800 C 270.800 126.350,270.980 126.800,271.200 126.800 C 271.420 126.800,271.573 127.475,271.540 128.300 C 271.492 129.507,271.448 129.585,271.313 128.700 C 271.135 127.522,270.514 127.237,270.157 128.168 C 269.771 129.175,271.193 130.903,271.917 130.307 C 272.453 129.866,272.497 129.942,272.261 130.889 C 272.043 131.764,272.110 131.933,272.600 131.745 C 273.039 131.576,273.139 131.693,272.960 132.160 C 272.769 132.657,272.878 132.745,273.421 132.537 C 273.918 132.346,274.042 132.409,273.832 132.748 C 273.651 133.041,273.941 133.553,274.566 134.045 C 275.135 134.492,275.600 135.115,275.600 135.429 C 275.600 135.743,275.949 136.000,276.376 136.000 C 276.803 136.000,277.263 136.178,277.397 136.395 C 277.535 136.619,277.382 136.691,277.044 136.562 C 276.541 136.368,276.460 136.836,276.534 139.537 C 276.588 141.508,276.468 142.714,276.221 142.670 C 275.599 142.561,275.463 144.467,276.065 144.849 C 276.445 145.089,276.324 145.190,275.648 145.194 C 274.785 145.199,274.716 145.330,274.921 146.591 C 275.070 147.512,274.995 147.951,274.697 147.891 C 274.034 147.757,273.849 149.171,274.396 150.193 C 274.657 150.681,274.790 151.512,274.690 152.040 C 274.521 152.937,274.505 152.928,274.454 151.900 C 274.376 150.325,273.200 150.419,273.200 152.000 C 273.200 152.660,273.380 153.200,273.600 153.200 C 273.820 153.200,273.974 154.055,273.943 155.100 C 273.887 156.998,273.886 156.999,273.643 155.487 C 273.509 154.654,273.220 153.934,273.000 153.887 C 272.394 153.755,272.265 155.600,272.808 156.615 C 273.232 157.407,273.208 159.213,272.739 161.757 C 272.663 162.173,272.811 162.589,273.069 162.680 C 273.327 162.771,273.618 162.431,273.715 161.923 C 273.876 161.079,273.896 161.091,273.946 162.067 C 273.975 162.653,273.788 163.204,273.529 163.290 C 273.266 163.378,273.193 163.666,273.365 163.943 C 273.586 164.301,273.815 164.319,274.189 164.009 C 274.572 163.692,274.771 163.747,274.953 164.223 C 275.296 165.117,275.263 165.286,274.800 165.000 C 274.208 164.634,274.315 165.335,274.987 166.224 C 275.366 166.724,275.579 167.965,275.587 169.719 C 275.596 171.599,275.847 172.950,276.400 174.094 C 277.470 176.310,277.428 176.599,275.797 178.230 C 274.711 179.315,274.448 179.850,274.633 180.589 C 274.838 181.408,274.753 181.513,274.036 181.325 C 273.188 181.104,272.867 181.747,273.600 182.200 C 273.820 182.336,274.000 182.977,274.000 183.624 C 274.000 184.271,273.820 184.800,273.600 184.800 C 273.365 184.800,273.200 186.200,273.200 188.200 C 273.200 190.200,273.365 191.600,273.600 191.600 C 273.820 191.600,274.000 192.410,274.000 193.400 C 274.000 194.390,273.820 195.200,273.600 195.200 C 272.995 195.200,273.121 196.636,273.773 197.177 C 274.247 197.571,274.374 197.424,274.509 196.326 L 274.672 195.000 274.739 196.400 C 274.858 198.873,276.814 201.307,284.700 208.798 C 288.935 212.820,292.400 216.297,292.400 216.524 C 292.400 216.751,292.703 217.272,293.073 217.681 C 294.405 219.153,293.549 219.397,272.917 223.436 C 268.978 224.207,269.019 224.217,268.161 222.304 C 267.717 221.314,265.711 218.905,263.347 216.522 C 260.347 213.497,258.789 211.537,257.352 208.976 C 254.242 203.436,250.767 201.447,248.976 204.180 C 248.121 205.485,248.375 206.128,251.425 210.375 C 254.618 214.822,254.922 216.597,252.081 214.207 C 251.431 213.660,249.806 212.595,248.469 211.839 C 245.670 210.257,240.916 206.725,235.937 202.527 C 231.599 198.871,229.600 197.961,229.600 199.643 C 229.600 200.243,229.780 200.417,230.226 200.245 C 230.707 200.061,230.794 200.190,230.599 200.803 C 230.417 201.377,230.529 201.600,231.000 201.600 C 231.472 201.600,231.583 201.823,231.400 202.400 C 231.254 202.859,231.328 203.200,231.573 203.200 C 231.808 203.200,232.000 203.560,232.000 204.000 C 232.000 204.440,232.180 204.800,232.400 204.800 C 232.620 204.800,232.800 205.060,232.800 205.377 C 232.800 206.428,234.479 208.855,235.053 208.635 C 235.696 208.388,235.796 209.032,235.174 209.416 C 234.895 209.589,234.985 209.941,235.435 210.438 C 235.996 211.058,236.232 211.106,236.725 210.699 C 237.244 210.270,237.299 210.357,237.116 211.323 C 236.959 212.149,237.042 212.393,237.431 212.244 C 237.786 212.107,237.878 212.254,237.710 212.690 C 237.526 213.170,237.630 213.274,238.110 213.090 C 238.522 212.932,238.693 213.016,238.577 213.320 C 238.477 213.584,239.566 214.846,240.997 216.125 C 242.429 217.404,243.600 218.709,243.600 219.025 C 243.600 219.341,243.780 219.600,244.000 219.600 C 244.220 219.600,244.400 219.880,244.400 220.221 C 244.400 220.563,246.341 222.768,248.713 225.121 C 251.086 227.475,253.858 230.300,254.875 231.400 L 256.723 233.400 255.462 233.346 C 254.768 233.317,253.665 233.081,253.011 232.822 C 252.156 232.484,251.562 232.471,250.893 232.776 C 249.744 233.299,248.753 233.344,249.554 232.837 C 249.996 232.557,249.934 232.393,249.246 232.024 C 248.250 231.492,247.447 231.824,247.760 232.640 C 248.027 233.336,247.704 233.361,247.039 232.696 C 246.762 232.419,246.618 231.947,246.718 231.647 C 246.855 231.236,246.553 231.141,245.495 231.265 C 244.394 231.393,244.139 231.304,244.313 230.851 C 244.488 230.394,244.273 230.325,243.285 230.523 C 242.289 230.722,242.081 230.654,242.261 230.186 C 242.413 229.789,242.222 229.600,241.666 229.600 C 241.216 229.600,240.724 229.401,240.573 229.157 C 240.404 228.883,239.712 228.808,238.761 228.960 C 237.494 229.162,237.264 229.099,237.454 228.603 C 237.828 227.630,231.405 227.726,230.979 228.700 C 230.811 229.085,230.706 229.548,230.746 229.730 C 230.787 229.911,230.678 229.972,230.505 229.865 C 230.017 229.563,228.910 230.533,228.743 231.410 C 228.646 231.917,228.235 232.226,227.596 232.274 C 227.018 232.317,226.894 232.263,227.300 232.145 C 228.834 231.699,227.954 231.103,226.036 231.287 C 224.409 231.443,224.112 231.373,224.303 230.876 C 224.492 230.383,224.238 230.316,222.866 230.500 C 221.538 230.679,221.200 230.599,221.200 230.110 C 221.200 229.633,220.892 229.545,219.824 229.719 C 218.681 229.904,218.489 229.834,218.691 229.308 C 218.892 228.782,218.717 228.717,217.671 228.926 C 216.782 229.104,216.436 229.033,216.504 228.689 C 216.561 228.399,216.165 228.206,215.529 228.214 C 214.940 228.221,214.490 228.041,214.529 227.814 C 214.568 227.586,214.115 227.432,213.523 227.472 C 212.737 227.525,212.506 227.390,212.666 226.972 C 212.814 226.588,212.609 226.400,212.043 226.400 C 211.579 226.400,211.200 226.220,211.200 226.000 C 211.200 225.780,210.840 225.600,210.400 225.600 C 209.960 225.600,209.600 225.399,209.600 225.153 C 209.600 224.908,209.252 224.798,208.826 224.909 C 208.378 225.026,207.962 224.877,207.838 224.556 C 207.721 224.250,207.295 224.000,206.893 224.000 C 206.490 224.000,205.972 223.812,205.741 223.581 C 205.206 223.046,199.364 223.251,199.495 223.800 C 199.548 224.020,201.078 224.301,202.895 224.425 L 206.200 224.651 202.895 224.725 C 200.839 224.772,199.269 224.611,198.742 224.300 C 198.065 223.900,197.859 223.900,197.714 224.300 C 197.615 224.575,197.188 224.800,196.767 224.800 C 196.345 224.800,196.000 224.980,196.000 225.200 C 196.000 225.420,195.752 225.600,195.448 225.600 C 195.145 225.600,194.155 226.320,193.248 227.200 C 192.341 228.080,191.329 228.800,191.000 228.800 C 190.670 228.800,190.400 228.980,190.400 229.200 C 190.400 229.420,190.058 229.600,189.641 229.600 C 187.872 229.600,182.605 232.932,183.074 233.753 C 183.214 233.999,183.184 234.070,183.008 233.911 C 182.656 233.593,180.400 234.783,180.400 235.286 C 180.400 235.459,180.040 235.600,179.600 235.600 C 179.160 235.600,178.800 235.853,178.800 236.163 C 178.800 236.528,178.520 236.652,178.000 236.516 C 177.459 236.374,177.200 236.504,177.200 236.916 C 177.200 237.328,176.941 237.457,176.400 237.316 C 175.859 237.174,175.600 237.304,175.600 237.716 C 175.600 238.128,175.341 238.257,174.800 238.116 C 174.248 237.972,174.000 238.104,174.000 238.541 C 174.000 238.890,173.775 239.091,173.500 238.989 C 173.225 238.887,172.100 239.534,171.000 240.426 C 168.371 242.558,163.339 246.000,162.851 246.000 C 162.640 246.000,162.407 246.143,162.333 246.319 C 162.260 246.494,161.345 247.035,160.300 247.521 C 159.255 248.007,158.400 248.583,158.400 248.802 C 158.400 249.021,158.126 249.200,157.790 249.200 C 157.455 249.200,155.970 249.960,154.490 250.890 C 151.123 253.005,149.117 254.300,148.598 254.694 C 148.376 254.862,147.386 255.437,146.398 255.970 C 145.409 256.504,144.510 257.044,144.400 257.170 C 144.064 257.556,141.843 258.836,141.100 259.071 C 140.715 259.193,140.400 259.452,140.400 259.647 C 140.400 259.841,140.164 260.000,139.875 260.000 C 139.587 260.000,138.964 260.360,138.492 260.800 C 138.020 261.240,137.517 261.600,137.375 261.600 C 137.232 261.600,136.316 262.140,135.338 262.800 C 134.360 263.460,133.466 264.000,133.352 264.000 C 133.238 264.000,132.359 264.540,131.399 265.201 C 130.439 265.861,128.967 266.548,128.127 266.728 C 127.054 266.958,126.617 267.255,126.656 267.727 C 126.686 268.097,126.551 268.400,126.356 268.400 C 126.160 268.400,126.000 268.220,126.000 268.000 C 126.000 267.780,125.291 267.600,124.424 267.600 C 123.557 267.600,122.721 267.396,122.566 267.146 C 122.199 266.550,120.823 268.308,120.803 269.400 C 120.791 270.048,120.717 270.089,120.417 269.613 C 120.115 269.137,119.734 269.344,118.392 270.713 C 116.942 272.192,116.520 272.400,114.969 272.400 C 113.970 272.400,113.200 272.588,113.200 272.832 C 113.200 273.113,112.175 273.217,110.250 273.132 C 107.862 273.025,107.340 273.106,107.514 273.555 C 107.650 273.908,107.523 274.036,107.164 273.909 C 106.402 273.638,105.200 274.297,105.200 274.986 C 105.200 275.293,104.795 275.606,104.300 275.682 C 103.805 275.757,103.447 276.045,103.504 276.321 C 103.620 276.884,103.251 277.041,101.109 277.339 C 100.085 277.482,99.646 277.399,99.709 277.073 C 99.810 276.549,96.734 276.186,95.665 276.596 C 95.107 276.811,95.099 276.896,95.611 277.246 C 96.035 277.536,95.836 277.577,94.900 277.392 C 94.078 277.231,93.600 277.295,93.600 277.568 C 93.600 277.806,93.311 278.000,92.957 278.000 C 92.530 278.000,92.398 278.217,92.562 278.645 C 92.732 279.089,92.636 279.222,92.250 279.075 C 91.942 278.957,91.000 279.493,90.156 280.266 C 89.311 281.039,88.121 281.931,87.510 282.246 C 86.900 282.562,86.400 283.007,86.400 283.234 C 86.400 283.461,86.244 283.551,86.053 283.433 C 85.862 283.315,85.007 283.560,84.153 283.978 C 83.117 284.486,82.800 284.805,83.200 284.938 C 83.530 285.047,84.070 285.227,84.400 285.337 C 84.730 285.447,84.451 285.551,83.780 285.568 C 83.109 285.586,82.367 285.407,82.131 285.171 C 81.568 284.608,79.108 284.858,78.897 285.500 C 78.787 285.835,79.239 286.021,80.267 286.064 L 81.800 286.128 80.431 286.295 C 79.678 286.386,78.669 286.251,78.190 285.995 C 77.162 285.444,75.528 285.602,75.307 286.273 C 75.214 286.554,75.688 286.812,76.476 286.909 L 77.800 287.072 76.300 287.136 C 75.475 287.171,74.800 287.380,74.800 287.600 C 74.800 287.820,73.990 288.000,73.000 288.000 C 72.010 288.000,71.200 287.820,71.200 287.600 C 71.200 287.380,70.742 287.200,70.183 287.200 C 69.623 287.200,68.680 286.750,68.087 286.200 C 67.493 285.650,66.801 285.200,66.547 285.200 C 66.293 285.200,65.976 284.915,65.843 284.567 C 65.709 284.218,65.375 284.015,65.100 284.115 C 64.825 284.214,64.284 284.021,63.898 283.684 C 63.332 283.191,63.001 283.162,62.180 283.537 C 61.620 283.791,59.866 283.965,58.281 283.922 L 55.400 283.843 58.100 283.703 C 61.600 283.522,61.600 282.818,58.100 282.739 C 56.615 282.706,55.218 282.657,54.995 282.632 C 54.442 282.568,51.745 280.530,49.800 278.705 C 48.920 277.879,47.977 277.287,47.705 277.388 C 47.432 277.489,47.252 277.425,47.305 277.247 C 47.357 277.069,45.015 274.582,42.100 271.721 C 39.185 268.859,36.800 266.312,36.800 266.059 C 36.800 265.807,36.620 265.600,36.400 265.600 C 36.180 265.600,36.000 265.161,36.000 264.624 C 36.000 264.087,35.825 263.539,35.612 263.408 C 35.392 263.271,35.302 261.924,35.405 260.284 C 35.674 255.988,34.990 252.447,34.288 254.500 C 34.194 254.775,34.190 254.572,34.279 254.049 C 34.407 253.295,34.303 253.152,33.773 253.355 C 33.230 253.563,33.141 253.419,33.301 252.583 C 33.449 251.808,33.357 251.608,32.928 251.772 C 32.610 251.894,32.467 251.815,32.605 251.592 C 33.244 250.559,29.629 248.621,28.242 249.254 C 27.505 249.590,27.079 249.597,26.698 249.282 C 26.359 249.000,25.965 248.979,25.587 249.223 C 25.073 249.553,25.074 249.654,25.600 250.035 C 26.090 250.390,26.043 250.435,25.344 250.284 C 24.368 250.072,21.848 251.980,22.700 252.287 C 22.975 252.386,23.197 252.767,23.194 253.133 C 23.189 253.706,23.135 253.716,22.811 253.203 C 22.492 252.700,22.353 252.692,21.917 253.153 C 21.507 253.586,21.504 253.738,21.900 253.883 C 22.175 253.984,22.389 254.547,22.375 255.133 C 22.350 256.191,22.346 256.192,21.978 255.274 C 21.571 254.260,20.800 254.436,20.800 255.544 C 20.800 255.927,20.584 256.456,20.320 256.720 C 19.947 257.093,19.947 257.307,20.320 257.680 C 20.584 257.944,20.797 258.439,20.794 258.780 C 20.789 259.324,20.741 259.326,20.411 258.803 C 20.130 258.360,19.917 258.323,19.582 258.658 C 19.259 258.981,19.254 259.186,19.565 259.378 C 20.200 259.771,20.098 260.412,19.440 260.160 C 18.774 259.904,18.209 260.635,18.793 260.996 C 19.017 261.134,19.179 261.642,19.154 262.124 C 19.116 262.833,19.072 262.863,18.920 262.278 C 18.817 261.881,18.523 261.633,18.266 261.728 C 18.010 261.823,17.867 262.148,17.949 262.450 C 18.180 263.305,18.306 264.259,18.113 263.700 C 18.019 263.425,17.769 263.200,17.558 263.200 C 16.944 263.200,16.652 264.412,17.147 264.907 C 17.396 265.156,17.597 265.639,17.594 265.980 C 17.588 266.527,17.541 266.529,17.194 266.000 C 16.851 265.478,16.752 265.475,16.426 265.981 C 15.954 266.715,16.306 267.322,17.040 267.040 C 17.348 266.922,17.600 266.999,17.600 267.213 C 17.600 267.426,17.420 267.600,17.200 267.600 C 16.980 267.600,16.797 267.915,16.794 268.300 C 16.789 268.887,16.728 268.905,16.416 268.412 C 15.643 267.190,15.284 268.812,15.754 271.400 C 15.873 272.060,15.875 272.285,15.756 271.900 C 14.993 269.414,14.192 273.786,14.485 278.844 C 14.645 281.599,15.600 284.487,15.600 282.213 C 15.600 281.803,15.711 281.577,15.846 281.713 C 15.982 281.848,15.910 282.482,15.687 283.122 C 15.250 284.377,15.634 285.473,16.355 285.028 C 16.600 284.876,16.800 284.933,16.800 285.153 C 16.800 285.373,16.617 285.666,16.393 285.804 C 15.867 286.129,16.331 286.890,16.933 286.689 C 17.186 286.605,17.619 286.762,17.896 287.039 C 18.588 287.731,18.527 288.024,17.753 287.727 C 17.220 287.522,17.180 287.614,17.521 288.252 C 18.070 289.278,21.945 293.200,22.410 293.200 C 22.611 293.200,22.684 293.436,22.573 293.725 C 22.275 294.502,23.951 295.926,24.369 295.251 C 24.619 294.846,24.742 294.871,24.932 295.366 C 25.086 295.767,24.959 296.000,24.587 296.000 C 23.826 296.000,23.840 296.094,24.862 297.888 C 25.335 298.720,26.089 300.075,26.536 300.900 C 26.983 301.725,27.568 302.400,27.837 302.400 C 28.128 302.400,28.241 302.723,28.116 303.200 C 27.974 303.741,28.104 304.000,28.516 304.000 C 28.928 304.000,29.057 304.259,28.916 304.800 C 28.779 305.322,28.904 305.600,29.273 305.600 C 29.685 305.600,29.795 305.982,29.676 307.000 C 29.509 308.434,30.186 308.993,30.524 307.700 C 30.639 307.260,30.724 307.399,30.754 308.076 C 30.779 308.668,30.980 309.264,31.200 309.400 C 31.830 309.790,31.666 310.400,31.000 310.145 C 30.528 309.963,30.400 310.259,30.400 311.534 C 30.400 313.151,30.942 314.052,31.345 313.102 C 31.462 312.826,31.449 313.395,31.317 314.366 C 31.108 315.904,31.163 316.100,31.743 315.877 C 32.288 315.668,32.365 315.801,32.164 316.602 C 31.959 317.417,32.343 318.026,34.422 320.192 C 36.769 322.635,38.400 323.488,38.400 322.270 C 38.400 321.929,38.880 321.751,39.748 321.770 C 40.693 321.791,41.035 321.958,40.894 322.329 C 40.746 322.718,41.052 322.824,42.046 322.729 C 42.791 322.658,43.370 322.419,43.333 322.198 C 43.296 321.977,43.836 321.797,44.533 321.798 C 45.238 321.799,45.764 321.605,45.720 321.359 C 45.672 321.097,46.036 320.994,46.620 321.106 C 47.337 321.243,47.600 321.118,47.600 320.639 C 47.600 320.149,47.840 320.045,48.556 320.225 C 49.082 320.357,49.633 320.270,49.780 320.032 C 49.927 319.795,50.397 319.600,50.824 319.600 C 51.251 319.600,51.600 319.420,51.600 319.200 C 51.600 318.980,51.960 318.800,52.400 318.800 C 52.840 318.800,53.200 318.620,53.200 318.400 C 53.200 318.180,53.560 318.000,54.000 318.000 C 54.440 318.000,54.800 317.801,54.800 317.557 C 54.800 317.314,55.077 317.221,55.415 317.350 C 55.771 317.487,56.130 317.326,56.267 316.970 C 56.397 316.631,56.744 316.447,57.039 316.560 C 57.333 316.673,57.689 316.580,57.828 316.354 C 58.543 315.198,59.806 315.314,61.400 316.682 C 62.637 317.744,63.245 318.007,64.082 317.841 C 64.920 317.675,65.114 317.759,64.939 318.214 C 64.768 318.661,65.051 318.800,66.134 318.800 C 67.580 318.800,68.412 318.232,67.502 317.866 C 67.226 317.754,67.394 317.649,67.876 317.632 C 68.358 317.614,68.864 317.420,69.000 317.200 C 69.390 316.570,70.000 316.734,69.745 317.400 C 69.612 317.746,69.744 318.015,70.057 318.035 C 72.255 318.179,83.620 317.960,84.506 317.757 C 85.415 317.549,85.567 317.620,85.363 318.152 C 85.173 318.647,85.360 318.800,86.157 318.800 C 86.731 318.800,87.200 318.980,87.200 319.200 C 87.200 319.420,87.560 319.600,88.000 319.600 C 88.440 319.600,88.800 319.780,88.800 320.000 C 88.800 320.220,89.160 320.400,89.600 320.400 C 90.040 320.400,90.400 320.580,90.400 320.800 C 90.400 321.020,90.749 321.200,91.176 321.200 C 91.603 321.200,92.078 321.402,92.230 321.649 C 92.407 321.935,93.319 322.025,94.754 321.896 C 95.989 321.785,96.592 321.776,96.094 321.876 C 94.693 322.156,95.463 322.800,97.200 322.800 C 98.774 322.800,99.621 322.258,98.702 321.839 C 98.426 321.713,98.965 321.714,99.900 321.840 C 100.999 321.989,101.600 321.917,101.600 321.635 C 101.600 321.396,101.797 321.200,102.037 321.200 C 102.277 321.200,102.931 320.840,103.491 320.400 C 104.334 319.737,105.114 319.600,108.054 319.600 C 112.320 319.600,112.825 318.893,108.700 318.697 C 106.039 318.570,106.120 318.552,109.676 318.479 C 111.808 318.436,113.664 318.220,113.800 318.000 C 113.936 317.780,114.712 317.621,115.524 317.646 C 116.336 317.672,116.683 317.776,116.295 317.877 C 115.907 317.978,115.693 318.227,115.819 318.430 C 116.128 318.931,140.400 318.922,140.400 318.421 C 140.400 318.212,139.455 317.976,138.300 317.895 C 136.466 317.767,136.565 317.739,139.076 317.674 C 140.658 317.633,142.064 317.420,142.200 317.200 C 142.341 316.972,144.025 316.830,146.124 316.870 C 148.146 316.908,149.035 317.009,148.100 317.093 C 145.324 317.343,146.158 317.885,149.782 318.187 C 153.690 318.513,164.800 318.051,164.800 317.563 C 164.800 317.382,163.405 317.172,161.700 317.097 L 158.600 316.961 162.420 316.880 C 164.797 316.830,166.408 316.968,166.685 317.245 C 167.254 317.814,168.123 317.297,167.840 316.560 C 167.591 315.911,168.227 315.796,168.612 316.419 C 168.787 316.702,169.070 316.674,169.482 316.332 C 169.817 316.054,170.386 315.806,170.746 315.781 C 171.106 315.757,171.985 315.706,172.700 315.668 C 174.582 315.569,174.297 314.873,172.300 314.693 C 170.826 314.560,170.905 314.530,172.900 314.470 C 174.165 314.431,175.200 314.220,175.200 314.000 C 175.200 313.762,176.725 313.600,178.976 313.600 C 181.063 313.600,182.863 313.779,183.000 314.000 C 183.136 314.220,184.992 314.436,187.124 314.479 C 190.842 314.556,190.877 314.565,188.000 314.699 C 186.351 314.776,184.856 314.984,184.678 315.162 C 184.242 315.598,194.319 316.121,196.591 315.780 C 198.788 315.451,198.943 314.905,196.900 314.691 C 195.881 314.585,196.194 314.513,197.876 314.467 C 199.238 314.430,200.464 314.580,200.600 314.800 C 200.736 315.020,202.142 315.235,203.724 315.277 L 206.600 315.354 204.100 315.496 C 200.257 315.714,201.130 316.272,205.812 316.592 C 212.065 317.018,219.546 316.001,213.900 315.493 L 212.200 315.340 214.076 315.270 C 215.108 315.231,216.064 315.380,216.200 315.600 C 216.336 315.820,218.012 316.036,219.924 316.080 L 223.400 316.161 220.300 316.297 C 218.595 316.372,217.200 316.583,217.200 316.766 C 217.200 317.208,228.627 317.744,230.515 317.390 C 232.180 317.077,232.461 316.545,231.100 316.282 C 230.437 316.154,230.535 316.095,231.476 316.054 C 232.178 316.025,232.864 316.180,233.000 316.400 C 233.136 316.620,235.082 316.837,237.324 316.882 L 241.400 316.965 237.900 317.098 C 235.975 317.171,234.400 317.378,234.400 317.558 C 234.400 318.030,246.111 318.496,249.732 318.168 C 253.095 317.863,253.769 317.333,251.100 317.093 C 250.165 317.009,251.650 316.929,254.400 316.916 C 257.150 316.903,259.085 316.975,258.700 317.076 C 256.618 317.620,259.115 318.551,261.593 318.155 C 263.447 317.858,263.699 317.329,262.100 317.087 C 261.200 316.950,261.269 316.909,262.476 316.860 C 263.288 316.827,264.064 316.980,264.200 317.200 C 264.527 317.729,265.685 317.707,267.074 317.144 L 268.200 316.688 267.200 316.384 C 266.498 316.170,266.417 316.068,266.926 316.040 C 267.326 316.018,268.011 316.192,268.450 316.427 C 269.297 316.880,271.600 316.567,271.600 315.998 C 271.600 315.811,271.285 315.576,270.900 315.476 C 270.376 315.339,270.428 315.281,271.105 315.246 C 271.603 315.221,272.353 315.414,272.772 315.675 C 273.352 316.038,273.896 316.041,275.066 315.689 C 275.910 315.436,277.023 315.114,277.540 314.974 C 278.622 314.682,278.259 314.150,276.800 313.888 C 275.965 313.739,276.015 313.700,277.105 313.654 C 277.823 313.625,278.723 313.792,279.105 314.027 C 279.620 314.343,280.189 314.290,281.300 313.822 C 282.919 313.139,283.215 312.567,282.100 312.276 C 281.715 312.175,282.210 312.093,283.200 312.093 C 284.190 312.093,284.685 312.175,284.300 312.276 C 283.203 312.562,284.693 314.800,285.980 314.800 C 286.186 314.800,286.613 315.169,286.929 315.620 C 287.362 316.238,287.785 316.385,288.652 316.217 C 289.283 316.095,289.575 316.101,289.300 316.231 C 287.806 316.935,289.767 317.711,292.100 317.338 C 293.846 317.058,294.102 316.424,292.500 316.347 C 291.538 316.301,291.576 316.263,292.800 316.042 C 293.699 315.880,294.389 315.970,294.729 316.295 C 295.381 316.919,297.056 316.957,297.428 316.355 C 297.579 316.111,297.454 315.753,297.151 315.561 C 296.303 315.024,297.733 315.095,298.952 315.651 C 299.993 316.125,302.000 315.842,302.000 315.220 C 302.000 315.020,301.595 314.764,301.100 314.651 C 300.605 314.538,301.055 314.504,302.100 314.574 C 303.882 314.694,304.623 314.318,303.500 313.865 C 303.139 313.719,303.133 313.654,303.476 313.632 C 303.738 313.614,304.064 313.780,304.200 314.000 C 304.336 314.220,304.932 314.425,305.524 314.454 C 306.466 314.502,306.488 314.530,305.700 314.682 C 304.435 314.926,304.581 315.488,305.990 315.798 C 307.377 316.102,308.145 315.754,307.840 314.960 C 307.722 314.652,307.799 314.400,308.013 314.400 C 308.226 314.400,308.400 314.580,308.400 314.800 C 308.400 315.020,308.895 315.225,309.500 315.254 C 310.443 315.301,310.472 315.334,309.700 315.482 C 309.205 315.578,308.800 315.809,308.800 315.996 C 308.800 316.606,311.025 316.844,312.833 316.427 C 313.805 316.203,317.165 316.015,320.300 316.010 C 323.827 316.004,326.000 315.847,326.000 315.600 C 326.000 315.380,326.765 315.230,327.700 315.267 L 329.400 315.334 327.900 315.491 C 325.733 315.718,326.058 316.265,328.544 316.576 C 331.624 316.960,334.578 315.998,331.900 315.482 C 331.343 315.375,331.571 315.288,332.500 315.254 C 333.325 315.225,334.000 315.020,334.000 314.800 C 334.000 314.580,334.405 314.421,334.900 314.446 C 335.611 314.483,335.648 314.532,335.078 314.680 C 333.041 315.208,334.944 315.807,338.996 315.914 C 343.865 316.043,347.582 315.160,349.709 313.369 C 350.343 312.836,350.994 312.400,351.157 312.400 C 352.145 312.400,356.341 307.659,356.115 306.797 C 355.942 306.136,356.011 305.960,356.358 306.174 C 356.819 306.459,358.400 305.060,358.400 304.367 C 358.400 304.197,358.694 303.763,359.054 303.403 C 359.543 302.915,359.593 302.633,359.254 302.294 C 358.607 301.647,358.690 301.010,359.349 301.558 C 359.990 302.090,360.288 301.689,362.409 297.432 C 363.369 295.506,363.639 294.613,363.295 294.498 C 362.725 294.308,362.612 292.400,363.171 292.400 C 363.375 292.400,363.624 292.085,363.724 291.700 C 363.898 291.033,363.909 291.033,363.954 291.700 C 364.014 292.606,364.761 292.606,365.042 291.700 C 365.161 291.315,365.440 290.664,365.662 290.253 C 365.939 289.740,365.930 289.370,365.633 289.073 C 365.395 288.835,365.221 288.271,365.246 287.820 C 365.285 287.145,365.325 287.124,365.476 287.700 C 365.576 288.085,365.806 288.400,365.987 288.400 C 366.535 288.400,366.854 287.094,366.413 286.653 C 366.186 286.426,366.014 285.961,366.032 285.620 C 366.053 285.208,366.131 285.168,366.265 285.500 C 366.638 286.425,367.121 286.011,367.720 284.254 C 368.085 283.183,368.179 282.295,367.963 281.954 C 367.382 281.037,367.527 279.997,368.200 280.255 C 368.701 280.448,368.800 279.983,368.800 277.443 C 368.800 274.689,368.395 273.587,367.865 274.900 C 367.744 275.199,367.650 275.118,367.632 274.700 C 367.614 274.315,367.420 274.000,367.200 274.000 C 366.980 274.000,366.814 273.685,366.832 273.300 C 366.850 272.882,366.944 272.801,367.065 273.100 C 367.608 274.445,368.552 272.946,368.156 271.368 C 367.894 270.325,367.364 270.092,367.088 270.900 C 366.947 271.312,367.012 270.792,367.299 269.207 C 367.625 267.412,366.220 264.210,365.561 265.249 C 365.283 265.689,365.211 265.664,365.206 265.124 C 365.203 264.752,365.380 264.336,365.600 264.200 C 366.139 263.867,366.109 262.514,365.555 262.172 C 365.311 262.021,364.953 262.146,364.761 262.449 C 364.502 262.858,364.411 262.768,364.406 262.100 C 364.403 261.605,364.220 261.200,364.000 261.200 C 363.780 261.200,363.600 260.851,363.600 260.424 C 363.600 259.997,363.780 259.536,364.000 259.400 C 364.220 259.264,364.433 257.858,364.474 256.276 C 364.539 253.765,364.567 253.666,364.695 255.500 C 364.776 256.655,364.989 257.600,365.169 257.600 C 365.616 257.600,366.102 252.348,365.776 251.047 C 365.454 249.764,364.812 249.670,364.768 250.900 C 364.751 251.408,364.643 251.565,364.522 251.261 C 364.404 250.964,364.499 250.334,364.733 249.861 C 364.967 249.387,365.237 248.640,365.333 248.200 C 365.488 247.486,365.512 247.497,365.554 248.300 C 365.579 248.795,365.772 249.200,365.982 249.200 C 366.582 249.200,366.921 246.573,366.437 245.668 C 365.883 244.634,365.838 243.524,366.384 244.388 C 366.839 245.108,367.053 244.923,367.410 243.503 C 367.608 242.713,367.518 242.344,367.087 242.178 C 366.716 242.036,366.569 241.641,366.700 241.140 C 366.862 240.520,366.991 240.456,367.255 240.866 C 367.786 241.688,368.457 240.454,367.972 239.548 C 367.447 238.566,367.505 238.389,368.259 238.678 C 368.796 238.884,368.880 238.733,368.715 237.865 C 368.568 237.100,368.678 236.800,369.102 236.800 C 369.496 236.800,369.624 236.534,369.484 236.000 C 369.363 235.538,369.472 235.200,369.741 235.200 C 370.210 235.200,370.630 234.639,372.038 232.133 C 372.957 230.496,372.983 230.244,372.200 230.545 C 371.870 230.671,371.600 230.601,371.600 230.387 C 371.600 230.174,371.780 229.978,372.000 229.950 C 372.220 229.923,372.625 229.873,372.900 229.839 C 373.175 229.806,373.358 229.385,373.307 228.905 C 373.241 228.277,373.382 228.095,373.807 228.258 C 374.171 228.398,374.400 228.250,374.400 227.876 C 374.400 227.541,374.175 227.176,373.900 227.065 C 373.625 226.954,373.805 226.849,374.300 226.832 C 375.254 226.798,375.544 225.806,374.700 225.465 C 374.425 225.354,374.561 225.249,375.002 225.232 C 375.948 225.194,377.254 222.751,376.468 222.489 C 375.657 222.219,375.961 221.665,376.800 221.884 C 377.621 222.099,377.917 221.443,377.200 221.000 C 376.980 220.864,376.814 220.448,376.832 220.076 C 376.851 219.660,376.941 219.592,377.065 219.900 C 377.299 220.480,378.400 220.582,378.400 220.024 C 378.400 219.817,378.220 219.536,378.000 219.400 C 377.780 219.264,377.621 218.758,377.646 218.276 C 377.684 217.567,377.728 217.537,377.880 218.122 C 378.075 218.875,379.000 218.857,379.000 218.100 C 379.000 217.862,379.151 217.517,379.335 217.333 C 380.035 216.638,380.841 214.214,380.419 214.073 C 380.188 213.996,380.011 213.453,380.025 212.867 L 380.051 211.800 380.469 212.800 C 380.888 213.799,380.889 213.798,381.592 212.200 C 381.979 211.320,382.218 210.465,382.124 210.300 C 381.787 209.709,381.253 210.016,381.082 210.900 C 380.934 211.672,380.901 211.643,380.854 210.700 C 380.825 210.095,380.967 209.600,381.171 209.600 C 381.375 209.600,381.624 209.285,381.724 208.900 C 381.898 208.233,381.909 208.233,381.954 208.900 C 381.979 209.285,382.161 209.600,382.357 209.600 C 382.928 209.600,383.266 208.306,382.813 207.853 C 382.586 207.626,382.403 207.161,382.406 206.820 C 382.412 206.273,382.459 206.271,382.806 206.800 C 383.156 207.333,383.244 207.333,383.594 206.800 C 384.097 206.034,384.098 205.708,383.600 205.400 C 383.380 205.264,383.203 204.848,383.206 204.476 C 383.211 203.904,383.269 203.890,383.584 204.388 C 384.322 205.555,384.753 203.911,384.186 202.094 C 383.967 201.390,384.036 201.239,384.499 201.417 C 386.022 202.001,386.038 196.006,384.521 193.197 C 383.928 192.099,383.298 191.200,383.121 191.200 C 382.945 191.200,382.800 191.016,382.800 190.792 C 382.800 190.568,382.366 189.697,381.836 188.858 C 381.306 188.018,380.811 186.911,380.736 186.397 C 380.538 185.038,379.687 184.956,379.489 186.276 C 379.328 187.347,379.317 187.339,379.260 186.095 C 379.227 185.377,379.406 184.459,379.659 184.055 C 379.925 183.629,379.999 182.851,379.836 182.203 C 379.505 180.883,378.936 181.280,378.691 183.000 C 378.597 183.660,378.493 183.056,378.460 181.657 C 378.413 179.676,378.519 179.160,378.938 179.321 C 379.330 179.471,379.424 179.239,379.287 178.463 C 379.135 177.598,379.197 177.492,379.624 177.895 C 380.258 178.492,381.600 177.490,381.600 176.418 C 381.600 176.056,381.811 175.549,382.069 175.291 C 382.428 174.932,382.428 174.580,382.069 173.792 C 381.811 173.226,381.625 172.276,381.654 171.681 C 381.702 170.738,381.731 170.715,381.882 171.500 C 382.256 173.438,383.190 171.936,383.188 169.400 C 383.187 167.665,382.620 166.887,382.059 167.852 C 381.650 168.555,381.624 168.547,381.612 167.724 C 381.605 167.242,381.780 166.736,382.000 166.600 C 382.225 166.461,382.400 164.537,382.400 162.200 C 382.400 159.863,382.225 157.939,382.000 157.800 C 381.334 157.389,381.537 156.084,382.257 156.144 C 382.618 156.175,382.986 155.997,383.074 155.749 C 383.253 155.243,379.775 151.600,379.113 151.600 C 378.879 151.600,378.471 151.303,378.206 150.941 C 377.864 150.473,377.416 150.359,376.662 150.549 C 375.450 150.853,375.265 151.454,376.300 151.724 C 376.827 151.862,376.777 151.919,376.100 151.954 C 375.421 151.989,375.199 151.779,375.194 151.100 C 375.190 150.437,374.664 149.911,373.194 149.100 L 371.200 148.000 371.200 145.264 C 371.200 142.610,371.152 142.478,369.600 140.895 C 368.720 139.997,368.000 139.154,368.000 139.021 C 368.000 138.476,364.354 135.181,363.996 135.402 C 363.770 135.542,363.719 135.354,363.874 134.951 C 364.075 134.429,363.981 134.322,363.490 134.510 C 363.010 134.694,362.906 134.590,363.090 134.110 C 363.274 133.630,363.170 133.526,362.690 133.710 C 362.231 133.886,362.107 133.788,362.265 133.375 C 362.423 132.962,362.299 132.864,361.840 133.040 C 361.360 133.224,361.256 133.120,361.440 132.640 C 361.624 132.160,361.520 132.056,361.040 132.240 C 360.560 132.424,360.456 132.320,360.640 131.840 C 360.824 131.360,360.720 131.256,360.240 131.440 C 359.778 131.617,359.657 131.518,359.819 131.095 C 360.055 130.480,356.422 126.400,355.639 126.400 C 355.411 126.400,355.327 126.135,355.451 125.810 C 355.737 125.065,354.565 123.851,353.935 124.240 C 353.618 124.436,353.547 124.316,353.716 123.874 C 353.966 123.223,352.513 120.000,351.969 120.000 C 351.814 120.000,351.577 119.564,351.443 119.031 C 351.310 118.498,350.789 117.553,350.286 116.931 C 349.783 116.309,349.018 115.030,348.586 114.088 C 348.012 112.838,347.611 112.423,347.100 112.550 C 346.350 112.738,346.138 112.209,346.800 111.800 C 347.478 111.381,347.242 110.696,346.488 110.893 C 346.097 110.995,345.557 110.844,345.288 110.556 C 344.629 109.851,344.666 109.391,345.337 109.948 C 346.261 110.715,346.360 110.001,345.542 108.470 C 344.325 106.193,343.180 104.904,342.928 105.528 C 342.773 105.911,342.550 105.821,342.117 105.202 C 341.788 104.733,341.627 104.240,341.759 104.107 C 341.892 103.975,342.000 104.077,342.000 104.333 C 342.000 104.590,342.270 104.800,342.600 104.800 C 343.467 104.800,343.337 104.169,342.298 103.329 C 341.802 102.928,341.168 102.087,340.889 101.460 C 340.609 100.833,340.020 100.226,339.579 100.110 C 339.046 99.971,338.850 99.674,338.992 99.224 C 339.262 98.376,337.464 96.590,336.771 97.018 C 336.414 97.238,336.352 97.044,336.541 96.294 C 336.743 95.488,336.563 95.069,335.699 94.331 C 335.095 93.815,334.340 92.892,334.023 92.279 C 333.706 91.667,332.581 90.356,331.523 89.367 C 330.465 88.378,329.600 87.396,329.600 87.185 C 329.600 86.268,323.922 81.212,322.883 81.204 C 322.599 81.202,321.969 80.828,321.483 80.373 C 320.866 79.794,320.274 79.609,319.518 79.759 C 318.638 79.933,318.482 79.851,318.685 79.323 C 318.894 78.779,318.728 78.714,317.667 78.927 C 316.664 79.127,316.400 79.046,316.400 78.536 C 316.400 78.002,316.091 77.934,314.603 78.138 C 313.290 78.318,312.832 78.251,312.903 77.892 C 312.968 77.563,312.287 77.359,310.848 77.277 C 309.127 77.179,308.740 77.268,308.914 77.719 C 309.088 78.173,308.595 78.279,306.410 78.259 C 304.357 78.240,303.737 78.107,303.887 77.717 C 304.023 77.363,303.695 77.200,302.843 77.200 C 302.014 77.200,301.600 77.397,301.600 77.790 M272.472 113.300 C 272.542 113.795,272.780 114.200,273.000 114.200 C 273.220 114.200,273.458 113.795,273.528 113.300 C 273.616 112.681,273.451 112.400,273.000 112.400 C 272.549 112.400,272.384 112.681,272.472 113.300 M270.256 120.678 C 269.932 121.001,269.925 122.538,270.243 123.367 C 270.687 124.526,271.200 124.020,271.200 122.424 C 271.200 120.904,270.789 120.144,270.256 120.678 M271.754 158.577 C 271.435 159.407,271.718 160.506,272.300 160.700 C 272.638 160.813,272.800 160.402,272.800 159.433 C 272.800 158.001,272.172 157.487,271.754 158.577 M382.800 162.200 C 382.800 163.667,382.974 164.800,383.200 164.800 C 383.426 164.800,383.600 163.667,383.600 162.200 C 383.600 160.733,383.426 159.600,383.200 159.600 C 382.974 159.600,382.800 160.733,382.800 162.200 M381.076 175.100 C 380.975 175.485,380.893 175.170,380.893 174.400 C 380.893 173.630,380.975 173.315,381.076 173.700 C 381.176 174.085,381.176 174.715,381.076 175.100 M272.554 182.975 C 272.239 183.796,272.683 184.919,273.197 184.602 C 273.419 184.465,273.600 184.014,273.600 183.600 C 273.600 182.615,272.862 182.173,272.554 182.975 M271.784 186.122 C 271.421 187.568,271.736 190.117,272.300 190.302 C 272.663 190.422,272.800 189.806,272.800 188.057 C 272.800 185.570,272.206 184.439,271.784 186.122 M272.579 192.110 C 272.261 192.939,272.487 194.020,273.000 194.121 C 273.558 194.231,273.760 192.400,273.247 191.887 C 272.953 191.593,272.752 191.660,272.579 192.110 M195.700 266.265 C 194.944 266.570,195.100 267.114,196.029 267.409 C 196.545 267.573,197.127 267.428,197.573 267.025 C 198.269 266.395,200.159 266.688,200.792 267.525 C 201.814 268.876,209.147 269.482,208.645 268.174 C 208.389 267.506,209.784 267.701,210.580 268.445 C 210.789 268.640,211.284 268.800,211.680 268.800 C 212.076 268.800,212.400 268.980,212.400 269.200 C 212.400 269.420,212.593 269.600,212.828 269.600 C 213.063 269.600,214.041 270.140,215.000 270.800 C 215.959 271.460,216.909 272.000,217.110 272.000 C 217.311 272.000,217.802 272.360,218.200 272.800 C 218.598 273.240,219.166 273.600,219.462 273.600 C 219.758 273.600,220.000 273.736,220.000 273.902 C 220.000 274.069,220.524 274.437,221.164 274.720 C 222.610 275.360,223.010 276.252,221.972 276.523 C 221.480 276.652,221.200 276.521,221.200 276.163 C 221.200 275.754,220.652 275.600,219.200 275.600 C 217.867 275.600,217.200 275.767,217.200 276.100 C 217.201 276.475,216.239 276.565,213.349 276.460 C 211.230 276.382,209.385 276.485,209.249 276.688 C 209.112 276.890,208.550 276.926,208.000 276.768 C 207.164 276.527,207.131 276.469,207.800 276.412 L 208.600 276.344 207.800 276.000 C 206.168 275.299,198.536 275.537,197.112 276.334 C 195.478 277.248,191.961 277.797,192.103 277.116 C 192.156 276.858,191.840 276.583,191.400 276.503 C 190.960 276.424,190.224 276.173,189.765 275.947 C 188.692 275.417,186.571 275.651,186.695 276.285 C 186.762 276.626,186.523 276.672,185.895 276.439 C 185.403 276.257,185.000 275.859,185.000 275.554 C 185.000 275.152,184.293 274.967,182.419 274.879 L 179.838 274.758 181.819 273.820 C 182.909 273.305,184.126 272.776,184.525 272.644 C 184.924 272.513,185.149 272.241,185.025 272.040 C 184.901 271.839,185.158 271.769,185.598 271.884 C 186.610 272.148,188.659 271.184,190.428 269.611 C 191.183 268.940,192.213 268.282,192.717 268.148 C 193.222 268.014,193.567 267.702,193.485 267.455 C 193.320 266.959,194.659 266.083,195.600 266.071 C 195.999 266.066,196.032 266.131,195.700 266.265 M123.600 266.800 C 123.600 267.020,123.870 267.200,124.200 267.200 C 124.530 267.200,124.800 267.020,124.800 266.800 C 124.800 266.580,124.530 266.400,124.200 266.400 C 123.870 266.400,123.600 266.580,123.600 266.800 M108.285 271.849 C 107.573 272.561,108.168 272.831,110.205 272.720 C 111.417 272.654,112.452 272.420,112.505 272.200 C 112.614 271.742,108.716 271.417,108.285 271.849 M115.500 273.876 C 115.115 273.976,114.485 273.976,114.100 273.876 C 113.715 273.775,114.030 273.693,114.800 273.693 C 115.570 273.693,115.885 273.775,115.500 273.876 M72.284 286.650 C 71.689 287.244,72.045 287.600,73.233 287.600 C 74.041 287.600,74.410 287.427,74.302 287.100 C 74.115 286.533,72.713 286.220,72.284 286.650 M363.200 293.400 C 363.200 293.767,363.394 294.002,363.630 293.923 C 363.867 293.845,364.060 293.609,364.060 293.400 C 364.060 293.191,363.867 292.955,363.630 292.877 C 363.394 292.798,363.200 293.033,363.200 293.400 M176.000 314.357 C 176.000 314.877,177.057 315.201,178.733 315.195 C 180.647 315.187,182.047 314.800,181.772 314.355 C 181.485 313.890,176.000 313.892,176.000 314.357 M315.200 316.800 C 315.200 317.044,317.067 317.200,320.000 317.200 C 322.933 317.200,324.800 317.044,324.800 316.800 C 324.800 316.556,322.933 316.400,320.000 316.400 C 317.067 316.400,315.200 316.556,315.200 316.800 M78.900 317.095 C 77.745 317.176,75.855 317.176,74.700 317.095 C 73.545 317.014,74.490 316.948,76.800 316.948 C 79.110 316.948,80.055 317.014,78.900 317.095 " stroke="none" fill="#241c24" fill-rule="evenodd"></path></g></svg>