<svg id="svg" version="1.1" xmlns="http://www.w3.org/2000/svg" xmlns:xlink="http://www.w3.org/1999/xlink" width="400" height="266.38655462184875" viewBox="0, 0, 400,266.38655462184875"><g id="svgg"><path id="path0" d="M309.793 2.398 C 309.500 2.524,308.901 2.637,308.461 2.648 C 308.021 2.659,307.318 2.847,306.898 3.066 C 306.478 3.285,306.017 3.464,305.873 3.464 C 305.462 3.464,300.481 5.980,300.067 6.396 C 299.993 6.470,299.397 6.890,298.741 7.329 C 298.085 7.768,295.864 9.807,293.805 11.859 C 285.650 19.986,284.213 21.862,283.009 25.949 C 282.701 26.993,282.276 28.242,282.064 28.723 C 281.852 29.205,281.679 29.830,281.679 30.113 C 281.679 30.396,281.515 31.022,281.314 31.503 C 280.715 32.941,280.312 34.173,280.027 35.443 C 279.878 36.103,279.650 36.756,279.519 36.895 C 279.388 37.035,279.280 37.454,279.279 37.828 C 279.278 38.202,279.114 38.820,278.915 39.201 C 278.716 39.583,278.470 40.449,278.369 41.127 C 278.267 41.805,278.086 42.419,277.968 42.493 C 277.849 42.566,277.670 43.139,277.570 43.765 C 277.470 44.391,277.222 45.443,277.018 46.103 C 274.942 52.826,275.643 55.309,281.014 60.251 C 281.548 60.742,282.014 61.551,282.918 63.553 C 283.479 64.795,283.585 68.172,283.102 69.420 C 282.932 69.860,282.528 71.119,282.205 72.219 C 281.881 73.318,281.465 74.637,281.281 75.150 C 280.888 76.246,280.418 78.001,280.067 79.680 C 279.930 80.340,279.704 81.119,279.566 81.412 C 279.429 81.706,279.240 82.633,279.146 83.473 C 279.053 84.314,278.865 85.071,278.729 85.155 C 277.371 85.994,278.879 91.709,281.292 94.874 L 282.413 96.344 282.405 99.138 C 282.395 102.029,282.980 104.465,283.937 105.522 C 284.709 106.375,284.448 107.481,283.239 108.480 C 281.251 110.123,279.282 112.720,279.279 113.703 C 279.278 113.971,279.098 114.534,278.879 114.954 C 278.410 115.853,278.308 122.296,278.749 123.121 C 278.897 123.397,279.129 124.318,279.264 125.169 C 279.531 126.839,279.961 128.639,280.396 129.913 C 280.547 130.353,280.757 131.216,280.864 131.831 C 281.125 133.340,281.024 133.225,287.146 139.061 C 288.326 140.186,291.175 142.905,293.479 145.103 C 296.288 147.785,297.667 149.285,297.668 149.661 C 297.668 149.970,297.968 150.545,298.334 150.941 C 299.795 152.517,298.074 153.133,285.943 155.383 C 285.137 155.532,283.698 155.820,282.745 156.022 C 281.792 156.224,280.053 156.572,278.881 156.795 C 275.261 157.482,273.841 157.767,273.227 157.929 C 272.715 158.064,272.543 157.878,271.924 156.524 C 270.953 154.397,269.300 152.315,266.771 150.031 C 264.032 147.557,261.824 144.894,260.519 142.489 C 256.820 135.670,253.505 133.445,251.173 136.216 C 249.860 137.777,250.297 138.809,254.768 144.704 C 256.504 146.991,256.807 147.688,256.265 148.138 C 255.969 148.384,255.728 148.316,255.126 147.816 C 253.795 146.710,250.921 144.786,250.316 144.595 C 248.806 144.120,241.718 138.800,235.598 133.550 C 233.762 131.975,233.179 131.561,233.174 131.830 C 233.169 132.095,236.499 138.670,237.197 139.773 C 237.475 140.213,237.786 140.753,237.889 140.973 C 238.750 142.822,240.430 144.705,242.836 146.521 C 245.572 148.586,246.299 149.431,248.494 153.098 C 249.741 155.183,250.728 156.271,253.325 158.428 C 255.871 160.541,256.745 161.402,259.133 164.148 C 260.467 165.683,261.979 167.320,262.492 167.787 C 265.771 170.770,266.862 172.152,265.938 172.152 C 265.235 172.152,262.016 171.555,260.796 171.198 C 260.082 170.990,259.085 170.819,258.579 170.819 C 258.074 170.819,257.443 170.704,257.179 170.562 C 256.914 170.421,256.053 170.196,255.264 170.063 C 254.476 169.930,253.231 169.671,252.498 169.486 C 247.546 168.238,245.558 167.657,244.637 167.188 C 243.208 166.462,241.347 165.756,240.859 165.756 C 240.577 165.756,240.008 165.581,239.594 165.367 C 238.626 164.866,233.473 164.512,232.761 164.898 C 232.201 165.201,231.448 166.536,231.204 167.659 C 231.120 168.046,230.877 168.429,230.665 168.510 C 230.128 168.716,225.740 168.238,225.361 167.932 C 225.190 167.794,224.421 167.597,223.651 167.493 C 222.882 167.390,222.192 167.207,222.117 167.087 C 222.043 166.967,221.494 166.786,220.896 166.685 C 220.299 166.584,219.490 166.334,219.099 166.130 C 218.708 165.926,218.148 165.755,217.855 165.749 C 217.562 165.744,217.089 165.563,216.804 165.348 C 216.520 165.133,216.059 164.957,215.780 164.957 C 215.501 164.957,214.954 164.795,214.565 164.597 C 214.176 164.400,213.406 164.043,212.854 163.805 C 210.157 162.641,206.249 160.833,205.063 160.200 C 201.974 158.551,194.663 160.516,191.739 163.780 C 191.094 164.500,189.475 165.491,187.875 166.146 C 182.953 168.161,182.047 168.661,180.658 170.126 C 179.949 170.874,178.794 171.785,178.092 172.152 C 177.390 172.518,176.755 172.892,176.682 172.982 C 176.609 173.072,176.255 173.238,175.895 173.350 C 175.536 173.463,175.077 173.719,174.877 173.919 C 174.676 174.120,174.296 174.284,174.031 174.284 C 173.766 174.284,173.400 174.464,173.218 174.684 C 173.035 174.903,172.676 175.083,172.418 175.083 C 172.161 175.083,171.801 175.263,171.619 175.483 C 171.436 175.703,171.121 175.883,170.917 175.883 C 170.421 175.883,168.290 177.402,166.867 178.770 C 166.232 179.381,165.611 179.880,165.487 179.880 C 165.363 179.880,165.103 180.033,164.909 180.219 C 164.085 181.013,157.202 185.210,156.725 185.210 C 156.562 185.210,156.429 185.318,156.429 185.450 C 156.429 185.583,156.099 185.821,155.696 185.979 C 155.293 186.138,154.783 186.382,154.564 186.521 C 154.344 186.660,153.384 187.231,152.432 187.790 C 151.479 188.349,150.541 188.957,150.347 189.140 C 150.154 189.324,149.824 189.474,149.615 189.474 C 149.405 189.474,149.234 189.566,149.234 189.679 C 149.234 189.792,148.664 190.182,147.968 190.545 C 147.272 190.909,146.282 191.506,145.768 191.872 C 144.546 192.745,143.916 193.137,143.105 193.534 C 142.738 193.713,142.378 193.922,142.305 193.999 C 142.101 194.211,141.181 194.771,140.440 195.133 C 140.073 195.312,139.714 195.524,139.640 195.604 C 139.504 195.752,138.324 196.542,137.375 197.121 C 137.082 197.299,136.557 197.574,136.208 197.730 C 135.859 197.887,135.202 198.281,134.748 198.608 C 133.795 199.291,133.118 199.707,132.179 200.184 C 131.812 200.370,131.452 200.595,131.379 200.683 C 131.269 200.816,129.667 201.813,126.903 203.470 C 126.653 203.619,125.940 204.070,125.317 204.472 C 122.066 206.570,121.256 206.870,119.688 206.555 C 117.368 206.089,115.577 206.175,114.974 206.783 C 114.165 207.597,113.791 208.086,113.791 208.329 C 113.791 208.830,110.634 211.452,108.820 212.458 C 107.808 213.020,106.299 213.061,105.317 212.553 C 102.922 211.316,99.677 211.728,98.828 213.378 C 97.622 215.720,96.663 216.215,92.921 216.426 C 86.743 216.775,84.682 217.365,82.534 219.402 C 80.356 221.468,78.327 223.051,77.858 223.051 C 77.724 223.051,77.464 223.231,77.282 223.451 C 77.099 223.671,76.725 223.851,76.450 223.851 C 76.175 223.851,75.949 223.963,75.949 224.099 C 75.949 224.236,75.680 224.430,75.350 224.531 C 75.020 224.631,74.570 224.861,74.350 225.043 C 73.965 225.360,72.878 225.629,68.887 226.395 C 67.861 226.592,66.123 226.947,65.023 227.185 C 63.924 227.423,62.285 227.760,61.381 227.933 C 60.477 228.107,59.647 228.338,59.538 228.448 C 58.921 229.065,57.398 228.621,56.095 227.445 C 54.319 225.841,54.400 225.898,53.031 225.266 C 50.644 224.162,48.990 223.851,45.512 223.851 C 42.867 223.851,42.101 223.767,41.839 223.451 C 41.656 223.231,41.392 223.051,41.251 223.051 C 40.431 223.051,32.717 216.492,26.997 210.931 C 26.090 210.049,24.711 208.717,23.933 207.971 C 19.518 203.737,18.388 201.005,18.388 194.566 C 18.388 191.153,18.330 190.678,17.803 189.763 C 16.356 187.248,11.694 186.241,10.184 188.116 C 9.760 188.642,8.528 191.210,8.528 191.567 C 8.528 191.711,8.356 192.168,8.145 192.583 C 7.935 192.998,7.209 194.537,6.533 196.003 C 5.856 197.468,5.128 199.007,4.916 199.422 C 4.704 199.837,4.530 200.317,4.529 200.488 C 4.528 200.659,4.344 201.151,4.119 201.581 C 3.895 202.012,3.601 202.791,3.467 203.314 C 3.333 203.836,3.084 204.803,2.914 205.463 C 2.745 206.123,2.417 207.322,2.186 208.128 C 1.539 210.385,1.574 219.715,2.238 221.719 C 3.254 224.786,3.872 225.784,6.439 228.501 C 9.350 231.581,11.069 233.915,12.538 236.780 C 13.649 238.946,14.780 241.029,14.923 241.173 C 15.208 241.459,16.256 243.559,16.256 243.843 C 16.256 244.007,16.436 244.322,16.656 244.542 C 16.875 244.762,17.055 245.158,17.055 245.423 C 17.055 245.688,17.235 246.053,17.455 246.236 C 17.675 246.418,17.855 246.932,17.855 247.378 C 17.855 248.514,18.608 252.787,19.069 254.266 C 19.281 254.946,19.454 255.642,19.454 255.815 C 19.454 256.482,20.836 259.006,21.707 259.929 C 23.174 261.484,26.988 262.653,27.563 261.723 C 27.643 261.593,28.279 261.402,28.977 261.298 C 29.675 261.194,30.366 261.014,30.513 260.899 C 30.660 260.783,31.177 260.603,31.664 260.499 C 32.150 260.395,32.869 260.142,33.262 259.937 C 33.656 259.731,34.118 259.563,34.289 259.562 C 34.460 259.561,34.940 259.395,35.355 259.193 C 35.770 258.991,36.561 258.635,37.112 258.401 C 39.820 257.254,44.024 255.210,45.170 254.485 C 47.514 253.000,47.768 253.021,49.597 254.840 C 51.906 257.136,53.684 257.565,57.639 256.782 C 64.474 255.429,73.943 256.184,78.638 258.456 C 79.892 259.064,81.011 259.560,81.125 259.560 C 81.239 259.560,81.710 259.731,82.172 259.939 C 86.556 261.917,90.542 261.640,93.833 259.129 L 95.327 257.989 103.693 257.704 C 108.294 257.548,118.294 257.305,125.916 257.165 C 133.538 257.025,140.053 256.843,140.394 256.760 C 140.735 256.676,145.546 256.501,151.085 256.370 C 161.997 256.111,163.000 255.981,165.474 254.504 C 167.130 253.515,173.743 253.007,179.614 253.419 C 181.739 253.568,185.217 253.703,187.342 253.719 C 189.467 253.735,192.345 253.848,193.738 253.971 C 195.130 254.094,199.687 254.319,203.864 254.470 C 208.041 254.621,212.418 254.864,213.591 255.009 C 214.763 255.154,218.721 255.345,222.385 255.434 C 226.049 255.522,230.127 255.701,231.446 255.833 C 232.765 255.964,237.082 256.140,241.039 256.224 C 244.997 256.309,250.606 256.509,253.505 256.669 C 257.485 256.889,259.410 256.883,261.367 256.644 C 267.436 255.903,274.063 254.775,276.446 254.077 C 277.159 253.868,278.048 253.698,278.422 253.698 C 279.067 253.698,281.142 253.180,282.878 252.586 C 283.318 252.436,284.125 252.221,284.672 252.109 C 285.219 251.997,285.831 251.769,286.031 251.603 C 287.231 250.607,288.711 250.905,290.496 252.502 C 293.874 255.524,293.687 255.437,296.658 255.371 C 298.103 255.338,299.903 255.128,300.657 254.904 C 301.412 254.680,302.412 254.497,302.880 254.497 C 303.348 254.497,304.255 254.305,304.897 254.071 C 306.566 253.462,312.218 253.428,314.191 254.016 C 319.404 255.569,335.438 255.604,343.179 254.080 C 344.387 253.842,346.778 253.698,349.516 253.698 C 354.835 253.698,356.059 253.391,359.451 251.207 C 361.659 249.786,364.875 246.217,366.691 243.171 C 367.041 242.585,367.393 242.045,367.474 241.972 C 367.555 241.898,367.808 241.479,368.035 241.039 C 368.263 240.600,368.728 239.700,369.068 239.041 C 369.408 238.381,369.793 237.662,369.922 237.442 C 370.051 237.222,370.226 236.862,370.310 236.642 C 370.394 236.422,370.884 235.343,371.399 234.244 C 373.212 230.371,373.882 228.785,373.893 228.341 C 373.897 228.143,374.077 227.749,374.292 227.464 C 374.507 227.180,374.684 226.694,374.684 226.385 C 374.684 226.076,374.813 225.694,374.971 225.536 C 375.129 225.378,375.358 224.844,375.480 224.350 C 375.603 223.855,375.825 223.091,375.973 222.652 C 377.678 217.616,377.615 212.927,375.753 206.396 C 375.586 205.809,375.270 204.670,375.050 203.864 C 374.830 203.058,374.527 202.039,374.377 201.599 C 373.642 199.449,373.567 198.457,373.730 193.023 C 373.823 189.918,374.011 187.040,374.149 186.627 C 374.286 186.214,374.518 184.857,374.664 183.611 C 374.810 182.365,375.063 180.806,375.227 180.147 C 376.277 175.923,377.342 172.454,377.646 172.266 C 377.776 172.186,377.881 171.940,377.881 171.719 C 377.881 171.498,378.458 170.336,379.163 169.136 C 379.869 167.937,380.716 166.416,381.046 165.756 C 381.377 165.097,381.877 164.197,382.159 163.757 C 382.750 162.833,383.211 161.834,383.211 161.475 C 383.211 161.338,383.322 161.226,383.457 161.226 C 383.591 161.226,383.781 160.866,383.877 160.426 C 383.974 159.987,384.150 159.627,384.269 159.627 C 384.388 159.627,384.560 159.330,384.652 158.966 C 384.743 158.603,385.176 157.698,385.613 156.956 C 386.051 156.213,386.409 155.446,386.409 155.251 C 386.409 155.055,386.589 154.746,386.809 154.564 C 387.029 154.381,387.209 154.106,387.209 153.952 C 387.209 153.799,387.558 152.944,387.984 152.053 C 388.809 150.331,389.482 148.785,390.255 146.835 C 390.516 146.176,390.897 145.318,391.101 144.929 C 391.305 144.540,391.476 144.000,391.481 143.730 C 391.485 143.459,391.665 143.005,391.881 142.721 C 392.096 142.436,392.272 141.975,392.272 141.696 C 392.272 141.417,392.436 140.870,392.637 140.481 C 392.980 139.818,393.242 138.991,394.257 135.376 C 394.840 133.299,395.183 129.128,394.924 127.268 C 394.625 125.130,394.207 124.310,392.098 121.738 C 390.567 119.872,390.281 119.132,389.077 113.924 C 388.520 111.512,388.731 109.581,389.684 108.373 C 390.630 107.174,391.472 105.502,391.472 104.824 C 391.472 104.592,391.648 103.846,391.863 103.167 C 393.052 99.405,393.439 86.575,392.436 84.186 C 391.827 82.738,390.597 81.977,387.800 81.317 C 385.320 80.732,384.071 80.060,381.612 77.987 C 380.252 76.841,380.094 76.394,379.882 73.098 L 379.690 70.113 372.723 62.965 C 368.891 59.033,365.516 55.482,365.223 55.073 C 364.247 53.711,362.688 51.572,362.287 51.045 C 362.070 50.759,361.892 50.369,361.892 50.179 C 361.892 49.989,361.791 49.833,361.668 49.833 C 361.545 49.833,361.304 49.564,361.133 49.234 C 360.961 48.904,360.612 48.311,360.357 47.917 C 358.840 45.569,356.029 40.770,356.029 40.527 C 356.029 40.369,355.938 40.240,355.826 40.240 C 355.714 40.240,355.328 39.610,354.969 38.841 C 354.609 38.071,354.238 37.382,354.144 37.308 C 354.050 37.235,353.286 35.867,352.446 34.268 C 351.606 32.669,350.750 31.191,350.543 30.984 C 350.336 30.777,350.167 30.492,350.167 30.349 C 350.167 30.207,350.045 29.946,349.896 29.769 C 349.242 28.990,347.768 26.934,347.768 26.800 C 347.768 26.617,341.936 18.889,341.521 18.521 C 341.355 18.374,340.926 17.836,340.567 17.325 C 340.208 16.814,339.732 16.200,339.511 15.960 C 337.647 13.944,336.837 13.022,335.963 11.920 C 333.469 8.773,328.641 5.063,327.042 5.063 C 326.887 5.063,326.720 4.972,326.671 4.860 C 326.557 4.598,323.381 3.611,320.986 3.092 C 316.943 2.217,311.064 1.852,309.793 2.398 M280.786 52.965 C 281.012 53.514,281.639 54.564,282.179 55.296 C 283.928 57.672,284.077 58.004,284.077 59.535 C 284.077 61.504,283.036 61.795,282.240 60.048 C 282.088 59.715,281.443 58.803,280.808 58.023 C 278.982 55.782,278.469 51.965,279.993 51.965 C 280.202 51.965,280.559 52.415,280.786 52.965 M198.367 201.215 C 198.931 201.517,199.708 202.062,200.096 202.427 C 201.491 203.740,202.399 203.995,204.439 203.646 C 205.447 203.473,206.581 203.331,206.959 203.331 C 207.337 203.331,207.991 203.127,208.413 202.878 C 209.148 202.444,209.222 202.449,210.224 203.012 C 210.798 203.335,211.551 203.752,211.897 203.938 C 212.452 204.238,213.539 204.891,215.200 205.921 C 215.488 206.099,216.365 206.639,217.151 207.120 C 217.936 207.601,218.895 208.203,219.283 208.457 C 219.670 208.711,220.227 209.043,220.520 209.194 C 220.813 209.345,221.412 209.705,221.852 209.994 C 222.292 210.284,222.921 210.661,223.251 210.833 C 223.581 211.004,223.851 211.246,223.851 211.369 C 223.851 211.492,224.022 211.592,224.231 211.592 C 224.441 211.592,224.771 211.742,224.964 211.926 C 225.158 212.109,225.826 212.591,226.449 212.996 C 227.696 213.806,227.750 213.924,227.213 214.660 C 226.920 215.060,226.247 215.229,223.948 215.479 C 218.939 216.023,216.262 216.459,216.065 216.762 C 215.809 217.154,210.888 217.062,209.098 216.632 C 208.257 216.431,205.530 216.295,202.001 216.280 L 196.269 216.256 194.847 217.014 C 193.289 217.845,192.959 217.848,189.607 217.068 C 180.622 214.975,178.310 214.874,170.686 216.239 C 169.514 216.449,167.990 216.768,167.300 216.947 C 165.868 217.319,165.136 216.986,165.277 216.027 C 165.354 215.504,172.493 211.592,173.370 211.592 C 173.555 211.592,173.746 211.495,173.795 211.376 C 173.917 211.082,180.887 207.678,181.861 207.439 C 182.291 207.333,182.950 207.086,183.327 206.889 C 183.703 206.693,184.221 206.532,184.477 206.531 C 184.734 206.530,184.943 206.417,184.943 206.280 C 184.943 206.144,185.175 205.958,185.459 205.868 C 185.742 205.778,186.707 204.999,187.603 204.136 C 189.104 202.689,189.350 202.554,190.752 202.398 C 193.170 202.130,195.129 201.676,196.132 201.152 C 197.271 200.556,197.131 200.552,198.367 201.215 " stroke="none" fill="#241c24" fill-rule="evenodd"></path><path id="path1" d="M0.000 133.245 L 0.000 266.489 200.000 266.489 L 400.000 266.489 400.000 133.245 L 400.000 0.000 200.000 0.000 L 0.000 0.000 0.000 133.245 M319.520 2.017 C 320.766 2.249,322.145 2.561,322.585 2.711 C 323.025 2.861,323.804 3.071,324.317 3.178 C 324.830 3.285,325.490 3.495,325.783 3.645 C 326.806 4.170,328.186 4.761,328.781 4.930 C 329.111 5.023,329.380 5.211,329.380 5.348 C 329.380 5.484,329.539 5.596,329.732 5.596 C 330.599 5.596,334.900 9.452,337.163 12.258 C 337.695 12.918,338.500 13.855,338.952 14.340 C 339.404 14.826,339.773 15.275,339.773 15.340 C 339.773 15.404,339.983 15.681,340.240 15.955 C 341.389 17.182,342.119 18.055,342.722 18.921 C 343.079 19.434,343.431 19.913,343.504 19.987 C 344.131 20.613,345.636 22.668,345.636 22.896 C 345.636 23.055,345.745 23.185,345.878 23.185 C 346.011 23.185,346.801 24.198,347.634 25.437 C 348.467 26.675,349.317 27.829,349.524 28.001 C 349.731 28.173,349.900 28.405,349.900 28.517 C 349.900 28.629,350.384 29.444,350.975 30.329 C 351.565 31.214,352.510 32.817,353.073 33.890 C 353.635 34.964,354.422 36.442,354.820 37.175 C 355.579 38.571,360.090 46.163,360.890 47.390 C 361.145 47.781,361.437 48.277,361.540 48.491 C 361.759 48.949,363.385 51.338,365.265 53.964 C 366.000 54.990,369.617 58.880,373.303 62.608 C 380.849 70.241,380.813 70.186,380.813 74.214 C 380.813 76.229,380.828 76.275,381.769 77.105 C 382.294 77.569,383.164 78.338,383.701 78.814 C 384.238 79.290,384.872 79.680,385.111 79.680 C 385.349 79.680,385.694 79.860,385.876 80.080 C 386.080 80.325,386.664 80.480,387.391 80.480 C 389.541 80.480,392.084 81.976,393.046 83.807 C 393.666 84.987,393.861 95.377,393.334 99.134 C 392.953 101.848,392.402 104.527,392.055 105.347 C 391.881 105.760,391.739 106.219,391.739 106.368 C 391.739 106.774,389.858 109.527,389.581 109.527 C 389.243 109.527,389.281 112.004,389.633 112.907 C 389.793 113.320,390.025 114.257,390.148 114.990 C 390.698 118.286,391.300 119.811,392.678 121.401 C 394.402 123.392,394.774 123.999,395.458 125.946 C 396.289 128.312,396.160 130.576,394.910 135.510 C 394.762 136.096,394.535 136.995,394.407 137.508 C 394.094 138.755,393.367 140.910,392.909 141.946 C 392.705 142.408,392.538 142.970,392.538 143.196 C 392.538 143.421,392.432 143.672,392.301 143.753 C 392.171 143.833,391.987 144.230,391.892 144.634 C 391.798 145.039,391.545 145.759,391.330 146.236 C 391.115 146.712,390.778 147.492,390.581 147.968 C 390.385 148.444,389.835 149.674,389.360 150.700 C 388.885 151.726,388.274 153.045,388.002 153.631 C 386.878 156.059,386.370 157.117,386.149 157.495 C 386.020 157.715,385.847 158.075,385.764 158.294 C 385.681 158.514,385.501 158.874,385.364 159.094 C 385.227 159.314,385.044 159.674,384.957 159.893 C 384.869 160.113,384.341 161.133,383.783 162.159 C 383.224 163.185,382.257 164.983,381.633 166.156 C 381.009 167.328,380.277 168.648,380.007 169.087 C 379.564 169.808,379.200 170.536,378.007 173.085 C 377.802 173.524,377.553 174.244,377.454 174.684 C 377.356 175.123,377.182 175.603,377.069 175.750 C 376.841 176.044,376.440 177.827,375.870 181.079 C 375.665 182.252,375.376 183.691,375.230 184.277 C 375.083 184.863,374.960 185.943,374.956 186.676 C 374.952 187.408,374.770 189.027,374.550 190.273 C 374.331 191.519,374.151 193.857,374.150 195.470 C 374.148 198.253,374.258 198.885,375.264 201.865 C 375.412 202.305,375.649 203.205,375.790 203.864 C 375.932 204.524,376.152 205.303,376.280 205.596 C 376.408 205.889,376.592 206.729,376.689 207.462 C 376.786 208.195,376.961 208.914,377.079 209.061 C 377.801 209.961,378.185 216.344,377.681 219.054 C 377.327 220.953,376.119 224.857,375.317 226.689 C 375.115 227.151,374.950 227.651,374.950 227.800 C 374.950 227.949,374.785 228.411,374.583 228.826 C 374.381 229.241,374.024 230.032,373.791 230.584 C 372.806 232.907,372.582 233.407,371.657 235.334 C 371.123 236.447,370.686 237.422,370.686 237.500 C 370.686 237.759,368.243 242.068,367.017 243.971 C 365.730 245.968,363.594 248.576,362.292 249.738 C 361.852 250.131,361.110 250.793,360.642 251.209 C 359.881 251.886,358.172 252.850,356.296 253.659 C 354.933 254.246,352.054 254.602,348.301 254.647 C 344.653 254.690,341.416 254.972,337.775 255.566 C 335.567 255.926,319.732 255.929,318.055 255.570 C 317.322 255.413,315.823 255.154,314.724 254.994 C 313.624 254.834,312.605 254.609,312.458 254.493 C 311.948 254.089,309.257 253.938,307.928 254.238 C 305.577 254.770,300.671 255.653,297.616 256.095 C 294.547 256.540,293.056 255.994,290.623 253.536 C 288.577 251.469,288.373 251.408,286.288 252.252 C 284.091 253.141,280.629 254.052,276.616 254.798 C 275.809 254.948,274.567 255.241,273.853 255.450 C 273.140 255.659,272.106 255.829,271.555 255.829 C 271.004 255.829,270.044 256.009,269.420 256.229 C 268.797 256.449,267.793 256.629,267.188 256.629 C 266.584 256.629,265.250 256.807,264.224 257.024 C 262.062 257.482,251.572 257.553,245.170 257.153 C 243.045 257.020,237.317 256.794,232.442 256.651 C 227.566 256.507,223.454 256.314,223.304 256.221 C 223.154 256.128,219.528 255.945,215.246 255.816 C 210.965 255.686,206.143 255.457,204.530 255.306 C 202.918 255.155,198.541 254.913,194.803 254.768 C 191.066 254.623,184.972 254.363,181.262 254.191 C 171.733 253.749,167.549 254.092,164.957 255.526 C 164.737 255.647,164.257 255.910,163.891 256.110 C 162.853 256.675,154.812 257.112,139.816 257.417 C 132.365 257.569,126.160 257.760,126.028 257.841 C 125.896 257.923,119.209 258.102,111.168 258.239 C 95.392 258.509,95.491 258.499,93.822 259.986 C 91.765 261.819,86.373 262.544,83.916 261.319 C 83.447 261.084,82.845 260.893,82.579 260.893 C 82.110 260.893,81.731 260.729,78.614 259.178 C 75.776 257.765,75.294 257.648,69.175 256.878 C 66.781 256.576,60.064 256.991,55.829 257.702 C 53.380 258.114,48.501 256.157,48.501 254.764 C 48.501 254.057,47.486 254.004,46.342 254.651 C 45.698 255.016,44.810 255.492,44.370 255.709 C 43.931 255.926,43.391 256.212,43.171 256.343 C 42.659 256.650,39.701 258.022,37.975 258.752 C 37.242 259.062,36.324 259.491,35.935 259.705 C 35.546 259.918,35.006 260.097,34.736 260.102 C 34.465 260.106,34.011 260.286,33.727 260.501 C 33.442 260.717,33.006 260.893,32.758 260.893 C 32.509 260.893,31.963 261.072,31.543 261.291 C 31.123 261.510,30.584 261.690,30.346 261.691 C 30.107 261.691,29.481 261.872,28.955 262.092 C 27.646 262.639,23.905 262.639,23.451 262.092 C 23.269 261.872,22.978 261.692,22.805 261.692 C 22.300 261.692,20.244 259.515,19.787 258.496 C 18.483 255.591,17.936 253.527,17.561 250.100 C 17.416 248.781,17.111 247.282,16.883 246.769 C 16.234 245.311,14.697 242.263,13.724 240.506 C 13.236 239.627,12.513 238.248,12.115 237.442 C 11.718 236.636,11.048 235.460,10.626 234.830 C 10.205 234.200,9.860 233.570,9.860 233.431 C 9.860 233.292,9.736 233.178,9.585 233.178 C 9.434 233.178,9.233 232.968,9.138 232.712 C 9.043 232.455,8.280 231.526,7.442 230.646 C 3.690 226.705,1.605 223.592,1.596 221.918 C 1.594 221.589,1.416 220.660,1.199 219.853 C 0.431 216.991,0.725 211.471,1.910 206.529 C 2.068 205.869,2.291 204.910,2.405 204.397 C 2.843 202.432,3.358 201.162,6.115 195.247 C 6.856 193.659,7.462 192.259,7.462 192.137 C 7.462 192.015,7.627 191.576,7.829 191.161 C 8.031 190.746,8.414 189.927,8.681 189.340 C 9.567 187.390,10.768 186.542,12.640 186.543 C 17.305 186.543,19.968 189.887,19.247 194.837 C 19.073 196.031,19.034 197.206,19.158 197.541 C 19.279 197.868,19.460 198.775,19.561 199.557 C 19.662 200.339,19.849 201.179,19.978 201.422 C 20.106 201.666,20.461 202.382,20.768 203.013 C 21.572 204.667,22.900 206.122,27.991 210.926 C 33.785 216.394,34.913 217.418,36.649 218.780 C 37.671 219.582,38.813 220.519,39.187 220.861 C 40.647 222.198,43.307 223.403,44.409 223.228 C 48.324 222.603,53.501 224.153,56.431 226.827 L 57.565 227.863 59.362 227.686 C 60.351 227.589,61.285 227.412,61.438 227.292 C 61.592 227.171,62.371 226.952,63.171 226.804 C 65.931 226.292,67.560 225.940,68.911 225.562 C 69.657 225.354,70.739 225.183,71.317 225.183 C 72.897 225.183,80.480 221.169,80.480 220.332 C 80.480 220.215,80.607 220.120,80.762 220.120 C 80.917 220.120,81.536 219.580,82.137 218.919 C 83.320 217.619,84.349 216.981,85.809 216.641 C 86.322 216.522,87.222 216.299,87.808 216.147 C 88.394 215.994,90.228 215.866,91.883 215.862 C 95.852 215.854,97.195 215.250,98.175 213.031 C 98.936 211.310,101.674 210.403,103.369 211.310 C 103.659 211.465,104.173 211.598,104.513 211.604 C 104.852 211.610,105.589 211.779,106.150 211.979 C 107.359 212.411,109.221 211.730,110.858 210.260 C 111.103 210.040,111.727 209.495,112.245 209.048 C 112.764 208.601,113.262 208.001,113.353 207.715 C 113.901 205.992,114.592 205.730,118.583 205.730 C 120.908 205.730,122.352 205.624,122.462 205.447 C 122.558 205.291,122.895 205.049,123.210 204.910 C 123.526 204.770,124.103 204.448,124.493 204.193 C 124.884 203.939,125.783 203.381,126.492 202.954 C 127.201 202.527,127.841 202.105,127.915 202.016 C 127.988 201.927,128.348 201.706,128.714 201.524 C 129.081 201.342,129.740 200.954,130.180 200.660 C 130.620 200.367,131.189 200.054,131.446 199.966 C 131.702 199.877,131.912 199.707,131.912 199.587 C 131.912 199.468,132.155 199.292,132.453 199.198 C 132.921 199.049,135.247 197.638,136.050 197.015 C 136.201 196.898,136.779 196.569,137.336 196.283 C 137.892 195.997,138.597 195.548,138.902 195.284 C 139.206 195.020,139.617 194.803,139.814 194.803 C 140.012 194.803,140.173 194.692,140.173 194.555 C 140.173 194.418,140.413 194.230,140.706 194.137 C 141.155 193.995,143.392 192.626,144.304 191.937 C 144.450 191.826,144.870 191.587,145.237 191.406 C 146.087 190.985,146.848 190.496,147.310 190.073 C 147.509 189.890,147.777 189.740,147.904 189.740 C 148.030 189.740,148.922 189.201,149.886 188.541 C 150.849 187.881,151.710 187.342,151.798 187.342 C 151.886 187.342,152.951 186.742,154.164 186.009 C 155.377 185.276,156.503 184.677,156.666 184.677 C 156.829 184.677,156.962 184.569,156.962 184.436 C 156.962 184.304,157.292 184.064,157.695 183.903 C 158.098 183.741,158.787 183.371,159.227 183.080 C 159.667 182.789,160.198 182.468,160.408 182.368 C 160.746 182.205,162.608 181.017,163.988 180.083 C 165.413 179.119,167.021 177.814,167.535 177.205 C 167.854 176.828,170.220 175.446,172.792 174.135 C 175.364 172.825,177.743 171.609,178.078 171.435 C 178.414 171.260,179.438 170.391,180.354 169.503 C 181.270 168.615,182.197 167.888,182.415 167.888 C 182.633 167.888,182.811 167.776,182.811 167.640 C 182.811 167.503,183.081 167.315,183.411 167.222 C 183.741 167.128,184.370 166.892,184.810 166.697 C 185.250 166.502,186.059 166.150,186.609 165.916 C 189.322 164.759,190.521 164.081,191.608 163.091 C 193.365 161.492,193.960 161.072,195.603 160.270 C 199.985 158.131,202.648 158.269,208.261 160.923 C 211.065 162.249,211.922 162.642,213.191 163.183 C 213.704 163.402,214.709 163.830,215.424 164.135 C 216.138 164.441,216.874 164.690,217.059 164.690 C 217.243 164.690,217.738 164.869,218.157 165.088 C 218.577 165.307,219.161 165.491,219.454 165.497 C 219.747 165.504,220.286 165.680,220.653 165.889 C 221.019 166.099,221.619 166.275,221.985 166.281 C 222.352 166.287,222.995 166.472,223.415 166.691 C 223.835 166.909,224.520 167.089,224.938 167.089 C 225.356 167.089,226.211 167.260,226.839 167.469 C 229.452 168.339,230.591 168.045,230.895 166.423 C 231.456 163.435,234.573 163.093,241.640 165.246 C 243.318 165.757,243.502 165.830,245.125 166.644 C 245.613 166.888,246.213 167.089,246.457 167.090 C 246.702 167.091,247.214 167.255,247.596 167.454 C 247.977 167.653,248.877 167.904,249.594 168.011 C 250.312 168.119,251.019 168.285,251.166 168.380 C 251.312 168.476,252.152 168.698,253.031 168.874 C 253.911 169.051,255.470 169.370,256.496 169.585 C 257.522 169.800,259.081 170.115,259.960 170.286 C 260.839 170.457,262.169 170.767,262.915 170.975 C 265.491 171.693,265.448 171.506,262.344 168.487 C 260.724 166.912,258.925 165.030,258.347 164.305 C 257.768 163.581,256.920 162.621,256.462 162.173 C 254.825 160.575,252.329 158.294,252.215 158.294 C 252.055 158.294,251.241 157.568,249.946 156.270 C 248.902 155.223,248.529 154.699,247.784 153.231 C 247.598 152.865,247.377 152.505,247.293 152.432 C 247.209 152.358,246.857 151.832,246.511 151.263 C 245.664 149.870,244.345 148.539,242.105 146.815 C 241.079 146.025,240.080 145.162,239.884 144.897 C 239.689 144.633,239.324 144.211,239.074 143.960 C 238.066 142.949,236.421 140.045,233.072 133.365 C 231.526 130.283,230.638 129.282,226.782 126.280 C 225.976 125.652,225.077 124.914,224.783 124.639 C 224.490 124.364,223.931 123.971,223.541 123.767 C 222.316 123.125,221.719 122.116,221.719 120.688 C 221.719 119.699,221.517 119.065,220.859 117.992 C 219.298 115.445,215.612 110.095,214.528 108.805 C 214.379 108.628,214.257 108.373,214.257 108.238 C 214.257 108.104,214.077 107.844,213.857 107.662 C 213.281 107.184,213.363 106.896,214.130 106.704 C 214.632 106.578,214.954 106.695,215.401 107.165 C 216.500 108.320,217.988 110.279,217.988 110.571 C 217.988 110.730,218.100 110.859,218.237 110.859 C 218.373 110.859,218.569 111.129,218.672 111.459 C 218.775 111.789,218.940 112.119,219.039 112.192 C 219.139 112.265,219.752 113.159,220.403 114.178 C 223.711 119.360,224.436 120.063,225.200 118.827 C 225.648 118.102,227.422 118.255,228.613 119.122 C 229.504 119.771,229.943 119.930,230.478 119.798 C 230.864 119.704,231.959 119.457,232.911 119.250 C 236.398 118.494,238.203 118.047,241.572 117.108 C 242.305 116.903,243.624 116.547,244.504 116.317 C 245.383 116.086,246.702 115.728,247.435 115.522 C 248.168 115.315,249.667 114.898,250.766 114.594 C 251.865 114.290,253.304 113.865,253.964 113.649 C 255.443 113.163,256.270 113.150,256.549 113.607 C 256.666 113.799,257.602 114.661,258.628 115.523 C 259.654 116.384,260.808 117.396,261.193 117.772 C 261.578 118.147,262.456 118.928,263.144 119.507 C 263.832 120.087,264.665 120.806,264.994 121.106 C 265.323 121.407,266.413 122.372,267.416 123.251 C 268.420 124.131,269.540 125.121,269.906 125.453 C 270.272 125.785,271.182 126.587,271.928 127.235 C 272.674 127.883,273.601 128.691,273.988 129.030 C 276.914 131.597,278.084 132.634,278.454 132.989 C 278.689 133.216,279.836 134.235,281.003 135.255 C 282.171 136.274,283.433 137.408,283.808 137.775 C 285.096 139.032,287.038 140.499,287.200 140.337 C 287.389 140.148,285.246 138.041,284.866 138.041 C 284.725 138.041,284.610 137.861,284.610 137.642 C 284.610 137.422,284.490 137.242,284.344 137.242 C 284.034 137.242,283.012 136.271,283.011 135.976 C 283.010 135.866,282.645 135.536,282.198 135.243 C 281.206 134.591,280.346 133.272,280.346 132.400 C 280.346 132.044,280.236 131.638,280.100 131.499 C 279.965 131.360,279.729 130.646,279.576 129.913 C 279.422 129.181,279.160 127.921,278.994 127.115 C 278.827 126.309,278.571 125.421,278.425 125.142 C 277.274 122.948,277.635 115.271,279.019 112.521 C 279.797 110.974,282.057 108.195,282.537 108.195 C 283.415 108.195,284.067 106.607,283.411 106.063 C 283.191 105.880,283.011 105.530,283.011 105.284 C 283.011 105.038,282.867 104.692,282.691 104.516 C 282.047 103.872,281.582 101.624,281.551 99.001 C 281.520 96.374,281.506 96.318,280.567 95.094 C 277.973 91.711,277.104 87.320,278.307 83.669 C 278.523 83.014,278.784 81.939,278.887 81.279 C 278.990 80.620,279.164 79.960,279.274 79.813 C 279.384 79.667,279.550 78.959,279.644 78.241 C 279.737 77.523,279.923 76.804,280.056 76.642 C 280.190 76.481,280.385 75.869,280.491 75.283 C 280.597 74.697,280.808 73.977,280.961 73.684 C 281.114 73.391,281.326 72.732,281.433 72.219 C 281.640 71.221,282.057 69.958,282.646 68.545 C 283.510 66.475,282.240 62.362,280.135 60.406 C 275.512 56.113,275.476 56.041,275.631 51.288 C 275.694 49.338,275.928 47.139,276.169 46.236 C 276.403 45.356,276.734 44.097,276.903 43.438 C 277.072 42.778,277.376 41.845,277.579 41.363 C 277.782 40.882,277.948 40.241,277.948 39.938 C 277.948 39.635,278.110 39.010,278.308 38.548 C 278.670 37.704,279.067 36.334,279.592 34.111 C 279.748 33.451,279.975 32.787,280.097 32.634 C 280.219 32.482,280.440 31.882,280.588 31.302 C 281.199 28.907,282.004 26.383,282.646 24.841 C 282.847 24.360,283.011 23.791,283.011 23.578 C 283.011 21.884,293.841 10.001,298.194 6.918 C 298.703 6.557,299.281 6.113,299.479 5.929 C 299.677 5.746,300.000 5.596,300.197 5.596 C 300.394 5.596,300.595 5.495,300.644 5.371 C 300.839 4.877,305.239 2.799,307.662 2.058 C 309.542 1.482,316.511 1.458,319.520 2.017 M280.097 54.603 C 280.081 55.946,280.938 57.570,282.222 58.628 C 282.311 58.701,282.464 58.978,282.563 59.244 C 282.661 59.510,282.873 59.646,283.033 59.547 C 283.580 59.209,282.988 57.491,281.789 55.933 C 281.140 55.089,280.497 54.121,280.361 53.782 C 280.162 53.284,280.110 53.442,280.097 54.603 M195.768 202.129 C 194.793 202.647,194.106 202.800,192.724 202.807 C 190.549 202.818,189.407 203.313,187.633 205.013 C 186.916 205.700,186.208 206.262,186.058 206.262 C 185.909 206.262,185.747 206.358,185.698 206.474 C 185.547 206.835,183.360 207.861,182.743 207.861 C 182.293 207.861,173.544 211.967,171.352 213.207 C 171.133 213.331,169.905 213.947,168.625 214.576 C 166.156 215.788,165.293 216.622,166.884 216.258 C 167.363 216.149,168.294 215.962,168.954 215.842 C 169.614 215.723,170.693 215.501,171.352 215.349 C 174.737 214.568,184.616 214.698,186.192 215.544 C 186.512 215.715,187.085 215.856,187.466 215.856 C 187.847 215.856,188.595 216.039,189.130 216.262 C 190.521 216.843,193.690 216.894,194.826 216.354 C 197.333 215.162,199.967 214.836,203.198 215.318 C 204.370 215.493,206.589 215.738,208.128 215.861 C 209.667 215.985,211.740 216.172,212.735 216.277 C 213.827 216.392,214.935 216.355,215.533 216.183 C 216.077 216.026,217.166 215.708,217.952 215.477 C 218.738 215.246,220.160 215.057,221.112 215.057 C 222.779 215.057,226.518 214.335,226.514 214.014 C 226.513 213.928,226.063 213.559,225.515 213.194 C 224.966 212.828,224.457 212.469,224.384 212.394 C 224.193 212.200,223.254 211.621,222.785 211.407 C 222.565 211.307,221.817 210.828,221.122 210.343 C 220.427 209.858,219.785 209.460,219.695 209.460 C 219.605 209.460,219.034 209.125,218.426 208.715 C 217.819 208.305,217.142 207.881,216.922 207.772 C 216.702 207.663,216.282 207.426,215.989 207.246 C 215.696 207.065,214.972 206.620,214.380 206.257 C 213.788 205.894,213.069 205.445,212.781 205.261 C 212.494 205.077,211.959 204.779,211.592 204.598 C 211.226 204.418,210.768 204.119,210.574 203.934 C 210.095 203.477,208.321 203.510,207.154 203.997 C 205.044 204.879,199.877 204.249,199.865 203.110 C 199.862 202.866,198.262 201.824,197.581 201.623 C 197.238 201.521,196.548 201.714,195.768 202.129 " stroke="none" fill="#fbfbfb" fill-rule="evenodd"></path><path id="path2" d="M214.459 107.728 C 214.542 108.058,214.692 108.388,214.791 108.461 C 214.952 108.579,215.430 109.245,217.567 112.325 C 217.872 112.765,218.211 113.165,218.321 113.213 C 218.431 113.262,218.521 113.476,218.521 113.688 C 218.521 113.900,218.701 114.143,218.921 114.227 C 219.141 114.312,219.320 114.539,219.320 114.733 C 219.320 114.927,219.476 115.244,219.665 115.437 C 220.783 116.579,222.099 119.305,222.139 120.562 C 222.183 121.955,222.687 122.608,225.140 124.450 C 227.498 126.222,229.216 127.693,231.154 129.598 C 232.319 130.744,233.471 131.824,233.714 131.997 C 233.956 132.170,234.804 132.869,235.598 133.550 C 241.718 138.800,248.806 144.120,250.316 144.595 C 250.921 144.786,253.795 146.710,255.126 147.816 C 255.728 148.316,255.969 148.384,256.265 148.138 C 256.807 147.688,256.504 146.991,254.768 144.704 C 250.297 138.809,249.860 137.777,251.173 136.216 C 253.505 133.445,256.820 135.670,260.519 142.489 C 261.824 144.894,264.032 147.557,266.771 150.031 C 269.300 152.315,270.953 154.397,271.924 156.524 C 272.543 157.878,272.715 158.064,273.227 157.929 C 273.841 157.767,275.261 157.482,278.881 156.795 C 280.053 156.572,281.792 156.224,282.745 156.022 C 283.698 155.820,285.137 155.532,285.943 155.383 C 299.444 152.880,300.708 152.258,297.034 149.929 C 296.256 149.436,295.483 148.786,293.669 147.102 C 293.117 146.589,292.322 145.876,291.902 145.518 C 291.160 144.884,287.556 141.705,285.676 140.024 C 285.163 139.566,283.724 138.299,282.478 137.210 C 278.461 133.697,273.343 129.192,271.027 127.128 C 269.786 126.022,268.351 124.757,267.839 124.317 C 267.327 123.877,266.304 122.966,265.566 122.293 C 264.828 121.619,263.875 120.780,263.448 120.427 C 263.021 120.075,262.062 119.231,261.316 118.552 C 260.570 117.873,259.556 116.981,259.063 116.570 C 258.569 116.159,257.670 115.358,257.064 114.791 C 256.314 114.089,255.793 113.800,255.430 113.888 C 254.551 114.099,252.062 114.784,250.500 115.245 C 249.694 115.482,247.678 116.029,246.020 116.460 C 244.363 116.891,242.902 117.308,242.774 117.387 C 242.646 117.466,242.023 117.634,241.390 117.760 C 240.758 117.886,238.861 118.345,237.175 118.779 C 230.268 120.560,229.782 120.603,228.277 119.567 C 227.012 118.696,226.849 118.692,225.198 119.488 L 223.884 120.123 223.383 119.555 C 222.930 119.040,222.483 118.391,221.526 116.855 C 221.344 116.562,221.119 116.113,221.026 115.856 C 220.933 115.600,220.758 115.390,220.636 115.390 C 220.423 115.390,219.911 114.573,219.341 113.324 C 219.190 112.995,218.944 112.725,218.794 112.725 C 218.644 112.725,218.521 112.598,218.521 112.444 C 218.521 111.792,215.011 107.129,214.521 107.129 C 214.403 107.129,214.375 107.398,214.459 107.728 " stroke="none" fill="#d4244b" fill-rule="evenodd"></path><path id="path3" d="M307.662 2.058 C 306.143 2.523,305.270 2.877,303.443 3.769 C 301.285 4.823,300.737 5.137,300.644 5.371 C 300.595 5.495,300.394 5.596,300.197 5.596 C 300.000 5.596,299.677 5.746,299.479 5.929 C 299.281 6.113,298.703 6.557,298.194 6.918 C 293.841 10.001,283.011 21.884,283.011 23.578 C 283.011 23.791,282.847 24.360,282.646 24.841 C 282.004 26.383,281.199 28.907,280.588 31.302 C 280.440 31.882,280.219 32.482,280.097 32.634 C 279.975 32.787,279.748 33.451,279.592 34.111 C 279.067 36.334,278.670 37.704,278.308 38.548 C 278.110 39.010,277.948 39.635,277.948 39.938 C 277.948 40.241,277.782 40.882,277.579 41.363 C 277.376 41.845,277.072 42.778,276.903 43.438 C 276.734 44.097,276.409 45.356,276.180 46.236 C 275.952 47.115,275.727 48.554,275.680 49.434 C 275.633 50.313,275.645 50.733,275.706 50.366 C 275.950 48.907,276.424 46.700,276.763 45.436 C 277.458 42.851,278.234 40.093,278.600 38.907 C 278.804 38.248,279.173 36.989,279.421 36.109 C 279.669 35.230,280.203 33.491,280.609 32.245 C 281.014 30.999,281.618 29.081,281.951 27.981 C 283.859 21.675,284.182 21.206,292.738 12.304 C 297.990 6.840,302.883 3.707,308.413 2.267 C 311.896 1.359,321.422 2.206,324.983 3.739 C 325.276 3.866,326.176 4.240,326.982 4.571 C 330.813 6.145,333.212 8.051,336.885 12.441 C 337.521 13.201,338.889 14.820,339.925 16.038 C 342.935 19.579,347.058 25.058,350.018 29.447 C 351.274 31.311,351.459 31.621,352.479 33.578 C 353.807 36.127,355.238 38.652,357.735 42.853 C 359.069 45.097,360.280 47.136,360.426 47.385 C 363.476 52.557,365.751 55.341,372.807 62.530 C 380.533 70.401,379.951 69.566,380.313 73.309 C 380.659 76.891,380.523 76.592,382.565 78.282 C 384.530 79.908,385.888 80.619,387.475 80.852 C 392.611 81.604,393.205 82.683,393.205 91.272 C 393.205 100.960,392.307 105.622,389.837 108.766 C 388.893 109.967,388.843 111.262,389.611 114.554 C 390.616 118.857,390.961 119.721,392.397 121.519 C 395.385 125.262,395.953 127.214,395.317 131.569 C 394.698 135.806,392.552 142.779,390.412 147.502 C 390.279 147.795,389.852 148.754,389.464 149.634 C 389.075 150.513,388.456 151.870,388.089 152.649 C 387.721 153.427,387.473 154.118,387.538 154.182 C 387.603 154.247,387.845 153.910,388.076 153.433 C 388.830 151.875,390.216 148.853,390.581 147.968 C 390.778 147.492,391.115 146.712,391.330 146.236 C 391.545 145.759,391.798 145.039,391.892 144.634 C 391.987 144.230,392.171 143.833,392.301 143.753 C 392.432 143.672,392.538 143.421,392.538 143.196 C 392.538 142.970,392.705 142.408,392.909 141.946 C 393.367 140.910,394.094 138.755,394.407 137.508 C 394.535 136.995,394.762 136.096,394.910 135.510 C 396.160 130.576,396.289 128.312,395.458 125.946 C 394.774 123.999,394.402 123.392,392.678 121.401 C 391.300 119.811,390.698 118.286,390.148 114.990 C 390.025 114.257,389.793 113.320,389.633 112.907 C 389.281 112.004,389.243 109.527,389.581 109.527 C 389.858 109.527,391.739 106.774,391.739 106.368 C 391.739 106.219,391.881 105.760,392.055 105.347 C 394.326 99.968,394.229 84.196,391.914 82.266 C 390.827 81.360,388.599 80.480,387.391 80.480 C 386.664 80.480,386.080 80.325,385.876 80.080 C 385.694 79.860,385.349 79.680,385.111 79.680 C 384.872 79.680,384.238 79.290,383.701 78.814 C 383.164 78.338,382.294 77.569,381.769 77.105 C 380.828 76.275,380.813 76.229,380.813 74.214 C 380.813 70.186,380.849 70.241,373.303 62.608 C 369.617 58.880,366.000 54.990,365.265 53.964 C 363.385 51.338,361.759 48.949,361.540 48.491 C 361.437 48.277,361.145 47.781,360.890 47.390 C 360.090 46.163,355.579 38.571,354.820 37.175 C 354.422 36.442,353.635 34.964,353.073 33.890 C 352.510 32.817,351.565 31.214,350.975 30.329 C 350.384 29.444,349.900 28.629,349.900 28.517 C 349.900 28.405,349.731 28.173,349.524 28.001 C 349.317 27.829,348.467 26.675,347.634 25.437 C 346.801 24.198,346.011 23.185,345.878 23.185 C 345.745 23.185,345.636 23.055,345.636 22.896 C 345.636 22.668,344.131 20.613,343.504 19.987 C 343.431 19.913,343.079 19.434,342.722 18.921 C 342.119 18.055,341.389 17.182,340.240 15.955 C 339.983 15.681,339.773 15.404,339.773 15.340 C 339.773 15.275,339.404 14.826,338.952 14.340 C 338.500 13.855,337.695 12.918,337.163 12.258 C 334.900 9.452,330.599 5.596,329.732 5.596 C 329.539 5.596,329.380 5.484,329.380 5.348 C 329.380 5.211,329.111 5.023,328.781 4.930 C 328.186 4.761,326.806 4.170,325.783 3.645 C 325.490 3.495,324.830 3.285,324.317 3.178 C 323.804 3.071,323.025 2.861,322.585 2.711 C 319.284 1.585,310.466 1.199,307.662 2.058 M279.851 53.119 C 279.290 53.796,279.760 56.085,280.715 57.327 C 281.172 57.921,281.824 58.786,282.163 59.249 C 282.820 60.145,283.490 60.636,283.730 60.396 C 284.165 59.961,283.421 57.712,282.332 56.170 C 281.681 55.250,280.931 54.098,280.665 53.610 C 280.251 52.852,280.132 52.781,279.851 53.119 M275.580 53.997 C 275.530 55.374,276.474 57.063,278.095 58.494 C 281.096 61.144,281.626 61.886,282.574 64.757 C 282.791 65.416,282.977 65.716,282.986 65.423 C 283.032 64.015,281.214 60.559,279.977 59.703 C 277.650 58.091,276.238 56.194,275.804 54.097 L 275.611 53.165 275.580 53.997 M281.789 55.933 C 282.988 57.491,283.580 59.209,283.033 59.547 C 282.873 59.646,282.661 59.510,282.563 59.244 C 282.464 58.978,282.311 58.701,282.222 58.628 C 280.938 57.570,280.081 55.946,280.097 54.603 C 280.110 53.442,280.162 53.284,280.361 53.782 C 280.497 54.121,281.140 55.089,281.789 55.933 M282.570 68.642 C 282.417 69.070,282.142 69.840,281.959 70.353 C 281.776 70.866,281.539 71.706,281.433 72.219 C 281.326 72.732,281.114 73.391,280.961 73.684 C 280.808 73.977,280.597 74.697,280.491 75.283 C 280.385 75.869,280.190 76.481,280.056 76.642 C 279.923 76.804,279.737 77.523,279.644 78.241 C 279.550 78.959,279.384 79.667,279.274 79.813 C 279.164 79.960,278.990 80.620,278.887 81.279 C 278.784 81.939,278.523 83.014,278.307 83.669 C 277.104 87.320,277.973 91.711,280.567 95.094 C 281.506 96.318,281.520 96.374,281.551 99.001 C 281.583 101.691,282.055 103.903,282.730 104.529 C 283.026 104.804,283.055 104.769,282.891 104.330 C 281.794 101.394,281.490 99.221,281.980 97.815 C 282.262 97.007,282.209 96.851,281.172 95.444 C 278.331 91.589,277.534 88.085,278.577 84.022 C 278.794 83.173,279.173 81.639,279.418 80.613 C 279.662 79.587,280.022 78.208,280.216 77.548 C 280.410 76.889,280.832 75.450,281.153 74.350 C 281.475 73.251,282.033 71.478,282.394 70.411 C 282.754 69.343,283.004 68.333,282.949 68.166 C 282.893 67.999,282.722 68.213,282.570 68.642 M283.011 105.328 C 283.011 105.550,283.191 105.880,283.411 106.063 C 284.067 106.607,283.415 108.195,282.537 108.195 C 282.057 108.195,279.797 110.974,279.019 112.521 C 277.635 115.271,277.274 122.948,278.425 125.142 C 278.571 125.421,278.827 126.309,278.994 127.115 C 279.160 127.921,279.422 129.181,279.576 129.913 C 279.729 130.646,279.965 131.360,280.100 131.499 C 280.236 131.638,280.346 132.044,280.346 132.400 C 280.346 133.272,281.206 134.591,282.198 135.243 C 282.645 135.536,283.010 135.866,283.011 135.976 C 283.012 136.271,284.034 137.242,284.344 137.242 C 284.490 137.242,284.610 137.422,284.610 137.642 C 284.610 137.861,284.725 138.041,284.866 138.041 C 285.246 138.041,287.389 140.148,287.200 140.337 C 287.038 140.499,285.096 139.032,283.808 137.775 C 283.433 137.408,282.171 136.274,281.003 135.255 C 279.836 134.235,278.689 133.216,278.454 132.989 C 278.084 132.634,276.914 131.597,273.988 129.030 C 273.601 128.691,272.674 127.883,271.928 127.235 C 271.182 126.587,270.272 125.785,269.906 125.453 C 269.540 125.121,268.420 124.131,267.416 123.251 C 266.413 122.372,265.323 121.407,264.994 121.106 C 264.665 120.806,263.832 120.087,263.144 119.507 C 262.456 118.928,261.578 118.147,261.193 117.772 C 260.808 117.396,259.654 116.384,258.628 115.523 C 257.602 114.661,256.666 113.799,256.549 113.607 C 256.270 113.150,255.443 113.163,253.964 113.649 C 253.304 113.865,251.865 114.290,250.766 114.594 C 249.667 114.898,248.168 115.315,247.435 115.522 C 246.702 115.728,245.383 116.086,244.504 116.317 C 243.624 116.547,242.305 116.903,241.572 117.108 C 238.203 118.047,236.398 118.494,232.911 119.250 C 231.959 119.457,230.864 119.704,230.478 119.798 C 229.943 119.930,229.504 119.771,228.613 119.122 C 227.422 118.255,225.648 118.102,225.200 118.827 C 224.436 120.063,223.711 119.360,220.403 114.178 C 219.752 113.159,219.139 112.265,219.039 112.192 C 218.940 112.119,218.775 111.789,218.672 111.459 C 218.569 111.129,218.373 110.859,218.237 110.859 C 218.100 110.859,217.988 110.730,217.988 110.571 C 217.988 110.279,216.500 108.320,215.401 107.165 C 214.954 106.695,214.632 106.578,214.130 106.704 C 213.363 106.896,213.281 107.184,213.857 107.662 C 214.077 107.844,214.257 108.104,214.257 108.238 C 214.257 108.373,214.379 108.628,214.528 108.805 C 215.612 110.095,219.298 115.445,220.859 117.992 C 221.517 119.065,221.719 119.699,221.719 120.688 C 221.719 122.116,222.316 123.125,223.541 123.767 C 223.931 123.971,224.490 124.364,224.783 124.639 C 225.077 124.914,225.976 125.652,226.782 126.280 C 230.638 129.282,231.526 130.283,233.072 133.365 C 236.421 140.045,238.066 142.949,239.074 143.960 C 239.324 144.211,239.689 144.633,239.884 144.897 C 240.080 145.162,241.079 146.025,242.105 146.815 C 244.345 148.539,245.664 149.870,246.511 151.263 C 246.857 151.832,247.209 152.358,247.293 152.432 C 247.377 152.505,247.598 152.865,247.784 153.231 C 248.529 154.699,248.902 155.223,249.946 156.270 C 251.241 157.568,252.055 158.294,252.215 158.294 C 252.329 158.294,254.825 160.575,256.462 162.173 C 256.920 162.621,257.768 163.581,258.347 164.305 C 258.925 165.030,260.724 166.912,262.344 168.487 C 265.448 171.506,265.491 171.693,262.915 170.975 C 262.169 170.767,260.839 170.457,259.960 170.286 C 259.081 170.115,257.522 169.800,256.496 169.585 C 255.470 169.370,253.911 169.051,253.031 168.874 C 252.152 168.698,251.312 168.476,251.166 168.380 C 251.019 168.285,250.312 168.119,249.594 168.011 C 248.877 167.904,247.977 167.653,247.596 167.454 C 247.214 167.255,246.702 167.091,246.457 167.090 C 246.213 167.089,245.613 166.888,245.125 166.644 C 243.591 165.875,243.378 165.787,241.732 165.232 C 240.847 164.934,239.910 164.702,239.649 164.717 C 239.388 164.731,239.893 164.974,240.773 165.255 C 242.380 165.770,243.820 166.351,244.724 166.850 C 245.313 167.175,247.830 167.926,250.366 168.533 C 251.392 168.779,252.891 169.142,253.698 169.339 C 255.896 169.878,258.699 170.494,260.493 170.834 C 261.372 171.001,262.572 171.240,263.158 171.366 C 266.173 172.015,266.104 171.701,262.425 168.059 C 260.776 166.426,258.381 163.951,257.102 162.558 C 255.823 161.166,253.976 159.367,252.999 158.561 C 250.471 156.476,249.252 155.129,247.999 153.031 C 246.135 149.913,244.986 148.561,242.840 146.958 C 240.338 145.088,239.918 144.681,238.727 142.971 C 237.172 140.738,232.378 131.712,232.378 131.015 C 232.378 130.483,228.563 127.022,225.140 124.450 C 222.687 122.608,222.183 121.955,222.139 120.562 C 222.099 119.305,220.783 116.579,219.665 115.437 C 219.476 115.244,219.320 114.927,219.320 114.733 C 219.320 114.539,219.141 114.312,218.921 114.227 C 218.701 114.143,218.521 113.900,218.521 113.688 C 218.521 113.476,218.431 113.262,218.321 113.213 C 218.211 113.165,217.872 112.765,217.567 112.325 C 215.430 109.245,214.952 108.579,214.791 108.461 C 214.509 108.254,214.281 107.129,214.521 107.129 C 215.011 107.129,218.521 111.792,218.521 112.444 C 218.521 112.598,218.634 112.725,218.773 112.725 C 219.014 112.725,219.508 113.495,220.099 114.790 C 220.250 115.120,220.482 115.390,220.615 115.390 C 220.748 115.390,220.933 115.600,221.026 115.856 C 221.119 116.113,221.344 116.562,221.526 116.855 C 222.483 118.391,222.930 119.040,223.383 119.555 L 223.884 120.123 225.198 119.488 C 226.849 118.692,227.012 118.696,228.277 119.567 C 229.782 120.603,230.268 120.560,237.175 118.779 C 238.861 118.345,240.758 117.886,241.390 117.760 C 242.023 117.634,242.646 117.466,242.774 117.387 C 242.902 117.308,244.363 116.891,246.020 116.460 C 247.678 116.029,249.694 115.482,250.500 115.245 C 252.062 114.784,254.551 114.099,255.430 113.888 C 255.793 113.800,256.314 114.089,257.064 114.791 C 257.670 115.358,258.569 116.159,259.063 116.570 C 259.556 116.981,260.570 117.873,261.316 118.552 C 262.062 119.231,263.021 120.075,263.448 120.427 C 263.875 120.780,264.828 121.619,265.566 122.293 C 266.304 122.966,267.327 123.877,267.839 124.317 C 268.351 124.757,269.786 126.022,271.027 127.128 C 273.343 129.192,278.461 133.697,282.478 137.210 C 283.724 138.299,285.163 139.566,285.676 140.024 C 286.189 140.483,287.688 141.810,289.007 142.974 C 290.326 144.138,291.542 145.213,291.708 145.363 C 297.012 150.144,297.402 150.441,297.402 149.698 C 297.402 149.382,296.428 148.405,290.207 142.472 C 282.802 135.412,280.872 133.433,280.733 132.757 C 280.652 132.366,280.414 131.446,280.203 130.713 C 276.725 118.638,277.411 112.810,282.833 108.377 C 284.210 107.251,284.365 106.646,283.544 105.602 C 283.190 105.151,283.011 105.060,283.011 105.328 M385.205 158.610 C 383.130 162.728,382.826 163.299,380.266 167.888 C 377.767 172.368,376.386 175.702,376.638 176.647 C 376.717 176.945,376.763 176.898,376.785 176.498 C 376.802 176.177,376.920 175.850,377.048 175.771 C 377.175 175.692,377.355 175.235,377.448 174.756 C 377.541 174.276,377.789 173.524,377.999 173.085 C 378.209 172.645,378.636 171.746,378.948 171.086 C 379.260 170.426,379.736 169.527,380.007 169.087 C 380.277 168.648,381.009 167.328,381.633 166.156 C 382.257 164.983,383.224 163.185,383.783 162.159 C 384.341 161.133,384.869 160.113,384.957 159.893 C 385.044 159.674,385.227 159.314,385.364 159.094 C 385.501 158.874,385.681 158.514,385.764 158.294 C 385.847 158.075,386.020 157.715,386.149 157.495 C 386.850 156.298,387.519 154.785,387.399 154.665 C 387.324 154.590,386.337 156.365,385.205 158.610 M197.735 159.354 C 194.926 160.421,193.759 161.133,191.608 163.091 C 190.524 164.078,189.108 164.878,186.542 165.952 C 186.029 166.167,185.250 166.502,184.810 166.697 C 184.370 166.892,183.741 167.128,183.411 167.222 C 183.081 167.315,182.811 167.503,182.811 167.640 C 182.811 167.776,182.633 167.888,182.415 167.888 C 182.197 167.888,181.270 168.615,180.354 169.503 C 179.438 170.391,178.414 171.260,178.078 171.435 C 177.743 171.609,175.364 172.825,172.792 174.135 C 170.220 175.446,167.854 176.828,167.535 177.205 C 167.021 177.814,165.413 179.119,163.988 180.083 C 162.608 181.017,160.746 182.205,160.408 182.368 C 160.198 182.468,159.667 182.789,159.227 183.080 C 158.787 183.371,158.098 183.741,157.695 183.903 C 157.292 184.064,156.962 184.304,156.962 184.436 C 156.962 184.569,156.829 184.677,156.666 184.677 C 156.503 184.677,155.377 185.276,154.164 186.009 C 152.951 186.742,151.886 187.342,151.798 187.342 C 151.710 187.342,150.849 187.881,149.886 188.541 C 148.922 189.201,148.030 189.740,147.904 189.740 C 147.777 189.740,147.509 189.890,147.310 190.073 C 146.848 190.496,146.087 190.985,145.237 191.406 C 144.870 191.587,144.450 191.826,144.304 191.937 C 143.392 192.626,141.155 193.995,140.706 194.137 C 140.413 194.230,140.173 194.418,140.173 194.555 C 140.173 194.692,140.012 194.803,139.814 194.803 C 139.617 194.803,139.206 195.020,138.902 195.284 C 138.597 195.548,137.892 195.997,137.336 196.283 C 136.779 196.569,136.201 196.898,136.050 197.015 C 135.247 197.638,132.921 199.049,132.453 199.198 C 132.155 199.292,131.912 199.468,131.912 199.587 C 131.912 199.707,131.702 199.877,131.446 199.966 C 131.189 200.054,130.620 200.367,130.180 200.660 C 129.740 200.954,129.081 201.342,128.714 201.524 C 128.348 201.706,127.988 201.927,127.915 202.016 C 127.841 202.105,127.201 202.527,126.492 202.954 C 125.783 203.381,124.884 203.939,124.493 204.193 C 124.103 204.448,123.526 204.770,123.210 204.910 C 122.895 205.049,122.558 205.291,122.462 205.447 C 122.352 205.624,120.908 205.730,118.583 205.730 C 114.592 205.730,113.901 205.992,113.353 207.715 C 113.262 208.001,112.764 208.601,112.245 209.048 C 111.727 209.495,111.103 210.040,110.858 210.260 C 109.221 211.730,107.359 212.411,106.150 211.979 C 105.589 211.779,104.852 211.610,104.513 211.604 C 104.173 211.598,103.659 211.465,103.369 211.310 C 101.674 210.403,98.936 211.310,98.175 213.031 C 97.195 215.250,95.852 215.854,91.883 215.862 C 90.228 215.866,88.394 215.994,87.808 216.147 C 87.222 216.299,86.322 216.522,85.809 216.641 C 84.349 216.981,83.320 217.619,82.137 218.919 C 81.536 219.580,80.917 220.120,80.762 220.120 C 80.607 220.120,80.480 220.215,80.480 220.332 C 80.480 221.169,72.897 225.183,71.317 225.183 C 70.739 225.183,69.657 225.354,68.911 225.562 C 67.555 225.942,65.914 226.296,63.158 226.805 C 62.352 226.954,61.572 227.206,61.426 227.364 C 61.135 227.678,61.404 227.639,64.624 226.895 C 66.901 226.369,69.650 225.815,71.925 225.423 C 72.913 225.253,74.159 224.804,74.886 224.357 C 75.577 223.932,76.228 223.584,76.333 223.584 C 76.906 223.584,80.003 221.291,82.463 219.046 C 84.784 216.927,87.585 216.123,92.645 216.123 C 96.038 216.123,97.418 215.427,98.559 213.143 C 99.542 211.174,101.737 210.926,105.829 212.320 C 107.883 213.019,111.701 210.802,113.710 207.742 C 114.881 205.960,114.843 205.973,118.588 206.056 L 121.919 206.129 124.584 204.483 C 127.635 202.599,133.847 198.797,134.523 198.401 C 135.438 197.865,141.439 194.153,143.771 192.681 C 145.090 191.849,146.769 190.826,147.502 190.408 C 148.235 189.990,149.817 189.009,151.019 188.228 C 152.220 187.448,153.276 186.809,153.366 186.809 C 154.225 186.809,165.608 179.520,167.355 177.851 C 168.117 177.123,170.011 175.963,172.552 174.668 C 178.304 171.735,179.229 171.175,180.205 170.036 C 181.110 168.981,182.866 167.844,184.943 166.967 C 185.603 166.689,186.682 166.235,187.342 165.959 C 189.470 165.068,190.206 164.615,192.022 163.077 C 196.066 159.653,200.252 158.434,203.997 159.592 C 205.535 160.068,206.260 160.382,211.380 162.785 C 212.656 163.384,214.006 163.951,214.381 164.045 C 214.755 164.139,215.128 164.323,215.208 164.453 C 215.289 164.584,215.617 164.683,215.938 164.673 C 216.586 164.654,216.271 164.477,213.591 163.352 C 212.038 162.700,211.487 162.449,208.261 160.923 C 203.586 158.712,200.598 158.267,197.735 159.354 M231.876 164.701 C 231.431 165.146,230.989 165.921,230.895 166.423 C 230.591 168.045,229.452 168.339,226.839 167.469 C 226.211 167.260,225.356 167.089,224.938 167.089 C 224.520 167.089,223.835 166.909,223.415 166.691 C 222.995 166.472,222.352 166.287,221.985 166.281 C 221.619 166.275,221.019 166.099,220.653 165.889 C 220.286 165.680,219.747 165.504,219.454 165.497 C 219.161 165.491,218.577 165.307,218.157 165.088 C 217.312 164.647,216.191 164.513,216.922 164.940 C 218.171 165.670,226.326 167.916,228.952 168.254 C 230.200 168.414,230.935 167.899,231.158 166.706 C 231.615 164.272,232.548 163.978,237.975 164.561 L 239.174 164.690 237.975 164.294 C 235.736 163.556,232.827 163.750,231.876 164.701 M376.093 178.281 C 375.237 181.519,374.480 186.459,374.274 190.140 L 374.169 192.005 374.543 190.140 C 374.749 189.114,374.925 187.610,374.934 186.798 C 374.943 185.986,375.116 184.667,375.320 183.867 C 375.523 183.067,375.775 181.692,375.880 180.813 C 375.984 179.933,376.185 178.998,376.326 178.734 C 376.467 178.470,376.544 177.990,376.496 177.668 C 376.435 177.252,376.317 177.431,376.093 178.281 M10.094 187.408 C 9.583 187.885,8.947 188.754,8.681 189.340 C 8.414 189.927,8.031 190.746,7.829 191.161 C 7.627 191.576,7.462 192.015,7.462 192.137 C 7.462 192.259,6.856 193.659,6.115 195.247 C 3.419 201.029,2.833 202.476,2.405 204.397 C 2.291 204.910,2.068 205.869,1.910 206.529 C 0.725 211.471,0.431 216.991,1.199 219.853 C 1.416 220.660,1.594 221.589,1.596 221.918 C 1.605 223.592,3.690 226.705,7.442 230.646 C 8.280 231.526,9.043 232.455,9.138 232.712 C 9.233 232.968,9.434 233.178,9.585 233.178 C 9.736 233.178,9.860 233.292,9.860 233.431 C 9.860 233.570,10.205 234.200,10.626 234.830 C 11.048 235.460,11.718 236.636,12.115 237.442 C 12.513 238.248,13.236 239.627,13.724 240.506 C 14.697 242.263,16.234 245.311,16.883 246.769 C 17.111 247.282,17.416 248.781,17.561 250.100 C 17.936 253.527,18.483 255.591,19.787 258.496 C 20.244 259.515,22.300 261.692,22.805 261.692 C 22.978 261.692,23.269 261.872,23.451 262.092 C 23.695 262.386,24.342 262.492,25.891 262.492 C 27.161 262.492,28.378 262.333,28.955 262.092 C 29.481 261.872,30.107 261.691,30.346 261.691 C 30.584 261.690,31.123 261.510,31.543 261.291 C 31.963 261.072,32.509 260.893,32.758 260.893 C 33.006 260.893,33.442 260.717,33.727 260.501 C 34.011 260.286,34.465 260.106,34.736 260.102 C 35.006 260.097,35.546 259.918,35.935 259.705 C 36.324 259.491,37.242 259.062,37.975 258.752 C 39.701 258.022,42.659 256.650,43.171 256.343 C 43.391 256.212,43.931 255.926,44.370 255.709 C 44.810 255.492,45.698 255.016,46.342 254.651 C 47.486 254.004,48.501 254.057,48.501 254.764 C 48.501 256.158,53.382 258.114,55.829 257.701 C 56.709 257.552,59.167 257.257,61.292 257.045 C 64.927 256.682,64.998 256.664,62.492 256.750 C 61.026 256.800,58.688 256.985,57.295 257.160 C 53.061 257.694,51.046 257.094,48.803 254.630 C 47.750 253.472,47.809 253.469,45.394 254.786 C 42.822 256.190,41.229 256.988,39.574 257.702 C 38.841 258.018,37.634 258.559,36.893 258.903 C 35.074 259.746,33.751 260.213,28.533 261.854 C 22.622 263.713,18.655 259.019,17.698 249.034 C 17.521 247.188,16.660 245.119,14.259 240.773 C 13.854 240.040,13.065 238.566,12.505 237.498 C 10.882 234.403,9.151 231.970,6.718 229.364 C 3.002 225.384,2.218 223.871,1.481 219.257 C 0.398 212.481,1.896 204.859,6.000 196.269 C 6.910 194.364,7.989 191.905,8.399 190.806 C 9.786 187.078,11.682 186.086,15.214 187.242 C 17.970 188.143,19.137 190.652,18.782 194.911 C 18.268 201.086,19.887 203.822,29.203 212.525 C 34.672 217.634,35.430 218.295,38.497 220.621 C 42.449 223.620,42.360 223.584,45.888 223.584 C 50.311 223.584,53.333 224.480,55.430 226.412 C 57.557 228.373,57.753 228.469,58.975 228.154 C 59.590 227.995,60.333 227.806,60.626 227.733 C 60.919 227.659,60.351 227.659,59.362 227.731 C 57.576 227.862,57.559 227.857,56.431 226.827 C 53.501 224.153,48.324 222.603,44.409 223.228 C 43.307 223.403,40.647 222.198,39.187 220.861 C 38.813 220.519,37.671 219.582,36.649 218.780 C 35.627 217.978,33.769 216.362,32.521 215.190 C 22.687 205.957,21.705 204.940,20.768 203.013 C 20.461 202.382,20.106 201.666,19.978 201.422 C 19.849 201.179,19.662 200.339,19.561 199.557 C 19.460 198.775,19.279 197.868,19.158 197.541 C 19.034 197.206,19.073 196.031,19.247 194.837 C 19.968 189.887,17.305 186.543,12.640 186.543 C 11.184 186.542,10.931 186.628,10.094 187.408 M373.933 195.266 C 373.890 198.098,373.976 198.833,374.581 200.862 C 374.965 202.147,375.436 203.797,375.630 204.530 C 375.823 205.263,376.099 206.223,376.242 206.662 L 376.503 207.462 376.526 206.725 C 376.539 206.320,376.434 205.781,376.293 205.526 C 376.153 205.272,375.924 204.524,375.786 203.864 C 375.549 202.738,375.299 201.913,374.613 200.000 C 374.456 199.560,374.249 197.582,374.154 195.603 L 373.982 192.005 373.933 195.266 M195.497 201.808 C 194.859 202.139,193.598 202.425,192.234 202.550 C 189.763 202.775,188.910 203.179,187.246 204.913 C 186.235 205.967,183.716 207.342,182.145 207.698 C 181.136 207.926,171.471 212.742,171.801 212.852 C 171.935 212.897,174.317 211.792,177.094 210.397 C 179.872 209.003,182.411 207.861,182.736 207.861 C 183.359 207.861,185.546 206.837,185.698 206.474 C 185.747 206.358,185.909 206.262,186.058 206.262 C 186.208 206.262,186.916 205.700,187.633 205.013 C 189.405 203.316,190.550 202.818,192.714 202.807 C 194.087 202.800,194.786 202.643,195.808 202.113 C 197.294 201.342,198.236 201.522,199.581 202.833 C 201.003 204.219,201.486 204.393,203.898 204.395 C 205.343 204.396,206.553 204.248,207.154 203.997 C 208.321 203.510,210.095 203.477,210.574 203.934 C 210.768 204.119,211.226 204.418,211.592 204.598 C 211.959 204.779,212.494 205.077,212.781 205.261 C 213.069 205.445,213.788 205.894,214.380 206.257 C 214.972 206.620,215.696 207.065,215.989 207.246 C 216.282 207.426,216.702 207.663,216.922 207.772 C 217.142 207.881,217.819 208.305,218.426 208.715 C 219.034 209.125,219.605 209.460,219.695 209.460 C 219.785 209.460,220.433 209.850,221.135 210.326 C 222.921 211.538,223.393 211.836,223.851 212.041 C 224.071 212.139,224.310 212.289,224.384 212.375 C 224.457 212.460,224.966 212.828,225.515 213.194 C 226.063 213.559,226.513 213.928,226.514 214.014 C 226.518 214.335,222.779 215.057,221.112 215.057 C 220.160 215.057,218.738 215.246,217.952 215.477 C 217.166 215.708,216.077 216.026,215.533 216.183 C 214.935 216.355,213.827 216.392,212.735 216.277 C 211.740 216.172,209.667 215.985,208.128 215.861 C 206.589 215.738,204.370 215.493,203.198 215.318 C 199.967 214.836,197.333 215.162,194.826 216.354 C 193.690 216.894,190.521 216.843,189.130 216.262 C 188.595 216.039,187.847 215.856,187.466 215.856 C 187.085 215.856,186.512 215.715,186.192 215.544 C 185.426 215.132,179.040 214.618,176.898 214.794 C 175.633 214.899,176.271 214.976,179.480 215.108 C 183.449 215.272,184.561 215.443,188.789 216.541 C 191.702 217.297,193.553 217.339,194.823 216.677 C 197.234 215.420,201.740 215.346,210.260 216.425 C 212.927 216.762,214.801 216.643,218.254 215.914 C 219.647 215.621,222.021 215.258,223.530 215.108 C 226.032 214.859,227.049 214.536,227.049 213.989 C 227.049 213.766,222.035 210.463,217.915 207.971 C 213.333 205.199,212.556 204.742,210.964 203.882 L 209.403 203.039 207.186 203.585 C 203.942 204.383,202.135 204.311,200.799 203.329 C 197.587 200.966,197.286 200.879,195.497 201.808 M376.580 208.177 C 376.563 208.571,376.671 209.213,376.819 209.604 C 378.616 214.330,377.409 221.833,373.470 230.420 C 373.258 230.882,373.085 231.338,373.085 231.433 C 373.085 231.841,368.802 240.424,367.627 242.372 C 362.380 251.067,357.900 254.033,349.900 254.108 C 347.628 254.129,344.750 254.284,343.504 254.453 C 335.984 255.468,334.476 255.575,327.590 255.572 C 320.337 255.569,317.945 255.327,311.659 253.956 C 310.197 253.638,308.066 253.775,305.396 254.361 C 300.360 255.465,299.173 255.641,296.604 255.668 C 293.463 255.700,293.181 255.581,290.740 253.201 C 288.738 251.251,287.588 250.891,286.342 251.827 C 285.103 252.758,274.370 255.157,265.157 256.561 C 261.788 257.075,255.582 257.163,244.770 256.852 C 241.213 256.750,239.480 256.767,240.640 256.894 C 245.243 257.396,261.969 257.514,264.091 257.058 C 265.190 256.822,266.584 256.629,267.188 256.629 C 267.793 256.629,268.797 256.449,269.420 256.229 C 270.044 256.009,271.004 255.829,271.555 255.829 C 272.106 255.829,273.140 255.659,273.853 255.450 C 274.567 255.241,275.809 254.948,276.616 254.798 C 280.629 254.052,284.091 253.141,286.288 252.252 C 288.373 251.408,288.577 251.469,290.623 253.536 C 293.056 255.994,294.547 256.540,297.616 256.095 C 300.671 255.653,305.577 254.770,307.928 254.238 C 309.257 253.938,311.948 254.089,312.458 254.493 C 312.605 254.609,313.624 254.834,314.724 254.994 C 315.823 255.154,317.322 255.413,318.055 255.570 C 319.732 255.929,335.567 255.926,337.775 255.566 C 341.416 254.972,344.653 254.690,348.301 254.647 C 352.054 254.602,354.933 254.246,356.296 253.659 C 358.172 252.850,359.881 251.886,360.642 251.209 C 361.110 250.793,361.852 250.131,362.292 249.738 C 363.594 248.576,365.730 245.968,367.017 243.971 C 368.243 242.068,370.686 237.759,370.686 237.500 C 370.686 237.422,371.123 236.447,371.657 235.334 C 372.639 233.288,373.125 232.208,373.829 230.513 C 374.042 230.000,374.381 229.241,374.583 228.826 C 374.785 228.411,374.950 227.949,374.950 227.800 C 374.950 227.651,375.115 227.151,375.317 226.689 C 376.119 224.857,377.327 220.953,377.681 219.054 C 378.193 216.303,377.864 210.742,377.089 209.061 C 376.953 208.767,376.791 208.288,376.727 207.995 C 376.640 207.598,376.603 207.644,376.580 208.177 M168.354 214.313 C 166.372 215.335,165.756 215.779,165.756 216.189 C 165.756 216.817,166.324 216.781,170.553 215.887 C 171.945 215.592,173.564 215.305,174.151 215.249 C 174.930 215.174,174.772 215.134,173.560 215.101 C 172.649 215.077,171.390 215.224,170.762 215.428 C 170.134 215.632,169.141 215.869,168.554 215.955 C 167.968 216.041,167.157 216.189,166.752 216.282 C 165.265 216.626,166.281 215.726,168.689 214.567 C 170.004 213.933,171.149 213.305,171.232 213.170 C 171.492 212.750,171.035 212.931,168.354 214.313 M169.087 253.933 C 167.500 254.077,166.547 254.336,165.356 254.943 C 164.477 255.392,163.398 255.893,162.958 256.056 C 161.995 256.414,152.607 256.813,137.109 257.156 C 130.806 257.295,122.412 257.530,118.454 257.678 C 114.497 257.826,107.787 258.020,103.542 258.108 C 95.405 258.277,95.450 258.270,93.671 259.702 C 90.233 262.469,86.012 262.270,79.014 259.008 C 75.321 257.286,72.984 256.755,68.088 256.526 L 65.157 256.389 68.088 256.744 C 69.700 256.939,71.739 257.184,72.618 257.288 C 74.502 257.511,76.580 258.166,78.614 259.178 C 81.739 260.732,82.110 260.893,82.579 260.893 C 82.845 260.893,83.447 261.084,83.916 261.319 C 86.373 262.544,91.765 261.819,93.822 259.986 C 95.491 258.499,95.392 258.509,111.168 258.239 C 119.209 258.102,125.896 257.923,126.028 257.841 C 126.160 257.760,132.365 257.569,139.816 257.417 C 154.812 257.112,162.853 256.675,163.891 256.110 C 164.257 255.910,164.737 255.647,164.957 255.526 C 167.549 254.092,171.733 253.749,181.262 254.191 C 184.972 254.363,191.066 254.623,194.803 254.769 C 198.541 254.915,202.978 255.161,204.664 255.315 C 206.349 255.469,211.086 255.710,215.190 255.850 C 219.294 255.990,223.851 256.217,225.316 256.354 C 226.782 256.491,230.380 256.586,233.311 256.566 L 238.641 256.530 233.977 256.356 C 227.826 256.128,217.376 255.627,211.703 255.289 C 209.198 255.139,204.162 254.898,200.510 254.751 C 196.858 254.605,192.349 254.371,190.490 254.232 C 185.923 253.891,171.732 253.692,169.087 253.933 " stroke="none" fill="#aba0a1" fill-rule="evenodd"></path><path id="path4" d="M308.594 2.185 C 302.617 3.884,297.997 6.833,292.738 12.304 C 284.182 21.206,283.859 21.675,281.951 27.981 C 281.618 29.081,281.014 30.999,280.609 32.245 C 280.203 33.491,279.669 35.230,279.421 36.109 C 279.173 36.989,278.804 38.248,278.600 38.907 C 278.234 40.093,277.458 42.851,276.763 45.436 C 274.694 53.134,275.471 56.582,279.977 59.703 C 282.657 61.558,283.780 66.442,282.428 70.353 C 282.048 71.452,281.475 73.251,281.153 74.350 C 280.832 75.450,280.410 76.889,280.216 77.548 C 280.022 78.208,279.662 79.587,279.418 80.613 C 279.173 81.639,278.794 83.173,278.577 84.022 C 277.534 88.085,278.331 91.589,281.172 95.444 C 282.209 96.851,282.262 97.007,281.980 97.815 C 281.366 99.578,282.616 105.191,283.784 105.913 C 284.466 106.334,284.068 107.367,282.833 108.377 C 277.411 112.810,276.725 118.638,280.203 130.713 C 280.414 131.446,280.652 132.366,280.733 132.757 C 280.872 133.433,282.856 135.467,290.207 142.470 C 295.837 147.835,297.361 149.391,297.481 149.900 C 297.584 150.336,297.612 150.312,297.637 149.767 C 297.667 149.096,297.619 149.046,287.146 139.061 C 281.024 133.225,281.125 133.340,280.864 131.831 C 280.757 131.216,280.547 130.353,280.396 129.913 C 279.961 128.639,279.531 126.839,279.264 125.169 C 279.129 124.318,278.897 123.397,278.749 123.121 C 278.308 122.296,278.410 115.853,278.879 114.954 C 279.098 114.534,279.278 113.971,279.279 113.703 C 279.282 112.720,281.251 110.123,283.239 108.480 C 284.448 107.481,284.709 106.375,283.937 105.522 C 282.980 104.465,282.395 102.029,282.405 99.138 L 282.413 96.344 281.292 94.874 C 280.143 93.368,279.673 92.561,278.915 90.797 C 278.437 89.687,278.297 85.422,278.729 85.155 C 278.865 85.071,279.053 84.314,279.146 83.473 C 279.240 82.633,279.429 81.706,279.566 81.412 C 279.704 81.119,279.930 80.340,280.067 79.680 C 280.418 78.001,280.888 76.246,281.281 75.150 C 281.465 74.637,281.881 73.318,282.205 72.219 C 282.528 71.119,282.932 69.860,283.102 69.420 C 283.585 68.172,283.479 64.795,282.918 63.553 C 282.014 61.551,281.548 60.742,281.014 60.251 C 275.643 55.309,274.942 52.826,277.018 46.103 C 277.222 45.443,277.470 44.391,277.570 43.765 C 277.670 43.139,277.849 42.566,277.968 42.493 C 278.086 42.419,278.267 41.805,278.369 41.127 C 278.470 40.449,278.716 39.583,278.915 39.201 C 279.114 38.820,279.278 38.202,279.279 37.828 C 279.280 37.454,279.388 37.035,279.519 36.895 C 279.650 36.756,279.878 36.103,280.027 35.443 C 280.312 34.173,280.715 32.941,281.314 31.503 C 281.515 31.022,281.679 30.396,281.679 30.113 C 281.679 29.830,281.852 29.205,282.064 28.723 C 282.276 28.242,282.701 26.993,283.009 25.949 C 284.213 21.862,285.650 19.986,293.805 11.859 C 295.864 9.807,298.085 7.768,298.741 7.329 C 299.397 6.890,299.993 6.470,300.067 6.396 C 300.547 5.914,305.489 3.464,305.983 3.464 C 306.188 3.464,306.480 3.340,306.631 3.189 C 307.410 2.410,312.850 1.957,316.456 2.371 C 320.424 2.827,326.421 4.288,326.671 4.860 C 326.720 4.972,326.887 5.063,327.042 5.063 C 328.641 5.063,333.469 8.773,335.963 11.920 C 336.837 13.022,337.647 13.944,339.511 15.960 C 339.732 16.200,340.208 16.814,340.567 17.325 C 340.926 17.836,341.355 18.374,341.521 18.521 C 341.936 18.889,347.768 26.617,347.768 26.800 C 347.768 26.934,349.242 28.990,349.896 29.769 C 350.045 29.946,350.167 30.207,350.167 30.349 C 350.167 30.492,350.336 30.777,350.543 30.984 C 350.750 31.191,351.606 32.669,352.446 34.268 C 353.286 35.867,354.050 37.235,354.144 37.308 C 354.238 37.382,354.609 38.071,354.969 38.841 C 355.328 39.610,355.714 40.240,355.826 40.240 C 355.938 40.240,356.029 40.369,356.029 40.527 C 356.029 40.770,358.840 45.569,360.357 47.917 C 360.612 48.311,360.961 48.904,361.133 49.234 C 361.304 49.564,361.545 49.833,361.668 49.833 C 361.791 49.833,361.892 49.989,361.892 50.179 C 361.892 50.369,362.070 50.759,362.287 51.045 C 362.688 51.572,364.247 53.711,365.223 55.073 C 365.516 55.482,368.891 59.033,372.723 62.965 L 379.690 70.113 379.882 73.098 C 380.094 76.394,380.252 76.841,381.612 77.987 C 384.071 80.060,385.320 80.732,387.800 81.317 C 390.597 81.977,391.827 82.738,392.436 84.186 C 393.439 86.575,393.052 99.405,391.863 103.167 C 391.648 103.846,391.472 104.592,391.472 104.824 C 391.472 105.502,390.630 107.174,389.684 108.373 C 388.731 109.581,388.520 111.512,389.077 113.924 C 390.281 119.132,390.567 119.872,392.098 121.738 C 394.207 124.310,394.625 125.130,394.924 127.268 C 395.183 129.128,394.840 133.299,394.257 135.376 C 393.242 138.991,392.980 139.818,392.637 140.481 C 392.436 140.870,392.272 141.417,392.272 141.696 C 392.272 141.975,392.096 142.436,391.881 142.721 C 391.665 143.005,391.485 143.459,391.481 143.730 C 391.476 144.000,391.305 144.540,391.101 144.929 C 390.897 145.318,390.516 146.176,390.255 146.835 C 389.482 148.785,388.809 150.331,387.984 152.053 C 387.558 152.944,387.209 153.799,387.209 153.952 C 387.209 154.106,387.029 154.381,386.809 154.564 C 386.589 154.746,386.409 155.055,386.409 155.251 C 386.409 155.446,386.051 156.213,385.613 156.956 C 385.176 157.698,384.743 158.603,384.652 158.966 C 384.560 159.330,384.388 159.627,384.269 159.627 C 384.150 159.627,383.974 159.987,383.877 160.426 C 383.781 160.866,383.591 161.226,383.457 161.226 C 383.322 161.226,383.211 161.338,383.211 161.475 C 383.211 161.834,382.750 162.833,382.159 163.757 C 381.877 164.197,381.377 165.097,381.046 165.756 C 380.716 166.416,379.869 167.937,379.163 169.136 C 378.458 170.336,377.881 171.498,377.881 171.719 C 377.881 171.940,377.776 172.186,377.646 172.266 C 377.342 172.454,376.277 175.923,375.227 180.147 C 375.063 180.806,374.810 182.365,374.664 183.611 C 374.518 184.857,374.286 186.214,374.149 186.627 C 374.011 187.040,373.823 189.918,373.730 193.023 C 373.567 198.457,373.642 199.449,374.377 201.599 C 374.527 202.039,374.830 203.058,375.050 203.864 C 375.270 204.670,375.586 205.809,375.753 206.396 C 377.615 212.927,377.678 217.616,375.973 222.652 C 375.825 223.091,375.603 223.855,375.480 224.350 C 375.358 224.844,375.129 225.378,374.971 225.536 C 374.813 225.694,374.684 226.076,374.684 226.385 C 374.684 226.694,374.507 227.180,374.292 227.464 C 374.077 227.749,373.897 228.143,373.893 228.341 C 373.882 228.781,373.287 230.193,371.346 234.377 C 370.802 235.550,370.250 236.689,370.120 236.909 C 369.990 237.129,369.814 237.488,369.728 237.708 C 369.643 237.928,369.320 238.588,369.011 239.174 C 368.702 239.760,368.263 240.600,368.035 241.039 C 367.808 241.479,367.555 241.898,367.474 241.972 C 367.393 242.045,367.041 242.585,366.691 243.171 C 364.875 246.217,361.659 249.786,359.451 251.207 C 356.059 253.391,354.835 253.698,349.516 253.698 C 346.778 253.698,344.387 253.842,343.179 254.080 C 335.438 255.604,319.404 255.569,314.191 254.016 C 312.218 253.428,306.566 253.462,304.897 254.071 C 304.255 254.305,303.348 254.497,302.880 254.497 C 302.412 254.497,301.412 254.680,300.657 254.904 C 299.903 255.128,298.103 255.338,296.658 255.371 C 293.687 255.437,293.874 255.524,290.496 252.502 C 288.711 250.905,287.231 250.607,286.031 251.603 C 285.831 251.769,285.219 251.997,284.672 252.109 C 284.125 252.221,283.318 252.436,282.878 252.586 C 281.142 253.180,279.067 253.698,278.422 253.698 C 278.048 253.698,277.159 253.868,276.446 254.077 C 274.063 254.775,267.436 255.903,261.367 256.644 C 259.410 256.883,257.485 256.889,253.505 256.669 C 250.606 256.509,244.997 256.309,241.039 256.224 C 237.082 256.140,232.765 255.964,231.446 255.833 C 230.127 255.701,226.049 255.522,222.385 255.434 C 218.721 255.345,214.763 255.154,213.591 255.009 C 212.418 254.864,208.041 254.621,203.864 254.470 C 199.687 254.319,195.130 254.094,193.738 253.971 C 192.345 253.848,189.467 253.735,187.342 253.719 C 185.217 253.703,181.739 253.568,179.614 253.419 C 173.743 253.007,167.130 253.515,165.474 254.504 C 163.027 255.965,161.948 256.110,151.396 256.402 C 146.029 256.550,139.660 256.770,137.242 256.890 C 133.537 257.074,134.082 257.094,140.706 257.013 C 151.295 256.885,161.979 256.421,162.958 256.049 C 163.398 255.881,164.597 255.344,165.623 254.855 C 168.880 253.303,174.678 253.330,206.129 255.045 C 208.914 255.196,214.071 255.430,217.588 255.563 C 221.106 255.696,225.963 255.929,228.381 256.080 C 243.875 257.052,260.512 257.269,265.157 256.561 C 274.370 255.157,285.103 252.758,286.342 251.827 C 287.588 250.891,288.738 251.251,290.740 253.201 C 293.181 255.581,293.463 255.700,296.604 255.668 C 299.173 255.641,300.360 255.465,305.396 254.361 C 308.066 253.775,310.197 253.638,311.659 253.956 C 317.945 255.327,320.337 255.569,327.590 255.572 C 334.476 255.575,335.984 255.468,343.504 254.453 C 344.750 254.284,347.628 254.129,349.900 254.108 C 357.900 254.033,362.380 251.067,367.627 242.372 C 368.802 240.424,373.085 231.841,373.085 231.433 C 373.085 231.338,373.258 230.882,373.470 230.420 C 377.492 221.652,378.398 216.024,376.845 209.460 C 375.834 205.189,375.547 204.097,374.581 200.862 C 373.097 195.888,374.235 184.034,377.101 174.625 C 377.679 172.728,378.279 171.450,380.266 167.888 C 382.768 163.401,383.109 162.759,385.281 158.428 C 387.376 154.251,388.039 152.857,389.464 149.634 C 389.852 148.754,390.279 147.795,390.412 147.502 C 392.552 142.779,394.698 135.806,395.317 131.569 C 395.953 127.214,395.385 125.262,392.397 121.519 C 390.961 119.721,390.616 118.857,389.611 114.554 C 388.843 111.262,388.893 109.967,389.837 108.766 C 392.307 105.622,393.205 100.960,393.205 91.272 C 393.205 82.683,392.611 81.604,387.475 80.852 C 385.888 80.619,384.530 79.908,382.565 78.282 C 380.523 76.592,380.659 76.891,380.313 73.309 C 379.951 69.566,380.533 70.401,372.807 62.530 C 365.751 55.341,363.476 52.557,360.426 47.385 C 360.280 47.136,359.069 45.097,357.735 42.853 C 355.238 38.652,353.807 36.127,352.479 33.578 C 351.459 31.621,351.274 31.311,350.018 29.447 C 347.058 25.058,342.935 19.579,339.925 16.038 C 338.889 14.820,337.521 13.201,336.885 12.441 C 333.212 8.051,330.813 6.145,326.982 4.571 C 326.176 4.240,325.276 3.866,324.983 3.739 C 321.657 2.307,311.539 1.348,308.594 2.185 M279.287 52.357 C 278.618 53.163,279.488 56.402,280.808 58.023 C 281.443 58.803,282.088 59.715,282.240 60.048 C 283.036 61.795,284.077 61.504,284.077 59.535 C 284.077 58.004,283.928 57.672,282.179 55.296 C 281.639 54.564,281.012 53.514,280.786 52.965 C 280.352 51.914,279.831 51.702,279.287 52.357 M282.332 56.170 C 283.421 57.712,284.165 59.961,283.730 60.396 C 283.490 60.636,282.820 60.145,282.163 59.249 C 281.824 58.786,281.172 57.921,280.715 57.327 C 279.760 56.085,279.290 53.796,279.851 53.119 C 280.132 52.781,280.251 52.852,280.665 53.610 C 280.931 54.098,281.681 55.250,282.332 56.170 M232.656 131.808 C 232.802 132.191,233.652 133.900,234.547 135.606 C 238.723 143.572,239.222 144.254,242.840 146.958 C 244.986 148.561,246.135 149.913,247.999 153.031 C 249.252 155.129,250.471 156.476,252.999 158.561 C 253.976 159.367,255.823 161.166,257.102 162.558 C 258.381 163.951,260.776 166.426,262.425 168.059 C 266.104 171.701,266.173 172.015,263.158 171.366 C 262.572 171.240,261.372 171.001,260.493 170.834 C 258.699 170.494,255.896 169.878,253.698 169.339 C 252.891 169.142,251.392 168.779,250.366 168.533 C 247.809 167.921,245.309 167.173,244.724 166.846 C 242.357 165.523,237.002 164.157,234.182 164.157 C 232.697 164.157,231.437 165.219,231.158 166.706 C 230.934 167.901,230.200 168.415,228.952 168.251 C 226.782 167.966,221.412 166.564,218.388 165.493 C 217.508 165.182,216.549 164.862,216.256 164.782 C 215.963 164.702,215.345 164.469,214.883 164.264 C 214.421 164.059,213.974 163.891,213.889 163.891 C 213.804 163.891,212.683 163.397,211.398 162.794 C 206.257 160.380,205.536 160.068,203.997 159.592 C 200.252 158.434,196.066 159.653,192.022 163.077 C 190.206 164.615,189.470 165.068,187.342 165.959 C 186.682 166.235,185.603 166.689,184.943 166.967 C 182.866 167.844,181.110 168.981,180.205 170.036 C 179.229 171.175,178.304 171.735,172.552 174.668 C 170.011 175.963,168.117 177.123,167.355 177.851 C 165.608 179.520,154.225 186.809,153.366 186.809 C 153.276 186.809,152.220 187.448,151.019 188.228 C 149.817 189.009,148.235 189.990,147.502 190.408 C 146.769 190.826,145.090 191.849,143.771 192.681 C 141.439 194.153,135.438 197.865,134.523 198.401 C 133.847 198.797,127.635 202.599,124.584 204.483 L 121.919 206.129 118.588 206.056 C 114.843 205.973,114.881 205.960,113.710 207.742 C 111.701 210.802,107.883 213.019,105.829 212.320 C 101.737 210.926,99.542 211.174,98.559 213.143 C 97.418 215.427,96.038 216.123,92.645 216.123 C 87.585 216.123,84.784 216.927,82.463 219.046 C 80.003 221.291,76.906 223.584,76.333 223.584 C 76.228 223.584,75.577 223.932,74.886 224.357 C 74.159 224.804,72.913 225.253,71.925 225.423 C 69.681 225.809,66.900 226.369,64.757 226.865 C 63.804 227.086,62.365 227.402,61.559 227.568 C 60.753 227.734,59.590 227.998,58.975 228.156 C 57.753 228.469,57.556 228.372,55.430 226.412 C 53.333 224.480,50.311 223.584,45.888 223.584 C 42.360 223.584,42.449 223.620,38.497 220.621 C 35.430 218.295,34.672 217.634,29.203 212.525 C 19.887 203.822,18.268 201.086,18.782 194.911 C 19.137 190.652,17.970 188.143,15.214 187.242 C 11.682 186.086,9.786 187.078,8.399 190.806 C 7.989 191.905,6.910 194.364,6.000 196.269 C 1.896 204.859,0.398 212.481,1.481 219.257 C 2.218 223.871,3.002 225.384,6.718 229.364 C 9.151 231.970,10.882 234.403,12.505 237.498 C 13.065 238.566,13.854 240.040,14.259 240.773 C 16.660 245.119,17.521 247.188,17.698 249.034 C 18.655 259.019,22.622 263.713,28.533 261.854 C 33.751 260.213,35.074 259.746,36.893 258.903 C 37.634 258.559,38.841 258.018,39.574 257.702 C 41.229 256.988,42.822 256.190,45.394 254.786 C 47.809 253.469,47.750 253.472,48.803 254.630 C 49.818 255.745,52.093 257.253,52.538 257.104 C 52.712 257.046,52.385 256.779,51.810 256.511 C 51.236 256.243,50.240 255.495,49.597 254.850 C 47.773 253.020,47.517 252.999,45.170 254.485 C 44.036 255.203,39.371 257.472,37.042 258.439 C 36.529 258.652,35.770 258.991,35.355 259.193 C 34.940 259.395,34.460 259.561,34.289 259.562 C 34.118 259.563,33.656 259.731,33.262 259.937 C 32.869 260.142,32.150 260.395,31.664 260.499 C 31.177 260.603,30.660 260.783,30.513 260.899 C 30.366 261.014,29.675 261.194,28.977 261.298 C 28.279 261.402,27.643 261.593,27.563 261.723 C 26.988 262.653,23.174 261.484,21.707 259.929 C 20.836 259.006,19.454 256.482,19.454 255.815 C 19.454 255.642,19.281 254.946,19.069 254.266 C 18.608 252.787,17.855 248.514,17.855 247.378 C 17.855 246.932,17.675 246.418,17.455 246.236 C 17.235 246.053,17.055 245.688,17.055 245.423 C 17.055 245.158,16.875 244.762,16.656 244.542 C 16.436 244.322,16.256 244.007,16.256 243.843 C 16.256 243.559,15.208 241.459,14.923 241.173 C 14.780 241.029,13.649 238.946,12.538 236.780 C 11.069 233.915,9.350 231.581,6.439 228.501 C 3.872 225.784,3.254 224.786,2.238 221.719 C 1.574 219.715,1.539 210.385,2.186 208.128 C 2.417 207.322,2.745 206.123,2.914 205.463 C 3.084 204.803,3.333 203.836,3.467 203.314 C 3.601 202.791,3.895 202.012,4.119 201.581 C 4.344 201.151,4.528 200.659,4.529 200.488 C 4.530 200.317,4.704 199.837,4.916 199.422 C 5.128 199.007,5.856 197.468,6.533 196.003 C 7.209 194.537,7.935 192.998,8.145 192.583 C 8.356 192.168,8.528 191.711,8.528 191.567 C 8.528 191.210,9.760 188.642,10.184 188.116 C 11.694 186.241,16.356 187.248,17.803 189.763 C 18.330 190.678,18.388 191.153,18.388 194.566 C 18.388 201.005,19.518 203.737,23.933 207.971 C 24.711 208.717,26.090 210.049,26.997 210.931 C 32.717 216.492,40.431 223.051,41.251 223.051 C 41.392 223.051,41.656 223.231,41.839 223.451 C 42.101 223.767,42.867 223.851,45.512 223.851 C 48.990 223.851,50.644 224.162,53.031 225.266 C 54.400 225.898,54.319 225.841,56.095 227.445 C 57.398 228.621,58.921 229.065,59.538 228.448 C 59.647 228.338,60.477 228.107,61.381 227.933 C 62.285 227.760,63.924 227.423,65.023 227.185 C 66.123 226.947,67.861 226.592,68.887 226.395 C 72.878 225.629,73.965 225.360,74.350 225.043 C 74.570 224.861,75.020 224.631,75.350 224.531 C 75.680 224.430,75.949 224.236,75.949 224.099 C 75.949 223.963,76.175 223.851,76.450 223.851 C 76.725 223.851,77.099 223.671,77.282 223.451 C 77.464 223.231,77.724 223.051,77.858 223.051 C 78.327 223.051,80.356 221.468,82.534 219.402 C 84.682 217.365,86.743 216.775,92.921 216.426 C 96.663 216.215,97.622 215.720,98.828 213.378 C 99.677 211.728,102.922 211.316,105.317 212.553 C 106.299 213.061,107.808 213.020,108.820 212.458 C 110.634 211.452,113.791 208.830,113.791 208.329 C 113.791 208.086,114.165 207.597,114.974 206.783 C 115.577 206.175,117.368 206.089,119.688 206.555 C 121.256 206.870,122.066 206.570,125.317 204.472 C 125.940 204.070,126.653 203.619,126.903 203.470 C 129.667 201.813,131.269 200.816,131.379 200.683 C 131.452 200.595,131.812 200.370,132.179 200.184 C 133.118 199.707,133.795 199.291,134.748 198.608 C 135.202 198.281,135.859 197.887,136.208 197.730 C 136.557 197.574,137.082 197.299,137.375 197.121 C 138.324 196.542,139.504 195.752,139.640 195.604 C 139.714 195.524,140.073 195.312,140.440 195.133 C 141.181 194.771,142.101 194.211,142.305 193.999 C 142.378 193.922,142.738 193.713,143.105 193.534 C 143.916 193.137,144.546 192.745,145.768 191.872 C 146.282 191.506,147.272 190.909,147.968 190.545 C 148.664 190.182,149.234 189.792,149.234 189.679 C 149.234 189.566,149.405 189.474,149.615 189.474 C 149.824 189.474,150.154 189.324,150.347 189.140 C 150.541 188.957,151.479 188.349,152.432 187.790 C 153.384 187.231,154.344 186.660,154.564 186.521 C 154.783 186.382,155.293 186.138,155.696 185.979 C 156.099 185.821,156.429 185.583,156.429 185.450 C 156.429 185.318,156.562 185.210,156.725 185.210 C 157.202 185.210,164.085 181.013,164.909 180.219 C 165.103 180.033,165.363 179.880,165.487 179.880 C 165.611 179.880,166.232 179.381,166.867 178.770 C 168.290 177.402,170.421 175.883,170.917 175.883 C 171.121 175.883,171.436 175.703,171.619 175.483 C 171.801 175.263,172.161 175.083,172.418 175.083 C 172.676 175.083,173.035 174.903,173.218 174.684 C 173.400 174.464,173.766 174.284,174.031 174.284 C 174.296 174.284,174.676 174.120,174.877 173.919 C 175.077 173.719,175.536 173.463,175.895 173.350 C 176.255 173.238,176.609 173.072,176.682 172.982 C 176.755 172.892,177.390 172.518,178.092 172.152 C 178.794 171.785,179.949 170.874,180.658 170.126 C 182.047 168.661,182.953 168.161,187.875 166.146 C 189.475 165.491,191.094 164.500,191.739 163.780 C 194.663 160.516,201.974 158.551,205.063 160.200 C 206.249 160.833,210.157 162.641,212.854 163.805 C 213.406 164.043,214.176 164.400,214.565 164.597 C 214.954 164.795,215.501 164.957,215.780 164.957 C 216.059 164.957,216.520 165.133,216.804 165.348 C 217.089 165.563,217.562 165.744,217.855 165.749 C 218.148 165.755,218.708 165.926,219.099 166.130 C 219.490 166.334,220.299 166.584,220.896 166.685 C 221.494 166.786,222.043 166.967,222.117 167.087 C 222.192 167.207,222.882 167.390,223.651 167.493 C 224.421 167.597,225.190 167.794,225.361 167.932 C 225.740 168.238,230.128 168.716,230.665 168.510 C 230.877 168.429,231.120 168.046,231.204 167.659 C 231.448 166.536,232.201 165.201,232.761 164.898 C 233.473 164.512,238.626 164.866,239.594 165.367 C 240.008 165.581,240.577 165.756,240.859 165.756 C 241.347 165.756,243.208 166.462,244.637 167.188 C 245.558 167.657,247.546 168.238,252.498 169.486 C 253.231 169.671,254.476 169.930,255.264 170.063 C 256.053 170.196,256.914 170.421,257.179 170.562 C 257.443 170.704,258.074 170.819,258.579 170.819 C 259.085 170.819,260.082 170.990,260.796 171.198 C 262.016 171.555,265.235 172.152,265.938 172.152 C 266.862 172.152,265.771 170.770,262.492 167.787 C 261.979 167.320,260.467 165.683,259.133 164.148 C 256.745 161.402,255.871 160.541,253.325 158.428 C 250.728 156.271,249.741 155.183,248.494 153.098 C 246.299 149.431,245.572 148.586,242.836 146.521 C 240.430 144.705,238.750 142.822,237.889 140.973 C 237.786 140.753,237.473 140.213,237.192 139.773 C 236.911 139.334,235.803 137.209,234.730 135.051 C 232.993 131.560,231.930 129.897,232.656 131.808 M196.132 201.152 C 195.129 201.676,193.170 202.130,190.752 202.398 C 189.350 202.554,189.104 202.689,187.603 204.136 C 186.707 204.999,185.742 205.778,185.459 205.868 C 185.175 205.958,184.943 206.144,184.943 206.280 C 184.943 206.417,184.734 206.530,184.477 206.531 C 184.221 206.532,183.703 206.693,183.327 206.889 C 182.950 207.086,182.291 207.333,181.861 207.439 C 180.887 207.678,173.917 211.082,173.795 211.376 C 173.746 211.495,173.555 211.592,173.370 211.592 C 172.493 211.592,165.354 215.504,165.277 216.027 C 165.136 216.986,165.868 217.319,167.300 216.947 C 175.452 214.829,180.100 214.854,189.607 217.068 C 192.959 217.848,193.289 217.845,194.847 217.014 L 196.269 216.256 202.001 216.280 C 205.530 216.295,208.257 216.431,209.098 216.632 C 210.888 217.062,215.809 217.154,216.065 216.762 C 216.262 216.459,218.939 216.023,223.948 215.479 C 226.247 215.229,226.920 215.060,227.213 214.660 C 227.750 213.924,227.696 213.806,226.449 212.996 C 225.826 212.591,225.158 212.109,224.964 211.926 C 224.771 211.742,224.441 211.592,224.231 211.592 C 224.022 211.592,223.851 211.492,223.851 211.369 C 223.851 211.246,223.581 211.004,223.251 210.833 C 222.921 210.661,222.292 210.284,221.852 209.994 C 221.412 209.705,220.813 209.345,220.520 209.194 C 220.227 209.043,219.670 208.711,219.283 208.457 C 218.895 208.203,217.936 207.601,217.151 207.120 C 216.365 206.639,215.488 206.099,215.200 205.921 C 213.539 204.891,212.452 204.238,211.897 203.938 C 211.551 203.752,210.798 203.335,210.224 203.012 C 209.222 202.449,209.148 202.444,208.413 202.878 C 207.991 203.127,207.337 203.331,206.959 203.331 C 206.581 203.331,205.447 203.473,204.439 203.646 C 202.399 203.995,201.491 203.740,200.096 202.427 C 198.437 200.866,197.349 200.516,196.132 201.152 M198.739 201.872 C 199.286 202.242,200.213 202.898,200.799 203.329 C 202.135 204.311,203.942 204.383,207.186 203.585 L 209.403 203.039 210.964 203.882 C 212.556 204.742,213.333 205.199,217.915 207.971 C 222.035 210.463,227.049 213.766,227.049 213.989 C 227.049 214.536,226.032 214.859,223.530 215.108 C 222.021 215.258,219.647 215.621,218.254 215.914 C 214.801 216.643,212.927 216.762,210.260 216.425 C 201.740 215.346,197.234 215.420,194.823 216.677 C 193.564 217.333,191.583 217.294,188.887 216.560 C 184.224 215.291,183.557 215.205,178.414 215.213 C 174.144 215.219,172.934 215.314,170.686 215.821 C 166.443 216.778,165.756 216.830,165.756 216.189 C 165.756 215.641,180.241 208.138,182.145 207.700 C 183.725 207.337,186.237 205.965,187.246 204.913 C 188.910 203.179,189.763 202.775,192.234 202.550 C 193.598 202.425,194.859 202.139,195.497 201.808 C 196.916 201.071,197.576 201.084,198.739 201.872 M61.159 256.366 C 59.547 256.467,58.034 256.634,57.797 256.737 C 57.561 256.841,56.362 257.031,55.133 257.162 L 52.898 257.398 55.673 257.265 C 57.200 257.191,59.059 257.012,59.804 256.866 C 60.549 256.720,63.318 256.589,65.956 256.575 C 72.373 256.541,74.621 256.960,79.014 259.008 C 86.012 262.270,90.233 262.469,93.671 259.702 C 95.486 258.241,95.166 258.280,108.078 257.938 C 130.811 257.337,133.268 257.229,122.452 257.302 C 117.175 257.338,108.912 257.508,104.090 257.680 L 95.321 257.993 93.830 259.131 C 90.542 261.640,86.555 261.917,82.172 259.939 C 81.710 259.731,81.239 259.560,81.125 259.560 C 81.011 259.560,79.892 259.064,78.638 258.456 C 74.316 256.364,69.799 255.824,61.159 256.366 " stroke="none" fill="#848484" fill-rule="evenodd"></path></g></svg>